%TF.GenerationSoftware,KiCad,Pcbnew,(6.0.4)*%
%TF.CreationDate,2022-04-18T00:34:21+09:00*%
%TF.ProjectId,chuniAir,6368756e-6941-4697-922e-6b696361645f,rev?*%
%TF.SameCoordinates,Original*%
%TF.FileFunction,Legend,Top*%
%TF.FilePolarity,Positive*%
%FSLAX46Y46*%
G04 Gerber Fmt 4.6, Leading zero omitted, Abs format (unit mm)*
G04 Created by KiCad (PCBNEW (6.0.4)) date 2022-04-18 00:34:21*
%MOMM*%
%LPD*%
G01*
G04 APERTURE LIST*
%ADD10C,0.150000*%
%ADD11C,0.120000*%
G04 APERTURE END LIST*
D10*
X120277095Y-54951380D02*
X120848523Y-54951380D01*
X120562809Y-55951380D02*
X120562809Y-54951380D01*
X121753285Y-55951380D02*
X121419952Y-55475190D01*
X121181857Y-55951380D02*
X121181857Y-54951380D01*
X121562809Y-54951380D01*
X121658047Y-54999000D01*
X121705666Y-55046619D01*
X121753285Y-55141857D01*
X121753285Y-55284714D01*
X121705666Y-55379952D01*
X121658047Y-55427571D01*
X121562809Y-55475190D01*
X121181857Y-55475190D01*
X122658047Y-54951380D02*
X122181857Y-54951380D01*
X122134238Y-55427571D01*
X122181857Y-55379952D01*
X122277095Y-55332333D01*
X122515190Y-55332333D01*
X122610428Y-55379952D01*
X122658047Y-55427571D01*
X122705666Y-55522809D01*
X122705666Y-55760904D01*
X122658047Y-55856142D01*
X122610428Y-55903761D01*
X122515190Y-55951380D01*
X122277095Y-55951380D01*
X122181857Y-55903761D01*
X122134238Y-55856142D01*
X120277095Y-50125380D02*
X120848523Y-50125380D01*
X120562809Y-51125380D02*
X120562809Y-50125380D01*
X121753285Y-51125380D02*
X121419952Y-50649190D01*
X121181857Y-51125380D02*
X121181857Y-50125380D01*
X121562809Y-50125380D01*
X121658047Y-50173000D01*
X121705666Y-50220619D01*
X121753285Y-50315857D01*
X121753285Y-50458714D01*
X121705666Y-50553952D01*
X121658047Y-50601571D01*
X121562809Y-50649190D01*
X121181857Y-50649190D01*
X122086619Y-50125380D02*
X122705666Y-50125380D01*
X122372333Y-50506333D01*
X122515190Y-50506333D01*
X122610428Y-50553952D01*
X122658047Y-50601571D01*
X122705666Y-50696809D01*
X122705666Y-50934904D01*
X122658047Y-51030142D01*
X122610428Y-51077761D01*
X122515190Y-51125380D01*
X122229476Y-51125380D01*
X122134238Y-51077761D01*
X122086619Y-51030142D01*
X72779095Y-52538380D02*
X73350523Y-52538380D01*
X73064809Y-53538380D02*
X73064809Y-52538380D01*
X74255285Y-53538380D02*
X73921952Y-53062190D01*
X73683857Y-53538380D02*
X73683857Y-52538380D01*
X74064809Y-52538380D01*
X74160047Y-52586000D01*
X74207666Y-52633619D01*
X74255285Y-52728857D01*
X74255285Y-52871714D01*
X74207666Y-52966952D01*
X74160047Y-53014571D01*
X74064809Y-53062190D01*
X73683857Y-53062190D01*
X75112428Y-52871714D02*
X75112428Y-53538380D01*
X74874333Y-52490761D02*
X74636238Y-53205047D01*
X75255285Y-53205047D01*
X73342571Y-82246380D02*
X72771142Y-82246380D01*
X73056857Y-82246380D02*
X73056857Y-81246380D01*
X72961619Y-81389238D01*
X72866380Y-81484476D01*
X72771142Y-81532095D01*
X73723523Y-81341619D02*
X73771142Y-81294000D01*
X73866380Y-81246380D01*
X74104476Y-81246380D01*
X74199714Y-81294000D01*
X74247333Y-81341619D01*
X74294952Y-81436857D01*
X74294952Y-81532095D01*
X74247333Y-81674952D01*
X73675904Y-82246380D01*
X74294952Y-82246380D01*
X74628285Y-81579714D02*
X74866380Y-82246380D01*
X75104476Y-81579714D01*
X120840571Y-81605380D02*
X120269142Y-81605380D01*
X120554857Y-81605380D02*
X120554857Y-80605380D01*
X120459619Y-80748238D01*
X120364380Y-80843476D01*
X120269142Y-80891095D01*
X121221523Y-80700619D02*
X121269142Y-80653000D01*
X121364380Y-80605380D01*
X121602476Y-80605380D01*
X121697714Y-80653000D01*
X121745333Y-80700619D01*
X121792952Y-80795857D01*
X121792952Y-80891095D01*
X121745333Y-81033952D01*
X121173904Y-81605380D01*
X121792952Y-81605380D01*
X122126285Y-80938714D02*
X122364380Y-81605380D01*
X122602476Y-80938714D01*
X120777095Y-71382000D02*
X120681857Y-71334380D01*
X120539000Y-71334380D01*
X120396142Y-71382000D01*
X120300904Y-71477238D01*
X120253285Y-71572476D01*
X120205666Y-71762952D01*
X120205666Y-71905809D01*
X120253285Y-72096285D01*
X120300904Y-72191523D01*
X120396142Y-72286761D01*
X120539000Y-72334380D01*
X120634238Y-72334380D01*
X120777095Y-72286761D01*
X120824714Y-72239142D01*
X120824714Y-71905809D01*
X120634238Y-71905809D01*
X121253285Y-72334380D02*
X121253285Y-71334380D01*
X121824714Y-72334380D01*
X121824714Y-71334380D01*
X122300904Y-72334380D02*
X122300904Y-71334380D01*
X122539000Y-71334380D01*
X122681857Y-71382000D01*
X122777095Y-71477238D01*
X122824714Y-71572476D01*
X122872333Y-71762952D01*
X122872333Y-71905809D01*
X122824714Y-72096285D01*
X122777095Y-72191523D01*
X122681857Y-72286761D01*
X122539000Y-72334380D01*
X122300904Y-72334380D01*
X72779095Y-45045380D02*
X73350523Y-45045380D01*
X73064809Y-46045380D02*
X73064809Y-45045380D01*
X74255285Y-46045380D02*
X73921952Y-45569190D01*
X73683857Y-46045380D02*
X73683857Y-45045380D01*
X74064809Y-45045380D01*
X74160047Y-45093000D01*
X74207666Y-45140619D01*
X74255285Y-45235857D01*
X74255285Y-45378714D01*
X74207666Y-45473952D01*
X74160047Y-45521571D01*
X74064809Y-45569190D01*
X73683857Y-45569190D01*
X75207666Y-46045380D02*
X74636238Y-46045380D01*
X74921952Y-46045380D02*
X74921952Y-45045380D01*
X74826714Y-45188238D01*
X74731476Y-45283476D01*
X74636238Y-45331095D01*
X107696095Y-48268000D02*
X107600857Y-48220380D01*
X107458000Y-48220380D01*
X107315142Y-48268000D01*
X107219904Y-48363238D01*
X107172285Y-48458476D01*
X107124666Y-48648952D01*
X107124666Y-48791809D01*
X107172285Y-48982285D01*
X107219904Y-49077523D01*
X107315142Y-49172761D01*
X107458000Y-49220380D01*
X107553238Y-49220380D01*
X107696095Y-49172761D01*
X107743714Y-49125142D01*
X107743714Y-48791809D01*
X107553238Y-48791809D01*
X108172285Y-49220380D02*
X108172285Y-48220380D01*
X108743714Y-49220380D01*
X108743714Y-48220380D01*
X109219904Y-49220380D02*
X109219904Y-48220380D01*
X109458000Y-48220380D01*
X109600857Y-48268000D01*
X109696095Y-48363238D01*
X109743714Y-48458476D01*
X109791333Y-48648952D01*
X109791333Y-48791809D01*
X109743714Y-48982285D01*
X109696095Y-49077523D01*
X109600857Y-49172761D01*
X109458000Y-49220380D01*
X109219904Y-49220380D01*
X73898142Y-42505380D02*
X73421952Y-42505380D01*
X73374333Y-42981571D01*
X73421952Y-42933952D01*
X73517190Y-42886333D01*
X73755285Y-42886333D01*
X73850523Y-42933952D01*
X73898142Y-42981571D01*
X73945761Y-43076809D01*
X73945761Y-43314904D01*
X73898142Y-43410142D01*
X73850523Y-43457761D01*
X73755285Y-43505380D01*
X73517190Y-43505380D01*
X73421952Y-43457761D01*
X73374333Y-43410142D01*
X74279095Y-42838714D02*
X74517190Y-43505380D01*
X74755285Y-42838714D01*
X120253285Y-69794380D02*
X120158047Y-69746761D01*
X120110428Y-69699142D01*
X120062809Y-69603904D01*
X120062809Y-69318190D01*
X120110428Y-69222952D01*
X120158047Y-69175333D01*
X120253285Y-69127714D01*
X120396142Y-69127714D01*
X120491380Y-69175333D01*
X120539000Y-69222952D01*
X120586619Y-69318190D01*
X120586619Y-69603904D01*
X120539000Y-69699142D01*
X120491380Y-69746761D01*
X120396142Y-69794380D01*
X120253285Y-69794380D01*
X121443761Y-69127714D02*
X121443761Y-69794380D01*
X121015190Y-69127714D02*
X121015190Y-69651523D01*
X121062809Y-69746761D01*
X121158047Y-69794380D01*
X121300904Y-69794380D01*
X121396142Y-69746761D01*
X121443761Y-69699142D01*
X121777095Y-69127714D02*
X122158047Y-69127714D01*
X121919952Y-68794380D02*
X121919952Y-69651523D01*
X121967571Y-69746761D01*
X122062809Y-69794380D01*
X122158047Y-69794380D01*
X122919952Y-68794380D02*
X122729476Y-68794380D01*
X122634238Y-68842000D01*
X122586619Y-68889619D01*
X122491380Y-69032476D01*
X122443761Y-69222952D01*
X122443761Y-69603904D01*
X122491380Y-69699142D01*
X122539000Y-69746761D01*
X122634238Y-69794380D01*
X122824714Y-69794380D01*
X122919952Y-69746761D01*
X122967571Y-69699142D01*
X123015190Y-69603904D01*
X123015190Y-69365809D01*
X122967571Y-69270571D01*
X122919952Y-69222952D01*
X122824714Y-69175333D01*
X122634238Y-69175333D01*
X122539000Y-69222952D01*
X122491380Y-69270571D01*
X122443761Y-69365809D01*
X104838571Y-49093380D02*
X104267142Y-49093380D01*
X104552857Y-49093380D02*
X104552857Y-48093380D01*
X104457619Y-48236238D01*
X104362380Y-48331476D01*
X104267142Y-48379095D01*
X105219523Y-48188619D02*
X105267142Y-48141000D01*
X105362380Y-48093380D01*
X105600476Y-48093380D01*
X105695714Y-48141000D01*
X105743333Y-48188619D01*
X105790952Y-48283857D01*
X105790952Y-48379095D01*
X105743333Y-48521952D01*
X105171904Y-49093380D01*
X105790952Y-49093380D01*
X106124285Y-48426714D02*
X106362380Y-49093380D01*
X106600476Y-48426714D01*
X120253285Y-64714380D02*
X120158047Y-64666761D01*
X120110428Y-64619142D01*
X120062809Y-64523904D01*
X120062809Y-64238190D01*
X120110428Y-64142952D01*
X120158047Y-64095333D01*
X120253285Y-64047714D01*
X120396142Y-64047714D01*
X120491380Y-64095333D01*
X120539000Y-64142952D01*
X120586619Y-64238190D01*
X120586619Y-64523904D01*
X120539000Y-64619142D01*
X120491380Y-64666761D01*
X120396142Y-64714380D01*
X120253285Y-64714380D01*
X121443761Y-64047714D02*
X121443761Y-64714380D01*
X121015190Y-64047714D02*
X121015190Y-64571523D01*
X121062809Y-64666761D01*
X121158047Y-64714380D01*
X121300904Y-64714380D01*
X121396142Y-64666761D01*
X121443761Y-64619142D01*
X121777095Y-64047714D02*
X122158047Y-64047714D01*
X121919952Y-63714380D02*
X121919952Y-64571523D01*
X121967571Y-64666761D01*
X122062809Y-64714380D01*
X122158047Y-64714380D01*
X122919952Y-64047714D02*
X122919952Y-64714380D01*
X122681857Y-63666761D02*
X122443761Y-64381047D01*
X123062809Y-64381047D01*
X73279095Y-71636000D02*
X73183857Y-71588380D01*
X73041000Y-71588380D01*
X72898142Y-71636000D01*
X72802904Y-71731238D01*
X72755285Y-71826476D01*
X72707666Y-72016952D01*
X72707666Y-72159809D01*
X72755285Y-72350285D01*
X72802904Y-72445523D01*
X72898142Y-72540761D01*
X73041000Y-72588380D01*
X73136238Y-72588380D01*
X73279095Y-72540761D01*
X73326714Y-72493142D01*
X73326714Y-72159809D01*
X73136238Y-72159809D01*
X73755285Y-72588380D02*
X73755285Y-71588380D01*
X74326714Y-72588380D01*
X74326714Y-71588380D01*
X74802904Y-72588380D02*
X74802904Y-71588380D01*
X75041000Y-71588380D01*
X75183857Y-71636000D01*
X75279095Y-71731238D01*
X75326714Y-71826476D01*
X75374333Y-72016952D01*
X75374333Y-72159809D01*
X75326714Y-72350285D01*
X75279095Y-72445523D01*
X75183857Y-72540761D01*
X75041000Y-72588380D01*
X74802904Y-72588380D01*
X72779095Y-49998380D02*
X73350523Y-49998380D01*
X73064809Y-50998380D02*
X73064809Y-49998380D01*
X74255285Y-50998380D02*
X73921952Y-50522190D01*
X73683857Y-50998380D02*
X73683857Y-49998380D01*
X74064809Y-49998380D01*
X74160047Y-50046000D01*
X74207666Y-50093619D01*
X74255285Y-50188857D01*
X74255285Y-50331714D01*
X74207666Y-50426952D01*
X74160047Y-50474571D01*
X74064809Y-50522190D01*
X73683857Y-50522190D01*
X74588619Y-49998380D02*
X75207666Y-49998380D01*
X74874333Y-50379333D01*
X75017190Y-50379333D01*
X75112428Y-50426952D01*
X75160047Y-50474571D01*
X75207666Y-50569809D01*
X75207666Y-50807904D01*
X75160047Y-50903142D01*
X75112428Y-50950761D01*
X75017190Y-50998380D01*
X74731476Y-50998380D01*
X74636238Y-50950761D01*
X74588619Y-50903142D01*
X120277095Y-52665380D02*
X120848523Y-52665380D01*
X120562809Y-53665380D02*
X120562809Y-52665380D01*
X121753285Y-53665380D02*
X121419952Y-53189190D01*
X121181857Y-53665380D02*
X121181857Y-52665380D01*
X121562809Y-52665380D01*
X121658047Y-52713000D01*
X121705666Y-52760619D01*
X121753285Y-52855857D01*
X121753285Y-52998714D01*
X121705666Y-53093952D01*
X121658047Y-53141571D01*
X121562809Y-53189190D01*
X121181857Y-53189190D01*
X122610428Y-52998714D02*
X122610428Y-53665380D01*
X122372333Y-52617761D02*
X122134238Y-53332047D01*
X122753285Y-53332047D01*
X72779095Y-54951380D02*
X73350523Y-54951380D01*
X73064809Y-55951380D02*
X73064809Y-54951380D01*
X74255285Y-55951380D02*
X73921952Y-55475190D01*
X73683857Y-55951380D02*
X73683857Y-54951380D01*
X74064809Y-54951380D01*
X74160047Y-54999000D01*
X74207666Y-55046619D01*
X74255285Y-55141857D01*
X74255285Y-55284714D01*
X74207666Y-55379952D01*
X74160047Y-55427571D01*
X74064809Y-55475190D01*
X73683857Y-55475190D01*
X75160047Y-54951380D02*
X74683857Y-54951380D01*
X74636238Y-55427571D01*
X74683857Y-55379952D01*
X74779095Y-55332333D01*
X75017190Y-55332333D01*
X75112428Y-55379952D01*
X75160047Y-55427571D01*
X75207666Y-55522809D01*
X75207666Y-55760904D01*
X75160047Y-55856142D01*
X75112428Y-55903761D01*
X75017190Y-55951380D01*
X74779095Y-55951380D01*
X74683857Y-55903761D01*
X74636238Y-55856142D01*
X119935809Y-84145380D02*
X119935809Y-83145380D01*
X120173904Y-83145380D01*
X120316761Y-83193000D01*
X120412000Y-83288238D01*
X120459619Y-83383476D01*
X120507238Y-83573952D01*
X120507238Y-83716809D01*
X120459619Y-83907285D01*
X120412000Y-84002523D01*
X120316761Y-84097761D01*
X120173904Y-84145380D01*
X119935809Y-84145380D01*
X121364380Y-84145380D02*
X121364380Y-83621571D01*
X121316761Y-83526333D01*
X121221523Y-83478714D01*
X121031047Y-83478714D01*
X120935809Y-83526333D01*
X121364380Y-84097761D02*
X121269142Y-84145380D01*
X121031047Y-84145380D01*
X120935809Y-84097761D01*
X120888190Y-84002523D01*
X120888190Y-83907285D01*
X120935809Y-83812047D01*
X121031047Y-83764428D01*
X121269142Y-83764428D01*
X121364380Y-83716809D01*
X121697714Y-83478714D02*
X122078666Y-83478714D01*
X121840571Y-83145380D02*
X121840571Y-84002523D01*
X121888190Y-84097761D01*
X121983428Y-84145380D01*
X122078666Y-84145380D01*
X122364380Y-83240619D02*
X122412000Y-83193000D01*
X122507238Y-83145380D01*
X122745333Y-83145380D01*
X122840571Y-83193000D01*
X122888190Y-83240619D01*
X122935809Y-83335857D01*
X122935809Y-83431095D01*
X122888190Y-83573952D01*
X122316761Y-84145380D01*
X122935809Y-84145380D01*
X72755285Y-64968380D02*
X72660047Y-64920761D01*
X72612428Y-64873142D01*
X72564809Y-64777904D01*
X72564809Y-64492190D01*
X72612428Y-64396952D01*
X72660047Y-64349333D01*
X72755285Y-64301714D01*
X72898142Y-64301714D01*
X72993380Y-64349333D01*
X73041000Y-64396952D01*
X73088619Y-64492190D01*
X73088619Y-64777904D01*
X73041000Y-64873142D01*
X72993380Y-64920761D01*
X72898142Y-64968380D01*
X72755285Y-64968380D01*
X73945761Y-64301714D02*
X73945761Y-64968380D01*
X73517190Y-64301714D02*
X73517190Y-64825523D01*
X73564809Y-64920761D01*
X73660047Y-64968380D01*
X73802904Y-64968380D01*
X73898142Y-64920761D01*
X73945761Y-64873142D01*
X74279095Y-64301714D02*
X74660047Y-64301714D01*
X74421952Y-63968380D02*
X74421952Y-64825523D01*
X74469571Y-64920761D01*
X74564809Y-64968380D01*
X74660047Y-64968380D01*
X75517190Y-64968380D02*
X74945761Y-64968380D01*
X75231476Y-64968380D02*
X75231476Y-63968380D01*
X75136238Y-64111238D01*
X75041000Y-64206476D01*
X74945761Y-64254095D01*
X73152095Y-86374000D02*
X73056857Y-86326380D01*
X72914000Y-86326380D01*
X72771142Y-86374000D01*
X72675904Y-86469238D01*
X72628285Y-86564476D01*
X72580666Y-86754952D01*
X72580666Y-86897809D01*
X72628285Y-87088285D01*
X72675904Y-87183523D01*
X72771142Y-87278761D01*
X72914000Y-87326380D01*
X73009238Y-87326380D01*
X73152095Y-87278761D01*
X73199714Y-87231142D01*
X73199714Y-86897809D01*
X73009238Y-86897809D01*
X73628285Y-87326380D02*
X73628285Y-86326380D01*
X74199714Y-87326380D01*
X74199714Y-86326380D01*
X74675904Y-87326380D02*
X74675904Y-86326380D01*
X74914000Y-86326380D01*
X75056857Y-86374000D01*
X75152095Y-86469238D01*
X75199714Y-86564476D01*
X75247333Y-86754952D01*
X75247333Y-86897809D01*
X75199714Y-87088285D01*
X75152095Y-87183523D01*
X75056857Y-87278761D01*
X74914000Y-87326380D01*
X74675904Y-87326380D01*
X72755285Y-70048380D02*
X72660047Y-70000761D01*
X72612428Y-69953142D01*
X72564809Y-69857904D01*
X72564809Y-69572190D01*
X72612428Y-69476952D01*
X72660047Y-69429333D01*
X72755285Y-69381714D01*
X72898142Y-69381714D01*
X72993380Y-69429333D01*
X73041000Y-69476952D01*
X73088619Y-69572190D01*
X73088619Y-69857904D01*
X73041000Y-69953142D01*
X72993380Y-70000761D01*
X72898142Y-70048380D01*
X72755285Y-70048380D01*
X73945761Y-69381714D02*
X73945761Y-70048380D01*
X73517190Y-69381714D02*
X73517190Y-69905523D01*
X73564809Y-70000761D01*
X73660047Y-70048380D01*
X73802904Y-70048380D01*
X73898142Y-70000761D01*
X73945761Y-69953142D01*
X74279095Y-69381714D02*
X74660047Y-69381714D01*
X74421952Y-69048380D02*
X74421952Y-69905523D01*
X74469571Y-70000761D01*
X74564809Y-70048380D01*
X74660047Y-70048380D01*
X74898142Y-69048380D02*
X75517190Y-69048380D01*
X75183857Y-69429333D01*
X75326714Y-69429333D01*
X75421952Y-69476952D01*
X75469571Y-69524571D01*
X75517190Y-69619809D01*
X75517190Y-69857904D01*
X75469571Y-69953142D01*
X75421952Y-70000761D01*
X75326714Y-70048380D01*
X75041000Y-70048380D01*
X74945761Y-70000761D01*
X74898142Y-69953142D01*
X120650095Y-85733000D02*
X120554857Y-85685380D01*
X120412000Y-85685380D01*
X120269142Y-85733000D01*
X120173904Y-85828238D01*
X120126285Y-85923476D01*
X120078666Y-86113952D01*
X120078666Y-86256809D01*
X120126285Y-86447285D01*
X120173904Y-86542523D01*
X120269142Y-86637761D01*
X120412000Y-86685380D01*
X120507238Y-86685380D01*
X120650095Y-86637761D01*
X120697714Y-86590142D01*
X120697714Y-86256809D01*
X120507238Y-86256809D01*
X121126285Y-86685380D02*
X121126285Y-85685380D01*
X121697714Y-86685380D01*
X121697714Y-85685380D01*
X122173904Y-86685380D02*
X122173904Y-85685380D01*
X122412000Y-85685380D01*
X122554857Y-85733000D01*
X122650095Y-85828238D01*
X122697714Y-85923476D01*
X122745333Y-86113952D01*
X122745333Y-86256809D01*
X122697714Y-86447285D01*
X122650095Y-86542523D01*
X122554857Y-86637761D01*
X122412000Y-86685380D01*
X122173904Y-86685380D01*
X120277095Y-61301380D02*
X120848523Y-61301380D01*
X120562809Y-62301380D02*
X120562809Y-61301380D01*
X121753285Y-62301380D02*
X121419952Y-61825190D01*
X121181857Y-62301380D02*
X121181857Y-61301380D01*
X121562809Y-61301380D01*
X121658047Y-61349000D01*
X121705666Y-61396619D01*
X121753285Y-61491857D01*
X121753285Y-61634714D01*
X121705666Y-61729952D01*
X121658047Y-61777571D01*
X121562809Y-61825190D01*
X121181857Y-61825190D01*
X122610428Y-61301380D02*
X122419952Y-61301380D01*
X122324714Y-61349000D01*
X122277095Y-61396619D01*
X122181857Y-61539476D01*
X122134238Y-61729952D01*
X122134238Y-62110904D01*
X122181857Y-62206142D01*
X122229476Y-62253761D01*
X122324714Y-62301380D01*
X122515190Y-62301380D01*
X122610428Y-62253761D01*
X122658047Y-62206142D01*
X122705666Y-62110904D01*
X122705666Y-61872809D01*
X122658047Y-61777571D01*
X122610428Y-61729952D01*
X122515190Y-61682333D01*
X122324714Y-61682333D01*
X122229476Y-61729952D01*
X122181857Y-61777571D01*
X122134238Y-61872809D01*
X120277095Y-47585380D02*
X120848523Y-47585380D01*
X120562809Y-48585380D02*
X120562809Y-47585380D01*
X121753285Y-48585380D02*
X121419952Y-48109190D01*
X121181857Y-48585380D02*
X121181857Y-47585380D01*
X121562809Y-47585380D01*
X121658047Y-47633000D01*
X121705666Y-47680619D01*
X121753285Y-47775857D01*
X121753285Y-47918714D01*
X121705666Y-48013952D01*
X121658047Y-48061571D01*
X121562809Y-48109190D01*
X121181857Y-48109190D01*
X122134238Y-47680619D02*
X122181857Y-47633000D01*
X122277095Y-47585380D01*
X122515190Y-47585380D01*
X122610428Y-47633000D01*
X122658047Y-47680619D01*
X122705666Y-47775857D01*
X122705666Y-47871095D01*
X122658047Y-48013952D01*
X122086619Y-48585380D01*
X122705666Y-48585380D01*
X72564809Y-84786380D02*
X72564809Y-83786380D01*
X72802904Y-83786380D01*
X72945761Y-83834000D01*
X73041000Y-83929238D01*
X73088619Y-84024476D01*
X73136238Y-84214952D01*
X73136238Y-84357809D01*
X73088619Y-84548285D01*
X73041000Y-84643523D01*
X72945761Y-84738761D01*
X72802904Y-84786380D01*
X72564809Y-84786380D01*
X73993380Y-84786380D02*
X73993380Y-84262571D01*
X73945761Y-84167333D01*
X73850523Y-84119714D01*
X73660047Y-84119714D01*
X73564809Y-84167333D01*
X73993380Y-84738761D02*
X73898142Y-84786380D01*
X73660047Y-84786380D01*
X73564809Y-84738761D01*
X73517190Y-84643523D01*
X73517190Y-84548285D01*
X73564809Y-84453047D01*
X73660047Y-84405428D01*
X73898142Y-84405428D01*
X73993380Y-84357809D01*
X74326714Y-84119714D02*
X74707666Y-84119714D01*
X74469571Y-83786380D02*
X74469571Y-84643523D01*
X74517190Y-84738761D01*
X74612428Y-84786380D01*
X74707666Y-84786380D01*
X75564809Y-84786380D02*
X74993380Y-84786380D01*
X75279095Y-84786380D02*
X75279095Y-83786380D01*
X75183857Y-83929238D01*
X75088619Y-84024476D01*
X74993380Y-84072095D01*
X73279095Y-73922000D02*
X73183857Y-73874380D01*
X73041000Y-73874380D01*
X72898142Y-73922000D01*
X72802904Y-74017238D01*
X72755285Y-74112476D01*
X72707666Y-74302952D01*
X72707666Y-74445809D01*
X72755285Y-74636285D01*
X72802904Y-74731523D01*
X72898142Y-74826761D01*
X73041000Y-74874380D01*
X73136238Y-74874380D01*
X73279095Y-74826761D01*
X73326714Y-74779142D01*
X73326714Y-74445809D01*
X73136238Y-74445809D01*
X73755285Y-74874380D02*
X73755285Y-73874380D01*
X74326714Y-74874380D01*
X74326714Y-73874380D01*
X74802904Y-74874380D02*
X74802904Y-73874380D01*
X75041000Y-73874380D01*
X75183857Y-73922000D01*
X75279095Y-74017238D01*
X75326714Y-74112476D01*
X75374333Y-74302952D01*
X75374333Y-74445809D01*
X75326714Y-74636285D01*
X75279095Y-74731523D01*
X75183857Y-74826761D01*
X75041000Y-74874380D01*
X74802904Y-74874380D01*
X120277095Y-45045380D02*
X120848523Y-45045380D01*
X120562809Y-46045380D02*
X120562809Y-45045380D01*
X121753285Y-46045380D02*
X121419952Y-45569190D01*
X121181857Y-46045380D02*
X121181857Y-45045380D01*
X121562809Y-45045380D01*
X121658047Y-45093000D01*
X121705666Y-45140619D01*
X121753285Y-45235857D01*
X121753285Y-45378714D01*
X121705666Y-45473952D01*
X121658047Y-45521571D01*
X121562809Y-45569190D01*
X121181857Y-45569190D01*
X122705666Y-46045380D02*
X122134238Y-46045380D01*
X122419952Y-46045380D02*
X122419952Y-45045380D01*
X122324714Y-45188238D01*
X122229476Y-45283476D01*
X122134238Y-45331095D01*
X120777095Y-73668000D02*
X120681857Y-73620380D01*
X120539000Y-73620380D01*
X120396142Y-73668000D01*
X120300904Y-73763238D01*
X120253285Y-73858476D01*
X120205666Y-74048952D01*
X120205666Y-74191809D01*
X120253285Y-74382285D01*
X120300904Y-74477523D01*
X120396142Y-74572761D01*
X120539000Y-74620380D01*
X120634238Y-74620380D01*
X120777095Y-74572761D01*
X120824714Y-74525142D01*
X120824714Y-74191809D01*
X120634238Y-74191809D01*
X121253285Y-74620380D02*
X121253285Y-73620380D01*
X121824714Y-74620380D01*
X121824714Y-73620380D01*
X122300904Y-74620380D02*
X122300904Y-73620380D01*
X122539000Y-73620380D01*
X122681857Y-73668000D01*
X122777095Y-73763238D01*
X122824714Y-73858476D01*
X122872333Y-74048952D01*
X122872333Y-74191809D01*
X122824714Y-74382285D01*
X122777095Y-74477523D01*
X122681857Y-74572761D01*
X122539000Y-74620380D01*
X122300904Y-74620380D01*
X72755285Y-67508380D02*
X72660047Y-67460761D01*
X72612428Y-67413142D01*
X72564809Y-67317904D01*
X72564809Y-67032190D01*
X72612428Y-66936952D01*
X72660047Y-66889333D01*
X72755285Y-66841714D01*
X72898142Y-66841714D01*
X72993380Y-66889333D01*
X73041000Y-66936952D01*
X73088619Y-67032190D01*
X73088619Y-67317904D01*
X73041000Y-67413142D01*
X72993380Y-67460761D01*
X72898142Y-67508380D01*
X72755285Y-67508380D01*
X73945761Y-66841714D02*
X73945761Y-67508380D01*
X73517190Y-66841714D02*
X73517190Y-67365523D01*
X73564809Y-67460761D01*
X73660047Y-67508380D01*
X73802904Y-67508380D01*
X73898142Y-67460761D01*
X73945761Y-67413142D01*
X74279095Y-66841714D02*
X74660047Y-66841714D01*
X74421952Y-66508380D02*
X74421952Y-67365523D01*
X74469571Y-67460761D01*
X74564809Y-67508380D01*
X74660047Y-67508380D01*
X74945761Y-66603619D02*
X74993380Y-66556000D01*
X75088619Y-66508380D01*
X75326714Y-66508380D01*
X75421952Y-66556000D01*
X75469571Y-66603619D01*
X75517190Y-66698857D01*
X75517190Y-66794095D01*
X75469571Y-66936952D01*
X74898142Y-67508380D01*
X75517190Y-67508380D01*
X72779095Y-61428380D02*
X73350523Y-61428380D01*
X73064809Y-62428380D02*
X73064809Y-61428380D01*
X74255285Y-62428380D02*
X73921952Y-61952190D01*
X73683857Y-62428380D02*
X73683857Y-61428380D01*
X74064809Y-61428380D01*
X74160047Y-61476000D01*
X74207666Y-61523619D01*
X74255285Y-61618857D01*
X74255285Y-61761714D01*
X74207666Y-61856952D01*
X74160047Y-61904571D01*
X74064809Y-61952190D01*
X73683857Y-61952190D01*
X75112428Y-61428380D02*
X74921952Y-61428380D01*
X74826714Y-61476000D01*
X74779095Y-61523619D01*
X74683857Y-61666476D01*
X74636238Y-61856952D01*
X74636238Y-62237904D01*
X74683857Y-62333142D01*
X74731476Y-62380761D01*
X74826714Y-62428380D01*
X75017190Y-62428380D01*
X75112428Y-62380761D01*
X75160047Y-62333142D01*
X75207666Y-62237904D01*
X75207666Y-61999809D01*
X75160047Y-61904571D01*
X75112428Y-61856952D01*
X75017190Y-61809333D01*
X74826714Y-61809333D01*
X74731476Y-61856952D01*
X74683857Y-61904571D01*
X74636238Y-61999809D01*
X121269142Y-42378380D02*
X120792952Y-42378380D01*
X120745333Y-42854571D01*
X120792952Y-42806952D01*
X120888190Y-42759333D01*
X121126285Y-42759333D01*
X121221523Y-42806952D01*
X121269142Y-42854571D01*
X121316761Y-42949809D01*
X121316761Y-43187904D01*
X121269142Y-43283142D01*
X121221523Y-43330761D01*
X121126285Y-43378380D01*
X120888190Y-43378380D01*
X120792952Y-43330761D01*
X120745333Y-43283142D01*
X121650095Y-42711714D02*
X121888190Y-43378380D01*
X122126285Y-42711714D01*
X120253285Y-67254380D02*
X120158047Y-67206761D01*
X120110428Y-67159142D01*
X120062809Y-67063904D01*
X120062809Y-66778190D01*
X120110428Y-66682952D01*
X120158047Y-66635333D01*
X120253285Y-66587714D01*
X120396142Y-66587714D01*
X120491380Y-66635333D01*
X120539000Y-66682952D01*
X120586619Y-66778190D01*
X120586619Y-67063904D01*
X120539000Y-67159142D01*
X120491380Y-67206761D01*
X120396142Y-67254380D01*
X120253285Y-67254380D01*
X121443761Y-66587714D02*
X121443761Y-67254380D01*
X121015190Y-66587714D02*
X121015190Y-67111523D01*
X121062809Y-67206761D01*
X121158047Y-67254380D01*
X121300904Y-67254380D01*
X121396142Y-67206761D01*
X121443761Y-67159142D01*
X121777095Y-66587714D02*
X122158047Y-66587714D01*
X121919952Y-66254380D02*
X121919952Y-67111523D01*
X121967571Y-67206761D01*
X122062809Y-67254380D01*
X122158047Y-67254380D01*
X122967571Y-66254380D02*
X122491380Y-66254380D01*
X122443761Y-66730571D01*
X122491380Y-66682952D01*
X122586619Y-66635333D01*
X122824714Y-66635333D01*
X122919952Y-66682952D01*
X122967571Y-66730571D01*
X123015190Y-66825809D01*
X123015190Y-67063904D01*
X122967571Y-67159142D01*
X122919952Y-67206761D01*
X122824714Y-67254380D01*
X122586619Y-67254380D01*
X122491380Y-67206761D01*
X122443761Y-67159142D01*
X72779095Y-47458380D02*
X73350523Y-47458380D01*
X73064809Y-48458380D02*
X73064809Y-47458380D01*
X74255285Y-48458380D02*
X73921952Y-47982190D01*
X73683857Y-48458380D02*
X73683857Y-47458380D01*
X74064809Y-47458380D01*
X74160047Y-47506000D01*
X74207666Y-47553619D01*
X74255285Y-47648857D01*
X74255285Y-47791714D01*
X74207666Y-47886952D01*
X74160047Y-47934571D01*
X74064809Y-47982190D01*
X73683857Y-47982190D01*
X74636238Y-47553619D02*
X74683857Y-47506000D01*
X74779095Y-47458380D01*
X75017190Y-47458380D01*
X75112428Y-47506000D01*
X75160047Y-47553619D01*
X75207666Y-47648857D01*
X75207666Y-47744095D01*
X75160047Y-47886952D01*
X74588619Y-48458380D01*
X75207666Y-48458380D01*
%TO.C,REF\u002A\u002A*%
X105346666Y-50989380D02*
X105013333Y-50513190D01*
X104775238Y-50989380D02*
X104775238Y-49989380D01*
X105156190Y-49989380D01*
X105251428Y-50037000D01*
X105299047Y-50084619D01*
X105346666Y-50179857D01*
X105346666Y-50322714D01*
X105299047Y-50417952D01*
X105251428Y-50465571D01*
X105156190Y-50513190D01*
X104775238Y-50513190D01*
X105775238Y-50465571D02*
X106108571Y-50465571D01*
X106251428Y-50989380D02*
X105775238Y-50989380D01*
X105775238Y-49989380D01*
X106251428Y-49989380D01*
X107013333Y-50465571D02*
X106680000Y-50465571D01*
X106680000Y-50989380D02*
X106680000Y-49989380D01*
X107156190Y-49989380D01*
X107680000Y-49989380D02*
X107680000Y-50227476D01*
X107441904Y-50132238D02*
X107680000Y-50227476D01*
X107918095Y-50132238D01*
X107537142Y-50417952D02*
X107680000Y-50227476D01*
X107822857Y-50417952D01*
X108441904Y-49989380D02*
X108441904Y-50227476D01*
X108203809Y-50132238D02*
X108441904Y-50227476D01*
X108680000Y-50132238D01*
X108299047Y-50417952D02*
X108441904Y-50227476D01*
X108584761Y-50417952D01*
X87566666Y-81215380D02*
X87233333Y-80739190D01*
X86995238Y-81215380D02*
X86995238Y-80215380D01*
X87376190Y-80215380D01*
X87471428Y-80263000D01*
X87519047Y-80310619D01*
X87566666Y-80405857D01*
X87566666Y-80548714D01*
X87519047Y-80643952D01*
X87471428Y-80691571D01*
X87376190Y-80739190D01*
X86995238Y-80739190D01*
X87995238Y-80691571D02*
X88328571Y-80691571D01*
X88471428Y-81215380D02*
X87995238Y-81215380D01*
X87995238Y-80215380D01*
X88471428Y-80215380D01*
X89233333Y-80691571D02*
X88900000Y-80691571D01*
X88900000Y-81215380D02*
X88900000Y-80215380D01*
X89376190Y-80215380D01*
X89900000Y-80215380D02*
X89900000Y-80453476D01*
X89661904Y-80358238D02*
X89900000Y-80453476D01*
X90138095Y-80358238D01*
X89757142Y-80643952D02*
X89900000Y-80453476D01*
X90042857Y-80643952D01*
X90661904Y-80215380D02*
X90661904Y-80453476D01*
X90423809Y-80358238D02*
X90661904Y-80453476D01*
X90900000Y-80358238D01*
X90519047Y-80643952D02*
X90661904Y-80453476D01*
X90804761Y-80643952D01*
X105346666Y-81215380D02*
X105013333Y-80739190D01*
X104775238Y-81215380D02*
X104775238Y-80215380D01*
X105156190Y-80215380D01*
X105251428Y-80263000D01*
X105299047Y-80310619D01*
X105346666Y-80405857D01*
X105346666Y-80548714D01*
X105299047Y-80643952D01*
X105251428Y-80691571D01*
X105156190Y-80739190D01*
X104775238Y-80739190D01*
X105775238Y-80691571D02*
X106108571Y-80691571D01*
X106251428Y-81215380D02*
X105775238Y-81215380D01*
X105775238Y-80215380D01*
X106251428Y-80215380D01*
X107013333Y-80691571D02*
X106680000Y-80691571D01*
X106680000Y-81215380D02*
X106680000Y-80215380D01*
X107156190Y-80215380D01*
X107680000Y-80215380D02*
X107680000Y-80453476D01*
X107441904Y-80358238D02*
X107680000Y-80453476D01*
X107918095Y-80358238D01*
X107537142Y-80643952D02*
X107680000Y-80453476D01*
X107822857Y-80643952D01*
X108441904Y-80215380D02*
X108441904Y-80453476D01*
X108203809Y-80358238D02*
X108441904Y-80453476D01*
X108680000Y-80358238D01*
X108299047Y-80643952D02*
X108441904Y-80453476D01*
X108584761Y-80643952D01*
%TO.C,Left_Sensor1*%
X83383380Y-53320428D02*
X83383380Y-53796619D01*
X82383380Y-53796619D01*
X83335761Y-52606142D02*
X83383380Y-52701380D01*
X83383380Y-52891857D01*
X83335761Y-52987095D01*
X83240523Y-53034714D01*
X82859571Y-53034714D01*
X82764333Y-52987095D01*
X82716714Y-52891857D01*
X82716714Y-52701380D01*
X82764333Y-52606142D01*
X82859571Y-52558523D01*
X82954809Y-52558523D01*
X83050047Y-53034714D01*
X82716714Y-52272809D02*
X82716714Y-51891857D01*
X83383380Y-52129952D02*
X82526238Y-52129952D01*
X82431000Y-52082333D01*
X82383380Y-51987095D01*
X82383380Y-51891857D01*
X82716714Y-51701380D02*
X82716714Y-51320428D01*
X82383380Y-51558523D02*
X83240523Y-51558523D01*
X83335761Y-51510904D01*
X83383380Y-51415666D01*
X83383380Y-51320428D01*
X83478619Y-51225190D02*
X83478619Y-50463285D01*
X83335761Y-50272809D02*
X83383380Y-50129952D01*
X83383380Y-49891857D01*
X83335761Y-49796619D01*
X83288142Y-49749000D01*
X83192904Y-49701380D01*
X83097666Y-49701380D01*
X83002428Y-49749000D01*
X82954809Y-49796619D01*
X82907190Y-49891857D01*
X82859571Y-50082333D01*
X82811952Y-50177571D01*
X82764333Y-50225190D01*
X82669095Y-50272809D01*
X82573857Y-50272809D01*
X82478619Y-50225190D01*
X82431000Y-50177571D01*
X82383380Y-50082333D01*
X82383380Y-49844238D01*
X82431000Y-49701380D01*
X83335761Y-48891857D02*
X83383380Y-48987095D01*
X83383380Y-49177571D01*
X83335761Y-49272809D01*
X83240523Y-49320428D01*
X82859571Y-49320428D01*
X82764333Y-49272809D01*
X82716714Y-49177571D01*
X82716714Y-48987095D01*
X82764333Y-48891857D01*
X82859571Y-48844238D01*
X82954809Y-48844238D01*
X83050047Y-49320428D01*
X82716714Y-48415666D02*
X83383380Y-48415666D01*
X82811952Y-48415666D02*
X82764333Y-48368047D01*
X82716714Y-48272809D01*
X82716714Y-48129952D01*
X82764333Y-48034714D01*
X82859571Y-47987095D01*
X83383380Y-47987095D01*
X83335761Y-47558523D02*
X83383380Y-47463285D01*
X83383380Y-47272809D01*
X83335761Y-47177571D01*
X83240523Y-47129952D01*
X83192904Y-47129952D01*
X83097666Y-47177571D01*
X83050047Y-47272809D01*
X83050047Y-47415666D01*
X83002428Y-47510904D01*
X82907190Y-47558523D01*
X82859571Y-47558523D01*
X82764333Y-47510904D01*
X82716714Y-47415666D01*
X82716714Y-47272809D01*
X82764333Y-47177571D01*
X83383380Y-46558523D02*
X83335761Y-46653761D01*
X83288142Y-46701380D01*
X83192904Y-46749000D01*
X82907190Y-46749000D01*
X82811952Y-46701380D01*
X82764333Y-46653761D01*
X82716714Y-46558523D01*
X82716714Y-46415666D01*
X82764333Y-46320428D01*
X82811952Y-46272809D01*
X82907190Y-46225190D01*
X83192904Y-46225190D01*
X83288142Y-46272809D01*
X83335761Y-46320428D01*
X83383380Y-46415666D01*
X83383380Y-46558523D01*
X83383380Y-45796619D02*
X82716714Y-45796619D01*
X82907190Y-45796619D02*
X82811952Y-45749000D01*
X82764333Y-45701380D01*
X82716714Y-45606142D01*
X82716714Y-45510904D01*
X83383380Y-44653761D02*
X83383380Y-45225190D01*
X83383380Y-44939476D02*
X82383380Y-44939476D01*
X82526238Y-45034714D01*
X82621476Y-45129952D01*
X82669095Y-45225190D01*
%TO.C,Power1*%
X104481619Y-41208380D02*
X104481619Y-40208380D01*
X104862571Y-40208380D01*
X104957809Y-40256000D01*
X105005428Y-40303619D01*
X105053047Y-40398857D01*
X105053047Y-40541714D01*
X105005428Y-40636952D01*
X104957809Y-40684571D01*
X104862571Y-40732190D01*
X104481619Y-40732190D01*
X105624476Y-41208380D02*
X105529238Y-41160761D01*
X105481619Y-41113142D01*
X105434000Y-41017904D01*
X105434000Y-40732190D01*
X105481619Y-40636952D01*
X105529238Y-40589333D01*
X105624476Y-40541714D01*
X105767333Y-40541714D01*
X105862571Y-40589333D01*
X105910190Y-40636952D01*
X105957809Y-40732190D01*
X105957809Y-41017904D01*
X105910190Y-41113142D01*
X105862571Y-41160761D01*
X105767333Y-41208380D01*
X105624476Y-41208380D01*
X106291142Y-40541714D02*
X106481619Y-41208380D01*
X106672095Y-40732190D01*
X106862571Y-41208380D01*
X107053047Y-40541714D01*
X107814952Y-41160761D02*
X107719714Y-41208380D01*
X107529238Y-41208380D01*
X107434000Y-41160761D01*
X107386380Y-41065523D01*
X107386380Y-40684571D01*
X107434000Y-40589333D01*
X107529238Y-40541714D01*
X107719714Y-40541714D01*
X107814952Y-40589333D01*
X107862571Y-40684571D01*
X107862571Y-40779809D01*
X107386380Y-40875047D01*
X108291142Y-41208380D02*
X108291142Y-40541714D01*
X108291142Y-40732190D02*
X108338761Y-40636952D01*
X108386380Y-40589333D01*
X108481619Y-40541714D01*
X108576857Y-40541714D01*
X109434000Y-41208380D02*
X108862571Y-41208380D01*
X109148285Y-41208380D02*
X109148285Y-40208380D01*
X109053047Y-40351238D01*
X108957809Y-40446476D01*
X108862571Y-40494095D01*
%TO.C,Left_LED1*%
X83764380Y-86597761D02*
X83764380Y-87073952D01*
X82764380Y-87073952D01*
X83716761Y-85883476D02*
X83764380Y-85978714D01*
X83764380Y-86169190D01*
X83716761Y-86264428D01*
X83621523Y-86312047D01*
X83240571Y-86312047D01*
X83145333Y-86264428D01*
X83097714Y-86169190D01*
X83097714Y-85978714D01*
X83145333Y-85883476D01*
X83240571Y-85835857D01*
X83335809Y-85835857D01*
X83431047Y-86312047D01*
X83097714Y-85550142D02*
X83097714Y-85169190D01*
X83764380Y-85407285D02*
X82907238Y-85407285D01*
X82812000Y-85359666D01*
X82764380Y-85264428D01*
X82764380Y-85169190D01*
X83097714Y-84978714D02*
X83097714Y-84597761D01*
X82764380Y-84835857D02*
X83621523Y-84835857D01*
X83716761Y-84788238D01*
X83764380Y-84693000D01*
X83764380Y-84597761D01*
X83859619Y-84502523D02*
X83859619Y-83740619D01*
X83764380Y-83026333D02*
X83764380Y-83502523D01*
X82764380Y-83502523D01*
X83240571Y-82693000D02*
X83240571Y-82359666D01*
X83764380Y-82216809D02*
X83764380Y-82693000D01*
X82764380Y-82693000D01*
X82764380Y-82216809D01*
X83764380Y-81788238D02*
X82764380Y-81788238D01*
X82764380Y-81550142D01*
X82812000Y-81407285D01*
X82907238Y-81312047D01*
X83002476Y-81264428D01*
X83192952Y-81216809D01*
X83335809Y-81216809D01*
X83526285Y-81264428D01*
X83621523Y-81312047D01*
X83716761Y-81407285D01*
X83764380Y-81550142D01*
X83764380Y-81788238D01*
X83764380Y-80264428D02*
X83764380Y-80835857D01*
X83764380Y-80550142D02*
X82764380Y-80550142D01*
X82907238Y-80645380D01*
X83002476Y-80740619D01*
X83050095Y-80835857D01*
%TO.C,Right_Sensor2*%
X112974380Y-72826000D02*
X112498190Y-73159333D01*
X112974380Y-73397428D02*
X111974380Y-73397428D01*
X111974380Y-73016476D01*
X112022000Y-72921238D01*
X112069619Y-72873619D01*
X112164857Y-72826000D01*
X112307714Y-72826000D01*
X112402952Y-72873619D01*
X112450571Y-72921238D01*
X112498190Y-73016476D01*
X112498190Y-73397428D01*
X112974380Y-72397428D02*
X112307714Y-72397428D01*
X111974380Y-72397428D02*
X112022000Y-72445047D01*
X112069619Y-72397428D01*
X112022000Y-72349809D01*
X111974380Y-72397428D01*
X112069619Y-72397428D01*
X112307714Y-71492666D02*
X113117238Y-71492666D01*
X113212476Y-71540285D01*
X113260095Y-71587904D01*
X113307714Y-71683142D01*
X113307714Y-71826000D01*
X113260095Y-71921238D01*
X112926761Y-71492666D02*
X112974380Y-71587904D01*
X112974380Y-71778380D01*
X112926761Y-71873619D01*
X112879142Y-71921238D01*
X112783904Y-71968857D01*
X112498190Y-71968857D01*
X112402952Y-71921238D01*
X112355333Y-71873619D01*
X112307714Y-71778380D01*
X112307714Y-71587904D01*
X112355333Y-71492666D01*
X112974380Y-71016476D02*
X111974380Y-71016476D01*
X112974380Y-70587904D02*
X112450571Y-70587904D01*
X112355333Y-70635523D01*
X112307714Y-70730761D01*
X112307714Y-70873619D01*
X112355333Y-70968857D01*
X112402952Y-71016476D01*
X112307714Y-70254571D02*
X112307714Y-69873619D01*
X111974380Y-70111714D02*
X112831523Y-70111714D01*
X112926761Y-70064095D01*
X112974380Y-69968857D01*
X112974380Y-69873619D01*
X113069619Y-69778380D02*
X113069619Y-69016476D01*
X112926761Y-68826000D02*
X112974380Y-68683142D01*
X112974380Y-68445047D01*
X112926761Y-68349809D01*
X112879142Y-68302190D01*
X112783904Y-68254571D01*
X112688666Y-68254571D01*
X112593428Y-68302190D01*
X112545809Y-68349809D01*
X112498190Y-68445047D01*
X112450571Y-68635523D01*
X112402952Y-68730761D01*
X112355333Y-68778380D01*
X112260095Y-68826000D01*
X112164857Y-68826000D01*
X112069619Y-68778380D01*
X112022000Y-68730761D01*
X111974380Y-68635523D01*
X111974380Y-68397428D01*
X112022000Y-68254571D01*
X112926761Y-67445047D02*
X112974380Y-67540285D01*
X112974380Y-67730761D01*
X112926761Y-67826000D01*
X112831523Y-67873619D01*
X112450571Y-67873619D01*
X112355333Y-67826000D01*
X112307714Y-67730761D01*
X112307714Y-67540285D01*
X112355333Y-67445047D01*
X112450571Y-67397428D01*
X112545809Y-67397428D01*
X112641047Y-67873619D01*
X112307714Y-66968857D02*
X112974380Y-66968857D01*
X112402952Y-66968857D02*
X112355333Y-66921238D01*
X112307714Y-66826000D01*
X112307714Y-66683142D01*
X112355333Y-66587904D01*
X112450571Y-66540285D01*
X112974380Y-66540285D01*
X112926761Y-66111714D02*
X112974380Y-66016476D01*
X112974380Y-65826000D01*
X112926761Y-65730761D01*
X112831523Y-65683142D01*
X112783904Y-65683142D01*
X112688666Y-65730761D01*
X112641047Y-65826000D01*
X112641047Y-65968857D01*
X112593428Y-66064095D01*
X112498190Y-66111714D01*
X112450571Y-66111714D01*
X112355333Y-66064095D01*
X112307714Y-65968857D01*
X112307714Y-65826000D01*
X112355333Y-65730761D01*
X112974380Y-65111714D02*
X112926761Y-65206952D01*
X112879142Y-65254571D01*
X112783904Y-65302190D01*
X112498190Y-65302190D01*
X112402952Y-65254571D01*
X112355333Y-65206952D01*
X112307714Y-65111714D01*
X112307714Y-64968857D01*
X112355333Y-64873619D01*
X112402952Y-64826000D01*
X112498190Y-64778380D01*
X112783904Y-64778380D01*
X112879142Y-64826000D01*
X112926761Y-64873619D01*
X112974380Y-64968857D01*
X112974380Y-65111714D01*
X112974380Y-64349809D02*
X112307714Y-64349809D01*
X112498190Y-64349809D02*
X112402952Y-64302190D01*
X112355333Y-64254571D01*
X112307714Y-64159333D01*
X112307714Y-64064095D01*
X112069619Y-63778380D02*
X112022000Y-63730761D01*
X111974380Y-63635523D01*
X111974380Y-63397428D01*
X112022000Y-63302190D01*
X112069619Y-63254571D01*
X112164857Y-63206952D01*
X112260095Y-63206952D01*
X112402952Y-63254571D01*
X112974380Y-63826000D01*
X112974380Y-63206952D01*
%TO.C,Right_Sensor1*%
X112974380Y-53903000D02*
X112498190Y-54236333D01*
X112974380Y-54474428D02*
X111974380Y-54474428D01*
X111974380Y-54093476D01*
X112022000Y-53998238D01*
X112069619Y-53950619D01*
X112164857Y-53903000D01*
X112307714Y-53903000D01*
X112402952Y-53950619D01*
X112450571Y-53998238D01*
X112498190Y-54093476D01*
X112498190Y-54474428D01*
X112974380Y-53474428D02*
X112307714Y-53474428D01*
X111974380Y-53474428D02*
X112022000Y-53522047D01*
X112069619Y-53474428D01*
X112022000Y-53426809D01*
X111974380Y-53474428D01*
X112069619Y-53474428D01*
X112307714Y-52569666D02*
X113117238Y-52569666D01*
X113212476Y-52617285D01*
X113260095Y-52664904D01*
X113307714Y-52760142D01*
X113307714Y-52903000D01*
X113260095Y-52998238D01*
X112926761Y-52569666D02*
X112974380Y-52664904D01*
X112974380Y-52855380D01*
X112926761Y-52950619D01*
X112879142Y-52998238D01*
X112783904Y-53045857D01*
X112498190Y-53045857D01*
X112402952Y-52998238D01*
X112355333Y-52950619D01*
X112307714Y-52855380D01*
X112307714Y-52664904D01*
X112355333Y-52569666D01*
X112974380Y-52093476D02*
X111974380Y-52093476D01*
X112974380Y-51664904D02*
X112450571Y-51664904D01*
X112355333Y-51712523D01*
X112307714Y-51807761D01*
X112307714Y-51950619D01*
X112355333Y-52045857D01*
X112402952Y-52093476D01*
X112307714Y-51331571D02*
X112307714Y-50950619D01*
X111974380Y-51188714D02*
X112831523Y-51188714D01*
X112926761Y-51141095D01*
X112974380Y-51045857D01*
X112974380Y-50950619D01*
X113069619Y-50855380D02*
X113069619Y-50093476D01*
X112926761Y-49903000D02*
X112974380Y-49760142D01*
X112974380Y-49522047D01*
X112926761Y-49426809D01*
X112879142Y-49379190D01*
X112783904Y-49331571D01*
X112688666Y-49331571D01*
X112593428Y-49379190D01*
X112545809Y-49426809D01*
X112498190Y-49522047D01*
X112450571Y-49712523D01*
X112402952Y-49807761D01*
X112355333Y-49855380D01*
X112260095Y-49903000D01*
X112164857Y-49903000D01*
X112069619Y-49855380D01*
X112022000Y-49807761D01*
X111974380Y-49712523D01*
X111974380Y-49474428D01*
X112022000Y-49331571D01*
X112926761Y-48522047D02*
X112974380Y-48617285D01*
X112974380Y-48807761D01*
X112926761Y-48903000D01*
X112831523Y-48950619D01*
X112450571Y-48950619D01*
X112355333Y-48903000D01*
X112307714Y-48807761D01*
X112307714Y-48617285D01*
X112355333Y-48522047D01*
X112450571Y-48474428D01*
X112545809Y-48474428D01*
X112641047Y-48950619D01*
X112307714Y-48045857D02*
X112974380Y-48045857D01*
X112402952Y-48045857D02*
X112355333Y-47998238D01*
X112307714Y-47903000D01*
X112307714Y-47760142D01*
X112355333Y-47664904D01*
X112450571Y-47617285D01*
X112974380Y-47617285D01*
X112926761Y-47188714D02*
X112974380Y-47093476D01*
X112974380Y-46903000D01*
X112926761Y-46807761D01*
X112831523Y-46760142D01*
X112783904Y-46760142D01*
X112688666Y-46807761D01*
X112641047Y-46903000D01*
X112641047Y-47045857D01*
X112593428Y-47141095D01*
X112498190Y-47188714D01*
X112450571Y-47188714D01*
X112355333Y-47141095D01*
X112307714Y-47045857D01*
X112307714Y-46903000D01*
X112355333Y-46807761D01*
X112974380Y-46188714D02*
X112926761Y-46283952D01*
X112879142Y-46331571D01*
X112783904Y-46379190D01*
X112498190Y-46379190D01*
X112402952Y-46331571D01*
X112355333Y-46283952D01*
X112307714Y-46188714D01*
X112307714Y-46045857D01*
X112355333Y-45950619D01*
X112402952Y-45903000D01*
X112498190Y-45855380D01*
X112783904Y-45855380D01*
X112879142Y-45903000D01*
X112926761Y-45950619D01*
X112974380Y-46045857D01*
X112974380Y-46188714D01*
X112974380Y-45426809D02*
X112307714Y-45426809D01*
X112498190Y-45426809D02*
X112402952Y-45379190D01*
X112355333Y-45331571D01*
X112307714Y-45236333D01*
X112307714Y-45141095D01*
X112974380Y-44283952D02*
X112974380Y-44855380D01*
X112974380Y-44569666D02*
X111974380Y-44569666D01*
X112117238Y-44664904D01*
X112212476Y-44760142D01*
X112260095Y-44855380D01*
%TO.C,Right_LED1*%
X112974380Y-87213333D02*
X112498190Y-87546666D01*
X112974380Y-87784761D02*
X111974380Y-87784761D01*
X111974380Y-87403809D01*
X112022000Y-87308571D01*
X112069619Y-87260952D01*
X112164857Y-87213333D01*
X112307714Y-87213333D01*
X112402952Y-87260952D01*
X112450571Y-87308571D01*
X112498190Y-87403809D01*
X112498190Y-87784761D01*
X112974380Y-86784761D02*
X112307714Y-86784761D01*
X111974380Y-86784761D02*
X112022000Y-86832380D01*
X112069619Y-86784761D01*
X112022000Y-86737142D01*
X111974380Y-86784761D01*
X112069619Y-86784761D01*
X112307714Y-85879999D02*
X113117238Y-85879999D01*
X113212476Y-85927619D01*
X113260095Y-85975238D01*
X113307714Y-86070476D01*
X113307714Y-86213333D01*
X113260095Y-86308571D01*
X112926761Y-85879999D02*
X112974380Y-85975238D01*
X112974380Y-86165714D01*
X112926761Y-86260952D01*
X112879142Y-86308571D01*
X112783904Y-86356190D01*
X112498190Y-86356190D01*
X112402952Y-86308571D01*
X112355333Y-86260952D01*
X112307714Y-86165714D01*
X112307714Y-85975238D01*
X112355333Y-85879999D01*
X112974380Y-85403809D02*
X111974380Y-85403809D01*
X112974380Y-84975238D02*
X112450571Y-84975238D01*
X112355333Y-85022857D01*
X112307714Y-85118095D01*
X112307714Y-85260952D01*
X112355333Y-85356190D01*
X112402952Y-85403809D01*
X112307714Y-84641904D02*
X112307714Y-84260952D01*
X111974380Y-84499047D02*
X112831523Y-84499047D01*
X112926761Y-84451428D01*
X112974380Y-84356190D01*
X112974380Y-84260952D01*
X113069619Y-84165714D02*
X113069619Y-83403809D01*
X112974380Y-82689523D02*
X112974380Y-83165714D01*
X111974380Y-83165714D01*
X112450571Y-82356190D02*
X112450571Y-82022857D01*
X112974380Y-81879999D02*
X112974380Y-82356190D01*
X111974380Y-82356190D01*
X111974380Y-81879999D01*
X112974380Y-81451428D02*
X111974380Y-81451428D01*
X111974380Y-81213333D01*
X112022000Y-81070476D01*
X112117238Y-80975238D01*
X112212476Y-80927619D01*
X112402952Y-80879999D01*
X112545809Y-80879999D01*
X112736285Y-80927619D01*
X112831523Y-80975238D01*
X112926761Y-81070476D01*
X112974380Y-81213333D01*
X112974380Y-81451428D01*
X112974380Y-79927619D02*
X112974380Y-80499047D01*
X112974380Y-80213333D02*
X111974380Y-80213333D01*
X112117238Y-80308571D01*
X112212476Y-80403809D01*
X112260095Y-80499047D01*
%TO.C,Left_Sensor2*%
X83366380Y-72183428D02*
X83366380Y-72659619D01*
X82366380Y-72659619D01*
X83318761Y-71469142D02*
X83366380Y-71564380D01*
X83366380Y-71754857D01*
X83318761Y-71850095D01*
X83223523Y-71897714D01*
X82842571Y-71897714D01*
X82747333Y-71850095D01*
X82699714Y-71754857D01*
X82699714Y-71564380D01*
X82747333Y-71469142D01*
X82842571Y-71421523D01*
X82937809Y-71421523D01*
X83033047Y-71897714D01*
X82699714Y-71135809D02*
X82699714Y-70754857D01*
X83366380Y-70992952D02*
X82509238Y-70992952D01*
X82414000Y-70945333D01*
X82366380Y-70850095D01*
X82366380Y-70754857D01*
X82699714Y-70564380D02*
X82699714Y-70183428D01*
X82366380Y-70421523D02*
X83223523Y-70421523D01*
X83318761Y-70373904D01*
X83366380Y-70278666D01*
X83366380Y-70183428D01*
X83461619Y-70088190D02*
X83461619Y-69326285D01*
X83318761Y-69135809D02*
X83366380Y-68992952D01*
X83366380Y-68754857D01*
X83318761Y-68659619D01*
X83271142Y-68612000D01*
X83175904Y-68564380D01*
X83080666Y-68564380D01*
X82985428Y-68612000D01*
X82937809Y-68659619D01*
X82890190Y-68754857D01*
X82842571Y-68945333D01*
X82794952Y-69040571D01*
X82747333Y-69088190D01*
X82652095Y-69135809D01*
X82556857Y-69135809D01*
X82461619Y-69088190D01*
X82414000Y-69040571D01*
X82366380Y-68945333D01*
X82366380Y-68707238D01*
X82414000Y-68564380D01*
X83318761Y-67754857D02*
X83366380Y-67850095D01*
X83366380Y-68040571D01*
X83318761Y-68135809D01*
X83223523Y-68183428D01*
X82842571Y-68183428D01*
X82747333Y-68135809D01*
X82699714Y-68040571D01*
X82699714Y-67850095D01*
X82747333Y-67754857D01*
X82842571Y-67707238D01*
X82937809Y-67707238D01*
X83033047Y-68183428D01*
X82699714Y-67278666D02*
X83366380Y-67278666D01*
X82794952Y-67278666D02*
X82747333Y-67231047D01*
X82699714Y-67135809D01*
X82699714Y-66992952D01*
X82747333Y-66897714D01*
X82842571Y-66850095D01*
X83366380Y-66850095D01*
X83318761Y-66421523D02*
X83366380Y-66326285D01*
X83366380Y-66135809D01*
X83318761Y-66040571D01*
X83223523Y-65992952D01*
X83175904Y-65992952D01*
X83080666Y-66040571D01*
X83033047Y-66135809D01*
X83033047Y-66278666D01*
X82985428Y-66373904D01*
X82890190Y-66421523D01*
X82842571Y-66421523D01*
X82747333Y-66373904D01*
X82699714Y-66278666D01*
X82699714Y-66135809D01*
X82747333Y-66040571D01*
X83366380Y-65421523D02*
X83318761Y-65516761D01*
X83271142Y-65564380D01*
X83175904Y-65612000D01*
X82890190Y-65612000D01*
X82794952Y-65564380D01*
X82747333Y-65516761D01*
X82699714Y-65421523D01*
X82699714Y-65278666D01*
X82747333Y-65183428D01*
X82794952Y-65135809D01*
X82890190Y-65088190D01*
X83175904Y-65088190D01*
X83271142Y-65135809D01*
X83318761Y-65183428D01*
X83366380Y-65278666D01*
X83366380Y-65421523D01*
X83366380Y-64659619D02*
X82699714Y-64659619D01*
X82890190Y-64659619D02*
X82794952Y-64612000D01*
X82747333Y-64564380D01*
X82699714Y-64469142D01*
X82699714Y-64373904D01*
X82461619Y-64088190D02*
X82414000Y-64040571D01*
X82366380Y-63945333D01*
X82366380Y-63707238D01*
X82414000Y-63612000D01*
X82461619Y-63564380D01*
X82556857Y-63516761D01*
X82652095Y-63516761D01*
X82794952Y-63564380D01*
X83366380Y-64135809D01*
X83366380Y-63516761D01*
%TO.C,U1*%
X101600000Y-72390000D02*
X83820000Y-72390000D01*
X83820000Y-41910000D02*
X88900000Y-41910000D01*
X88900000Y-39370000D02*
X96520000Y-39370000D01*
X101600000Y-41910000D02*
X101600000Y-72390000D01*
X88900000Y-41910000D02*
X88900000Y-39370000D01*
X96520000Y-39370000D02*
X96520000Y-41910000D01*
X83820000Y-41910000D02*
X83820000Y-72390000D01*
X96520000Y-41910000D02*
X101600000Y-41910000D01*
D11*
%TO.C,Left_Sensor1*%
X76026000Y-58059000D02*
X81996000Y-58059000D01*
X75736000Y-57099000D02*
X75736000Y-58349000D01*
X76036000Y-56249000D02*
X76036000Y-58049000D01*
X76036000Y-58049000D02*
X76786000Y-58049000D01*
X76036000Y-43749000D02*
X76036000Y-54749000D01*
X76026000Y-40439000D02*
X76026000Y-58059000D01*
X81996000Y-58059000D02*
X81996000Y-40439000D01*
X75736000Y-58349000D02*
X76986000Y-58349000D01*
X76036000Y-40449000D02*
X76036000Y-42249000D01*
X76786000Y-40449000D02*
X76036000Y-40449000D01*
X81996000Y-40439000D02*
X76026000Y-40439000D01*
%TO.C,Power1*%
X103134000Y-41856000D02*
X103134000Y-42606000D01*
X110734000Y-42606000D02*
X110734000Y-41856000D01*
X110744000Y-41846000D02*
X103124000Y-41846000D01*
X103124000Y-47816000D02*
X110744000Y-47816000D01*
X110734000Y-41856000D02*
X108934000Y-41856000D01*
X110744000Y-47816000D02*
X110744000Y-41846000D01*
X103124000Y-41846000D02*
X103124000Y-47816000D01*
X107434000Y-41856000D02*
X106434000Y-41856000D01*
X102834000Y-41556000D02*
X102834000Y-42806000D01*
X104934000Y-41856000D02*
X103134000Y-41856000D01*
X104084000Y-41556000D02*
X102834000Y-41556000D01*
%TO.C,Left_LED1*%
X81979000Y-88753000D02*
X81979000Y-78633000D01*
X76019000Y-86943000D02*
X76019000Y-88743000D01*
X76019000Y-81943000D02*
X76019000Y-85443000D01*
X81979000Y-78633000D02*
X76009000Y-78633000D01*
X76019000Y-88743000D02*
X76769000Y-88743000D01*
X76019000Y-78643000D02*
X76019000Y-80443000D01*
X76009000Y-78633000D02*
X76009000Y-88753000D01*
X75719000Y-87793000D02*
X75719000Y-89043000D01*
X75719000Y-89043000D02*
X76969000Y-89043000D01*
X76769000Y-78643000D02*
X76019000Y-78643000D01*
X76009000Y-88753000D02*
X81979000Y-88753000D01*
%TO.C,Right_Sensor2*%
X119671000Y-59299000D02*
X118921000Y-59299000D01*
X119971000Y-60249000D02*
X119971000Y-58999000D01*
X119971000Y-58999000D02*
X118721000Y-58999000D01*
X113711000Y-59289000D02*
X113711000Y-76909000D01*
X119681000Y-59289000D02*
X113711000Y-59289000D01*
X113711000Y-76909000D02*
X119681000Y-76909000D01*
X119671000Y-73599000D02*
X119671000Y-62599000D01*
X119671000Y-61099000D02*
X119671000Y-59299000D01*
X119681000Y-76909000D02*
X119681000Y-59289000D01*
X118921000Y-76899000D02*
X119671000Y-76899000D01*
X119671000Y-76899000D02*
X119671000Y-75099000D01*
%TO.C,Right_Sensor1*%
X119681000Y-57986000D02*
X119681000Y-40366000D01*
X119671000Y-40376000D02*
X118921000Y-40376000D01*
X118921000Y-57976000D02*
X119671000Y-57976000D01*
X119671000Y-42176000D02*
X119671000Y-40376000D01*
X119971000Y-41326000D02*
X119971000Y-40076000D01*
X113711000Y-57986000D02*
X119681000Y-57986000D01*
X119971000Y-40076000D02*
X118721000Y-40076000D01*
X113711000Y-40366000D02*
X113711000Y-57986000D01*
X119671000Y-54676000D02*
X119671000Y-43676000D01*
X119681000Y-40366000D02*
X113711000Y-40366000D01*
X119671000Y-57976000D02*
X119671000Y-56176000D01*
%TO.C,Right_LED1*%
X119671000Y-80403000D02*
X119671000Y-78603000D01*
X119671000Y-85403000D02*
X119671000Y-81903000D01*
X119971000Y-79553000D02*
X119971000Y-78303000D01*
X119681000Y-78593000D02*
X113711000Y-78593000D01*
X113711000Y-88713000D02*
X119681000Y-88713000D01*
X119671000Y-88703000D02*
X119671000Y-86903000D01*
X119681000Y-88713000D02*
X119681000Y-78593000D01*
X113711000Y-78593000D02*
X113711000Y-88713000D01*
X119971000Y-78303000D02*
X118721000Y-78303000D01*
X118921000Y-88703000D02*
X119671000Y-88703000D01*
X119671000Y-78603000D02*
X118921000Y-78603000D01*
%TO.C,Left_Sensor2*%
X76009000Y-59302000D02*
X76009000Y-76922000D01*
X75719000Y-75962000D02*
X75719000Y-77212000D01*
X76019000Y-62612000D02*
X76019000Y-73612000D01*
X76019000Y-59312000D02*
X76019000Y-61112000D01*
X81979000Y-59302000D02*
X76009000Y-59302000D01*
X76019000Y-75112000D02*
X76019000Y-76912000D01*
X76009000Y-76922000D02*
X81979000Y-76922000D01*
X81979000Y-76922000D02*
X81979000Y-59302000D01*
X75719000Y-77212000D02*
X76969000Y-77212000D01*
X76769000Y-59312000D02*
X76019000Y-59312000D01*
X76019000Y-76912000D02*
X76769000Y-76912000D01*
%TD*%
M02*
