M48
; DRILL file {KiCad (6.0.4)} date Mon Apr 18 00:34:23 2022
; FORMAT={-:-/ absolute / inch / decimal}
; #@! TF.CreationDate,2022-04-18T00:34:23+09:00
; #@! TF.GenerationSoftware,Kicad,Pcbnew,(6.0.4)
; #@! TF.FileFunction,Plated,1,2,PTH
FMAT,2
INCH
; #@! TA.AperFunction,Plated,PTH,ViaDrill
T1C0.0157
; #@! TA.AperFunction,Plated,PTH,ComponentDrill
T2C0.0374
; #@! TA.AperFunction,Plated,PTH,ComponentDrill
T3C0.0394
; #@! TA.AperFunction,Plated,PTH,ComponentDrill
T4C0.0433
%
G90
G05
T1
X3.635Y-2.445
X3.84Y-2.6
X3.84Y-2.69
X4.0498Y-2.4852
X4.14Y-2.6
X4.14Y-2.695
X4.14Y-2.83
X4.3923Y-1.8723
X4.395Y-1.99
X4.395Y-2.115
X4.395Y-2.315
T2
X3.0893Y-2.4355
X3.0893Y-2.5339
X3.0893Y-2.6324
X3.0893Y-2.7308
X3.0893Y-2.8292
X3.0893Y-2.9276
X3.0893Y-3.1966
X3.0893Y-3.295
X3.0893Y-3.3934
X3.09Y-1.6929
X3.09Y-1.7913
X3.09Y-1.8897
X3.09Y-1.9881
X3.09Y-2.0866
X3.09Y-2.185
X4.615Y-1.69
X4.615Y-1.7884
X4.615Y-1.8869
X4.615Y-1.9853
X4.615Y-2.0837
X4.615Y-2.1821
X4.615Y-2.435
X4.615Y-2.5334
X4.615Y-2.6319
X4.615Y-2.7303
X4.615Y-2.8287
X4.615Y-2.9271
X4.615Y-3.195
X4.615Y-3.2934
X4.615Y-3.3919
T3
X4.1608Y-1.7443
X4.2592Y-1.7443
T4
X3.35Y-1.7
X3.35Y-1.8
X3.35Y-1.9
X3.35Y-2.0
X3.35Y-2.1
X3.35Y-2.2
X3.35Y-2.3
X3.35Y-2.4
X3.35Y-2.5
X3.35Y-2.6
X3.35Y-2.7
X3.35Y-2.8
X3.95Y-1.7
X3.95Y-1.8
X3.95Y-1.9
X3.95Y-2.0
X3.95Y-2.1
X3.95Y-2.2
X3.95Y-2.3
X3.95Y-2.4
X3.95Y-2.5
X3.95Y-2.6
X3.95Y-2.7
X3.95Y-2.8
T0
M30
