%TF.GenerationSoftware,KiCad,Pcbnew,(6.0.4)*%
%TF.CreationDate,2022-04-18T00:34:21+09:00*%
%TF.ProjectId,chuniAir,6368756e-6941-4697-922e-6b696361645f,rev?*%
%TF.SameCoordinates,Original*%
%TF.FileFunction,Copper,L1,Top*%
%TF.FilePolarity,Positive*%
%FSLAX46Y46*%
G04 Gerber Fmt 4.6, Leading zero omitted, Abs format (unit mm)*
G04 Created by KiCad (PCBNEW (6.0.4)) date 2022-04-18 00:34:21*
%MOMM*%
%LPD*%
G01*
G04 APERTURE LIST*
G04 Aperture macros list*
%AMRoundRect*
0 Rectangle with rounded corners*
0 $1 Rounding radius*
0 $2 $3 $4 $5 $6 $7 $8 $9 X,Y pos of 4 corners*
0 Add a 4 corners polygon primitive as box body*
4,1,4,$2,$3,$4,$5,$6,$7,$8,$9,$2,$3,0*
0 Add four circle primitives for the rounded corners*
1,1,$1+$1,$2,$3*
1,1,$1+$1,$4,$5*
1,1,$1+$1,$6,$7*
1,1,$1+$1,$8,$9*
0 Add four rect primitives between the rounded corners*
20,1,$1+$1,$2,$3,$4,$5,0*
20,1,$1+$1,$4,$5,$6,$7,0*
20,1,$1+$1,$6,$7,$8,$9,0*
20,1,$1+$1,$8,$9,$2,$3,0*%
G04 Aperture macros list end*
%TA.AperFunction,ComponentPad*%
%ADD10R,1.600000X1.600000*%
%TD*%
%TA.AperFunction,ComponentPad*%
%ADD11C,1.600000*%
%TD*%
%TA.AperFunction,ComponentPad*%
%ADD12RoundRect,0.250000X0.725000X-0.600000X0.725000X0.600000X-0.725000X0.600000X-0.725000X-0.600000X0*%
%TD*%
%TA.AperFunction,ComponentPad*%
%ADD13O,1.950000X1.700000*%
%TD*%
%TA.AperFunction,ComponentPad*%
%ADD14RoundRect,0.250000X-0.600000X-0.750000X0.600000X-0.750000X0.600000X0.750000X-0.600000X0.750000X0*%
%TD*%
%TA.AperFunction,ComponentPad*%
%ADD15O,1.700000X2.000000*%
%TD*%
%TA.AperFunction,ComponentPad*%
%ADD16RoundRect,0.250000X-0.725000X0.600000X-0.725000X-0.600000X0.725000X-0.600000X0.725000X0.600000X0*%
%TD*%
%TA.AperFunction,ViaPad*%
%ADD17C,0.800000*%
%TD*%
%TA.AperFunction,Conductor*%
%ADD18C,0.250000*%
%TD*%
G04 APERTURE END LIST*
D10*
%TO.P,U1,1,TX*%
%TO.N,unconnected-(U1-Pad1)*%
X85090000Y-43180000D03*
D11*
%TO.P,U1,2,RX*%
%TO.N,unconnected-(U1-Pad2)*%
X85090000Y-45720000D03*
%TO.P,U1,3,GND*%
%TO.N,GND*%
X85090000Y-48260000D03*
%TO.P,U1,4,GND*%
%TO.N,unconnected-(U1-Pad4)*%
X85090000Y-50800000D03*
%TO.P,U1,5,SDA*%
%TO.N,unconnected-(U1-Pad5)*%
X85090000Y-53340000D03*
%TO.P,U1,6,SCL*%
%TO.N,unconnected-(U1-Pad6)*%
X85090000Y-55880000D03*
%TO.P,U1,7,D4*%
%TO.N,/OUT1*%
X85090000Y-58420000D03*
%TO.P,U1,8,C6*%
%TO.N,/OUT2*%
X85090000Y-60960000D03*
%TO.P,U1,9,D7*%
%TO.N,/OUT3*%
X85090000Y-63500000D03*
%TO.P,U1,10,E6*%
%TO.N,/OUT4*%
X85090000Y-66040000D03*
%TO.P,U1,11,B4*%
%TO.N,/OUT5*%
X85090000Y-68580000D03*
%TO.P,U1,12,B5*%
%TO.N,/OUT6*%
X85090000Y-71120000D03*
%TO.P,U1,13,B6*%
%TO.N,unconnected-(U1-Pad13)*%
X100330000Y-71120000D03*
%TO.P,U1,14,B2*%
%TO.N,unconnected-(U1-Pad14)*%
X100330000Y-68580000D03*
%TO.P,U1,15,B3*%
%TO.N,unconnected-(U1-Pad15)*%
X100330000Y-66040000D03*
%TO.P,U1,16,B1*%
%TO.N,unconnected-(U1-Pad16)*%
X100330000Y-63500000D03*
%TO.P,U1,17,F7*%
%TO.N,/DATA1*%
X100330000Y-60960000D03*
%TO.P,U1,18,F6*%
%TO.N,/DATA2*%
X100330000Y-58420000D03*
%TO.P,U1,19,F5*%
%TO.N,unconnected-(U1-Pad19)*%
X100330000Y-55880000D03*
%TO.P,U1,20,F4*%
%TO.N,unconnected-(U1-Pad20)*%
X100330000Y-53340000D03*
%TO.P,U1,21,VCC*%
%TO.N,+5V*%
X100330000Y-50800000D03*
%TO.P,U1,22,RST*%
%TO.N,unconnected-(U1-Pad22)*%
X100330000Y-48260000D03*
%TO.P,U1,23,GND*%
%TO.N,unconnected-(U1-Pad23)*%
X100330000Y-45720000D03*
%TO.P,U1,24,RAW*%
%TO.N,unconnected-(U1-Pad24)*%
X100330000Y-43180000D03*
%TD*%
D12*
%TO.P,Left_Sensor1,1,Pin_1*%
%TO.N,/TWR5*%
X78486000Y-55499000D03*
D13*
%TO.P,Left_Sensor1,2,Pin_2*%
%TO.N,/TWR4*%
X78486000Y-52999000D03*
%TO.P,Left_Sensor1,3,Pin_3*%
%TO.N,/TWR3*%
X78486000Y-50499000D03*
%TO.P,Left_Sensor1,4,Pin_4*%
%TO.N,/TWR2*%
X78486000Y-47999000D03*
%TO.P,Left_Sensor1,5,Pin_5*%
%TO.N,/TWR1*%
X78486000Y-45499000D03*
%TO.P,Left_Sensor1,6,Pin_6*%
%TO.N,+5V*%
X78486000Y-42999000D03*
%TD*%
D14*
%TO.P,Power1,1,Pin_1*%
%TO.N,+12V*%
X105684000Y-44306000D03*
D15*
%TO.P,Power1,2,Pin_2*%
%TO.N,GND*%
X108184000Y-44306000D03*
%TD*%
D12*
%TO.P,Left_LED1,1,Pin_1*%
%TO.N,GND*%
X78469000Y-86193000D03*
D13*
%TO.P,Left_LED1,2,Pin_2*%
%TO.N,/DATA1*%
X78469000Y-83693000D03*
%TO.P,Left_LED1,3,Pin_3*%
%TO.N,+12V*%
X78469000Y-81193000D03*
%TD*%
D16*
%TO.P,Right_Sensor2,1,Pin_1*%
%TO.N,/TWR6*%
X117221000Y-61849000D03*
D13*
%TO.P,Right_Sensor2,2,Pin_2*%
%TO.N,/OUT4*%
X117221000Y-64349000D03*
%TO.P,Right_Sensor2,3,Pin_3*%
%TO.N,/OUT5*%
X117221000Y-66849000D03*
%TO.P,Right_Sensor2,4,Pin_4*%
%TO.N,/OUT6*%
X117221000Y-69349000D03*
%TO.P,Right_Sensor2,5,Pin_5*%
%TO.N,GND*%
X117221000Y-71849000D03*
%TO.P,Right_Sensor2,6,Pin_6*%
X117221000Y-74349000D03*
%TD*%
D16*
%TO.P,Right_Sensor1,1,Pin_1*%
%TO.N,+5V*%
X117221000Y-42926000D03*
D13*
%TO.P,Right_Sensor1,2,Pin_2*%
%TO.N,/TWR1*%
X117221000Y-45426000D03*
%TO.P,Right_Sensor1,3,Pin_3*%
%TO.N,/TWR2*%
X117221000Y-47926000D03*
%TO.P,Right_Sensor1,4,Pin_4*%
%TO.N,/TWR3*%
X117221000Y-50426000D03*
%TO.P,Right_Sensor1,5,Pin_5*%
%TO.N,/TWR4*%
X117221000Y-52926000D03*
%TO.P,Right_Sensor1,6,Pin_6*%
%TO.N,/TWR5*%
X117221000Y-55426000D03*
%TD*%
D16*
%TO.P,Right_LED1,1,Pin_1*%
%TO.N,+12V*%
X117221000Y-81153000D03*
D13*
%TO.P,Right_LED1,2,Pin_2*%
%TO.N,/DATA2*%
X117221000Y-83653000D03*
%TO.P,Right_LED1,3,Pin_3*%
%TO.N,GND*%
X117221000Y-86153000D03*
%TD*%
D12*
%TO.P,Left_Sensor2,1,Pin_1*%
%TO.N,GND*%
X78469000Y-74362000D03*
D13*
%TO.P,Left_Sensor2,2,Pin_2*%
X78469000Y-71862000D03*
%TO.P,Left_Sensor2,3,Pin_3*%
%TO.N,/OUT3*%
X78469000Y-69362000D03*
%TO.P,Left_Sensor2,4,Pin_4*%
%TO.N,/OUT2*%
X78469000Y-66862000D03*
%TO.P,Left_Sensor2,5,Pin_5*%
%TO.N,/OUT1*%
X78469000Y-64362000D03*
%TO.P,Left_Sensor2,6,Pin_6*%
%TO.N,/TWR6*%
X78469000Y-61862000D03*
%TD*%
D17*
%TO.N,GND*%
X97536000Y-68326000D03*
X111565200Y-47557200D03*
X111633000Y-50546000D03*
X92329000Y-62103000D03*
X111633000Y-53721000D03*
X105156000Y-71882000D03*
X102865701Y-63123299D03*
X105156000Y-68453000D03*
X105156000Y-66040000D03*
X111633000Y-58801000D03*
X97536000Y-66040000D03*
%TD*%
D18*
%TO.N,/DATA2*%
X113411000Y-71501000D02*
X100330000Y-58420000D01*
X113411000Y-79843000D02*
X113411000Y-71501000D01*
X117221000Y-83653000D02*
X113411000Y-79843000D01*
%TO.N,/OUT2*%
X78469000Y-66862000D02*
X79188000Y-66862000D01*
X79188000Y-66862000D02*
X85090000Y-60960000D01*
%TO.N,/OUT1*%
X78469000Y-64362000D02*
X78469000Y-64279000D01*
X78469000Y-64279000D02*
X84328000Y-58420000D01*
X84328000Y-58420000D02*
X85090000Y-58420000D01*
%TO.N,/DATA1*%
X100330000Y-61832000D02*
X100330000Y-60960000D01*
X78469000Y-83693000D02*
X100330000Y-61832000D01*
%TO.N,+12V*%
X109858000Y-40132000D02*
X118618000Y-40132000D01*
X118618000Y-40132000D02*
X119888000Y-41402000D01*
X117181000Y-81193000D02*
X117221000Y-81153000D01*
X119888000Y-78486000D02*
X117221000Y-81153000D01*
X119888000Y-41402000D02*
X119888000Y-78486000D01*
X105684000Y-44306000D02*
X109858000Y-40132000D01*
%TO.N,+5V*%
X78486000Y-42999000D02*
X81226000Y-40259000D01*
X81226000Y-40259000D02*
X89789000Y-40259000D01*
X109347000Y-50800000D02*
X117221000Y-42926000D01*
X100330000Y-50800000D02*
X109347000Y-50800000D01*
X89789000Y-40259000D02*
X100330000Y-50800000D01*
%TO.N,/OUT3*%
X78469000Y-69362000D02*
X79990000Y-69362000D01*
X85090000Y-64262000D02*
X85090000Y-63500000D01*
X79990000Y-69362000D02*
X85090000Y-64262000D01*
%TD*%
%TA.AperFunction,Conductor*%
%TO.N,GND*%
G36*
X80474526Y-39898502D02*
G01*
X80521019Y-39952158D01*
X80531123Y-40022432D01*
X80501629Y-40087012D01*
X80495500Y-40093595D01*
X78962209Y-41626886D01*
X78899897Y-41660912D01*
X78850694Y-41661780D01*
X78743395Y-41642378D01*
X78743394Y-41642378D01*
X78739308Y-41641639D01*
X78721586Y-41640803D01*
X78716644Y-41640570D01*
X78716637Y-41640570D01*
X78715156Y-41640500D01*
X78303110Y-41640500D01*
X78236191Y-41646178D01*
X78136591Y-41654629D01*
X78136587Y-41654630D01*
X78131280Y-41655080D01*
X78126125Y-41656418D01*
X78126119Y-41656419D01*
X77913297Y-41711657D01*
X77913293Y-41711658D01*
X77908128Y-41712999D01*
X77903262Y-41715191D01*
X77903259Y-41715192D01*
X77864384Y-41732704D01*
X77697925Y-41807688D01*
X77506681Y-41936441D01*
X77339865Y-42095576D01*
X77202246Y-42280542D01*
X77199830Y-42285293D01*
X77199828Y-42285297D01*
X77174414Y-42335283D01*
X77097760Y-42486051D01*
X77029393Y-42706227D01*
X77028692Y-42711516D01*
X77008423Y-42864450D01*
X76999102Y-42934774D01*
X76999302Y-42940103D01*
X76999302Y-42940105D01*
X77001583Y-43000859D01*
X77007751Y-43165158D01*
X77055093Y-43390791D01*
X77057051Y-43395750D01*
X77057052Y-43395752D01*
X77127124Y-43573183D01*
X77139776Y-43605221D01*
X77142543Y-43609780D01*
X77142544Y-43609783D01*
X77189637Y-43687389D01*
X77259377Y-43802317D01*
X77262874Y-43806347D01*
X77371628Y-43931675D01*
X77410477Y-43976445D01*
X77414608Y-43979832D01*
X77584627Y-44119240D01*
X77584633Y-44119244D01*
X77588755Y-44122624D01*
X77620250Y-44140552D01*
X77669555Y-44191632D01*
X77683417Y-44261262D01*
X77657434Y-44327333D01*
X77628284Y-44354573D01*
X77506681Y-44436441D01*
X77502824Y-44440120D01*
X77502822Y-44440122D01*
X77455028Y-44485716D01*
X77339865Y-44595576D01*
X77202246Y-44780542D01*
X77199830Y-44785293D01*
X77199828Y-44785297D01*
X77155847Y-44871803D01*
X77097760Y-44986051D01*
X77096178Y-44991145D01*
X77096177Y-44991148D01*
X77034115Y-45191020D01*
X77029393Y-45206227D01*
X77028692Y-45211516D01*
X77002429Y-45409673D01*
X76999102Y-45434774D01*
X76999302Y-45440103D01*
X76999302Y-45440105D01*
X77002417Y-45523072D01*
X77007751Y-45665158D01*
X77008846Y-45670377D01*
X77019000Y-45718773D01*
X77055093Y-45890791D01*
X77057051Y-45895750D01*
X77057052Y-45895752D01*
X77074112Y-45938949D01*
X77139776Y-46105221D01*
X77142543Y-46109780D01*
X77142544Y-46109783D01*
X77181649Y-46174225D01*
X77259377Y-46302317D01*
X77262874Y-46306347D01*
X77349438Y-46406103D01*
X77410477Y-46476445D01*
X77452030Y-46510516D01*
X77584627Y-46619240D01*
X77584633Y-46619244D01*
X77588755Y-46622624D01*
X77620250Y-46640552D01*
X77669555Y-46691632D01*
X77683417Y-46761262D01*
X77657434Y-46827333D01*
X77628284Y-46854573D01*
X77506681Y-46936441D01*
X77502824Y-46940120D01*
X77502822Y-46940122D01*
X77487977Y-46954284D01*
X77339865Y-47095576D01*
X77202246Y-47280542D01*
X77199830Y-47285293D01*
X77199828Y-47285297D01*
X77150003Y-47383296D01*
X77097760Y-47486051D01*
X77096178Y-47491145D01*
X77096177Y-47491148D01*
X77053643Y-47628129D01*
X77029393Y-47706227D01*
X77028692Y-47711516D01*
X77004876Y-47891210D01*
X76999102Y-47934774D01*
X77007751Y-48165158D01*
X77008846Y-48170377D01*
X77027413Y-48258868D01*
X77055093Y-48390791D01*
X77057051Y-48395750D01*
X77057052Y-48395752D01*
X77074112Y-48438949D01*
X77139776Y-48605221D01*
X77142543Y-48609780D01*
X77142544Y-48609783D01*
X77166184Y-48648740D01*
X77259377Y-48802317D01*
X77262874Y-48806347D01*
X77362370Y-48921006D01*
X77410477Y-48976445D01*
X77452030Y-49010516D01*
X77584627Y-49119240D01*
X77584633Y-49119244D01*
X77588755Y-49122624D01*
X77620250Y-49140552D01*
X77669555Y-49191632D01*
X77683417Y-49261262D01*
X77657434Y-49327333D01*
X77628284Y-49354573D01*
X77506681Y-49436441D01*
X77502824Y-49440120D01*
X77502822Y-49440122D01*
X77479421Y-49462446D01*
X77339865Y-49595576D01*
X77202246Y-49780542D01*
X77199830Y-49785293D01*
X77199828Y-49785297D01*
X77150003Y-49883296D01*
X77097760Y-49986051D01*
X77096178Y-49991145D01*
X77096177Y-49991148D01*
X77048948Y-50143251D01*
X77029393Y-50206227D01*
X77028692Y-50211516D01*
X77005467Y-50386752D01*
X76999102Y-50434774D01*
X77007751Y-50665158D01*
X77055093Y-50890791D01*
X77057051Y-50895750D01*
X77057052Y-50895752D01*
X77074112Y-50938949D01*
X77139776Y-51105221D01*
X77142543Y-51109780D01*
X77142544Y-51109783D01*
X77166184Y-51148740D01*
X77259377Y-51302317D01*
X77262874Y-51306347D01*
X77397298Y-51461257D01*
X77410477Y-51476445D01*
X77452030Y-51510516D01*
X77584627Y-51619240D01*
X77584633Y-51619244D01*
X77588755Y-51622624D01*
X77620250Y-51640552D01*
X77669555Y-51691632D01*
X77683417Y-51761262D01*
X77657434Y-51827333D01*
X77628284Y-51854573D01*
X77506681Y-51936441D01*
X77502824Y-51940120D01*
X77502822Y-51940122D01*
X77486382Y-51955805D01*
X77339865Y-52095576D01*
X77202246Y-52280542D01*
X77199830Y-52285293D01*
X77199828Y-52285297D01*
X77176773Y-52330643D01*
X77097760Y-52486051D01*
X77096178Y-52491145D01*
X77096177Y-52491148D01*
X77037927Y-52678743D01*
X77029393Y-52706227D01*
X77028692Y-52711516D01*
X77000095Y-52927285D01*
X76999102Y-52934774D01*
X77007751Y-53165158D01*
X77055093Y-53390791D01*
X77057051Y-53395750D01*
X77057052Y-53395752D01*
X77074112Y-53438949D01*
X77139776Y-53605221D01*
X77142543Y-53609780D01*
X77142544Y-53609783D01*
X77166184Y-53648740D01*
X77259377Y-53802317D01*
X77262874Y-53806347D01*
X77349438Y-53906103D01*
X77410477Y-53976445D01*
X77446120Y-54005670D01*
X77486114Y-54064329D01*
X77488046Y-54135299D01*
X77451302Y-54196048D01*
X77432532Y-54210248D01*
X77395171Y-54233368D01*
X77286652Y-54300522D01*
X77161695Y-54425697D01*
X77157855Y-54431927D01*
X77157854Y-54431928D01*
X77090596Y-54541041D01*
X77068885Y-54576262D01*
X77045848Y-54645716D01*
X77025342Y-54707542D01*
X77013203Y-54744139D01*
X77002500Y-54848600D01*
X77002500Y-56149400D01*
X77002837Y-56152646D01*
X77002837Y-56152650D01*
X77010319Y-56224757D01*
X77013474Y-56255166D01*
X77015655Y-56261702D01*
X77015655Y-56261704D01*
X77050259Y-56365423D01*
X77069450Y-56422946D01*
X77162522Y-56573348D01*
X77287697Y-56698305D01*
X77293927Y-56702145D01*
X77293928Y-56702146D01*
X77431090Y-56786694D01*
X77438262Y-56791115D01*
X77518005Y-56817564D01*
X77599611Y-56844632D01*
X77599613Y-56844632D01*
X77606139Y-56846797D01*
X77612975Y-56847497D01*
X77612978Y-56847498D01*
X77656031Y-56851909D01*
X77710600Y-56857500D01*
X79261400Y-56857500D01*
X79264646Y-56857163D01*
X79264650Y-56857163D01*
X79360308Y-56847238D01*
X79360312Y-56847237D01*
X79367166Y-56846526D01*
X79373702Y-56844345D01*
X79373704Y-56844345D01*
X79505806Y-56800272D01*
X79534946Y-56790550D01*
X79685348Y-56697478D01*
X79810305Y-56572303D01*
X79903115Y-56421738D01*
X79958797Y-56253861D01*
X79969500Y-56149400D01*
X79969500Y-54848600D01*
X79966510Y-54819779D01*
X79959238Y-54749692D01*
X79959237Y-54749688D01*
X79958526Y-54742834D01*
X79902550Y-54575054D01*
X79809478Y-54424652D01*
X79684303Y-54299695D01*
X79538660Y-54209919D01*
X79491168Y-54157148D01*
X79479744Y-54087076D01*
X79508018Y-54021952D01*
X79517805Y-54011490D01*
X79628278Y-53906103D01*
X79632135Y-53902424D01*
X79769754Y-53717458D01*
X79874240Y-53511949D01*
X79910321Y-53395752D01*
X79941024Y-53296871D01*
X79942607Y-53291773D01*
X79952983Y-53213484D01*
X79972198Y-53068511D01*
X79972198Y-53068506D01*
X79972898Y-53063226D01*
X79970158Y-52990226D01*
X79964449Y-52838173D01*
X79964249Y-52832842D01*
X79958678Y-52806288D01*
X79918002Y-52612428D01*
X79916907Y-52607209D01*
X79832224Y-52392779D01*
X79787927Y-52319779D01*
X79715390Y-52200243D01*
X79712623Y-52195683D01*
X79625755Y-52095576D01*
X79565023Y-52025588D01*
X79565021Y-52025586D01*
X79561523Y-52021555D01*
X79472493Y-51948555D01*
X79387373Y-51878760D01*
X79387367Y-51878756D01*
X79383245Y-51875376D01*
X79351750Y-51857448D01*
X79302445Y-51806368D01*
X79288583Y-51736738D01*
X79314566Y-51670667D01*
X79343716Y-51643427D01*
X79382506Y-51617312D01*
X79465319Y-51561559D01*
X79481378Y-51546240D01*
X79538719Y-51491539D01*
X79632135Y-51402424D01*
X79644342Y-51386018D01*
X79757932Y-51233347D01*
X79769754Y-51217458D01*
X79874240Y-51011949D01*
X79910321Y-50895752D01*
X79941024Y-50796871D01*
X79942607Y-50791773D01*
X79952983Y-50713484D01*
X79972198Y-50568511D01*
X79972198Y-50568506D01*
X79972898Y-50563226D01*
X79970158Y-50490226D01*
X79965121Y-50356067D01*
X79964249Y-50332842D01*
X79916907Y-50107209D01*
X79867181Y-49981296D01*
X79834185Y-49897744D01*
X79834184Y-49897742D01*
X79832224Y-49892779D01*
X79787927Y-49819779D01*
X79715390Y-49700243D01*
X79712623Y-49695683D01*
X79686548Y-49665634D01*
X79565023Y-49525588D01*
X79565021Y-49525586D01*
X79561523Y-49521555D01*
X79518773Y-49486502D01*
X79387373Y-49378760D01*
X79387367Y-49378756D01*
X79383245Y-49375376D01*
X79351750Y-49357448D01*
X79302445Y-49306368D01*
X79288583Y-49236738D01*
X79314566Y-49170667D01*
X79343716Y-49143427D01*
X79408534Y-49099789D01*
X79465319Y-49061559D01*
X79481378Y-49046240D01*
X79538719Y-48991539D01*
X79632135Y-48902424D01*
X79769754Y-48717458D01*
X79776631Y-48703933D01*
X79829342Y-48600256D01*
X79874240Y-48511949D01*
X79881650Y-48488087D01*
X79941024Y-48296871D01*
X79942607Y-48291773D01*
X79946091Y-48265485D01*
X79946092Y-48265475D01*
X83777483Y-48265475D01*
X83796472Y-48482519D01*
X83798375Y-48493312D01*
X83854764Y-48703761D01*
X83858510Y-48714053D01*
X83950586Y-48911511D01*
X83956069Y-48921006D01*
X83992509Y-48973048D01*
X84002988Y-48981424D01*
X84016434Y-48974356D01*
X84717978Y-48272812D01*
X84724356Y-48261132D01*
X85454408Y-48261132D01*
X85454539Y-48262965D01*
X85458790Y-48269580D01*
X86164287Y-48975077D01*
X86176062Y-48981507D01*
X86188077Y-48972211D01*
X86223931Y-48921006D01*
X86229414Y-48911511D01*
X86321490Y-48714053D01*
X86325236Y-48703761D01*
X86381625Y-48493312D01*
X86383528Y-48482519D01*
X86402517Y-48265475D01*
X86402517Y-48254525D01*
X86383528Y-48037481D01*
X86381625Y-48026688D01*
X86325236Y-47816239D01*
X86321490Y-47805947D01*
X86229414Y-47608489D01*
X86223931Y-47598994D01*
X86187491Y-47546952D01*
X86177012Y-47538576D01*
X86163566Y-47545644D01*
X85462022Y-48247188D01*
X85454408Y-48261132D01*
X84724356Y-48261132D01*
X84725592Y-48258868D01*
X84725461Y-48257035D01*
X84721210Y-48250420D01*
X84015713Y-47544923D01*
X84003938Y-47538493D01*
X83991923Y-47547789D01*
X83956069Y-47598994D01*
X83950586Y-47608489D01*
X83858510Y-47805947D01*
X83854764Y-47816239D01*
X83798375Y-48026688D01*
X83796472Y-48037481D01*
X83777483Y-48254525D01*
X83777483Y-48265475D01*
X79946092Y-48265475D01*
X79972198Y-48068511D01*
X79972198Y-48068506D01*
X79972898Y-48063226D01*
X79971932Y-48037481D01*
X79964449Y-47838173D01*
X79964249Y-47832842D01*
X79916907Y-47607209D01*
X79890139Y-47539428D01*
X79834185Y-47397744D01*
X79834184Y-47397742D01*
X79832224Y-47392779D01*
X79787927Y-47319779D01*
X79715390Y-47200243D01*
X79712623Y-47195683D01*
X79649098Y-47122477D01*
X79565023Y-47025588D01*
X79565021Y-47025586D01*
X79561523Y-47021555D01*
X79472493Y-46948555D01*
X79387373Y-46878760D01*
X79387367Y-46878756D01*
X79383245Y-46875376D01*
X79351750Y-46857448D01*
X79302445Y-46806368D01*
X79288583Y-46736738D01*
X79314566Y-46670667D01*
X79343716Y-46643427D01*
X79382506Y-46617312D01*
X79465319Y-46561559D01*
X79481378Y-46546240D01*
X79538719Y-46491539D01*
X79632135Y-46402424D01*
X79769754Y-46217458D01*
X79796968Y-46163933D01*
X79829342Y-46100256D01*
X79874240Y-46011949D01*
X79892420Y-45953402D01*
X79941024Y-45796871D01*
X79942607Y-45791773D01*
X79952119Y-45720000D01*
X83776502Y-45720000D01*
X83796457Y-45948087D01*
X83797881Y-45953400D01*
X83797881Y-45953402D01*
X83839784Y-46109783D01*
X83855716Y-46169243D01*
X83858039Y-46174224D01*
X83858039Y-46174225D01*
X83950151Y-46371762D01*
X83950154Y-46371767D01*
X83952477Y-46376749D01*
X84019461Y-46472412D01*
X84073526Y-46549624D01*
X84083802Y-46564300D01*
X84245700Y-46726198D01*
X84250208Y-46729355D01*
X84250211Y-46729357D01*
X84285881Y-46754333D01*
X84433251Y-46857523D01*
X84438233Y-46859846D01*
X84438238Y-46859849D01*
X84473049Y-46876081D01*
X84526334Y-46922998D01*
X84545795Y-46991275D01*
X84525253Y-47059235D01*
X84473049Y-47104471D01*
X84438489Y-47120586D01*
X84428994Y-47126069D01*
X84376952Y-47162509D01*
X84368576Y-47172988D01*
X84375644Y-47186434D01*
X85077188Y-47887978D01*
X85091132Y-47895592D01*
X85092965Y-47895461D01*
X85099580Y-47891210D01*
X85805077Y-47185713D01*
X85811507Y-47173938D01*
X85802211Y-47161923D01*
X85751006Y-47126069D01*
X85741511Y-47120586D01*
X85706951Y-47104471D01*
X85653666Y-47057554D01*
X85634205Y-46989277D01*
X85654747Y-46921317D01*
X85706951Y-46876081D01*
X85741762Y-46859849D01*
X85741767Y-46859846D01*
X85746749Y-46857523D01*
X85894119Y-46754333D01*
X85929789Y-46729357D01*
X85929792Y-46729355D01*
X85934300Y-46726198D01*
X86096198Y-46564300D01*
X86106475Y-46549624D01*
X86160539Y-46472412D01*
X86227523Y-46376749D01*
X86229846Y-46371767D01*
X86229849Y-46371762D01*
X86321961Y-46174225D01*
X86321961Y-46174224D01*
X86324284Y-46169243D01*
X86340217Y-46109783D01*
X86382119Y-45953402D01*
X86382119Y-45953400D01*
X86383543Y-45948087D01*
X86403498Y-45720000D01*
X86383543Y-45491913D01*
X86368233Y-45434774D01*
X86325707Y-45276067D01*
X86325706Y-45276065D01*
X86324284Y-45270757D01*
X86302165Y-45223322D01*
X86229849Y-45068238D01*
X86229846Y-45068233D01*
X86227523Y-45063251D01*
X86154098Y-44958389D01*
X86099357Y-44880211D01*
X86099355Y-44880208D01*
X86096198Y-44875700D01*
X85934300Y-44713802D01*
X85929789Y-44710643D01*
X85925576Y-44707108D01*
X85926527Y-44705974D01*
X85886529Y-44655929D01*
X85879224Y-44585310D01*
X85911258Y-44521951D01*
X85972462Y-44485970D01*
X85989517Y-44482918D01*
X86000316Y-44481745D01*
X86136705Y-44430615D01*
X86253261Y-44343261D01*
X86340615Y-44226705D01*
X86391745Y-44090316D01*
X86398500Y-44028134D01*
X86398500Y-42331866D01*
X86391745Y-42269684D01*
X86340615Y-42133295D01*
X86253261Y-42016739D01*
X86136705Y-41929385D01*
X86000316Y-41878255D01*
X85938134Y-41871500D01*
X84241866Y-41871500D01*
X84179684Y-41878255D01*
X84043295Y-41929385D01*
X83926739Y-42016739D01*
X83839385Y-42133295D01*
X83788255Y-42269684D01*
X83781500Y-42331866D01*
X83781500Y-44028134D01*
X83788255Y-44090316D01*
X83839385Y-44226705D01*
X83926739Y-44343261D01*
X84043295Y-44430615D01*
X84179684Y-44481745D01*
X84190474Y-44482917D01*
X84192606Y-44483803D01*
X84195222Y-44484425D01*
X84195121Y-44484848D01*
X84256035Y-44510155D01*
X84296463Y-44568517D01*
X84298922Y-44639471D01*
X84262629Y-44700490D01*
X84253969Y-44707489D01*
X84250207Y-44710646D01*
X84245700Y-44713802D01*
X84083802Y-44875700D01*
X84080645Y-44880208D01*
X84080643Y-44880211D01*
X84025902Y-44958389D01*
X83952477Y-45063251D01*
X83950154Y-45068233D01*
X83950151Y-45068238D01*
X83877835Y-45223322D01*
X83855716Y-45270757D01*
X83854294Y-45276065D01*
X83854293Y-45276067D01*
X83811767Y-45434774D01*
X83796457Y-45491913D01*
X83776502Y-45720000D01*
X79952119Y-45720000D01*
X79952282Y-45718773D01*
X79972198Y-45568511D01*
X79972198Y-45568506D01*
X79972898Y-45563226D01*
X79971625Y-45529303D01*
X79965972Y-45378738D01*
X79964249Y-45332842D01*
X79916907Y-45107209D01*
X79886119Y-45029248D01*
X79834185Y-44897744D01*
X79834184Y-44897742D01*
X79832224Y-44892779D01*
X79819496Y-44871803D01*
X79715390Y-44700243D01*
X79712623Y-44695683D01*
X79625755Y-44595576D01*
X79565023Y-44525588D01*
X79565021Y-44525586D01*
X79561523Y-44521555D01*
X79475474Y-44450999D01*
X79387373Y-44378760D01*
X79387367Y-44378756D01*
X79383245Y-44375376D01*
X79351750Y-44357448D01*
X79302445Y-44306368D01*
X79288583Y-44236738D01*
X79314566Y-44170667D01*
X79343716Y-44143427D01*
X79379642Y-44119240D01*
X79465319Y-44061559D01*
X79475340Y-44052000D01*
X79601472Y-43931675D01*
X79632135Y-43902424D01*
X79769754Y-43717458D01*
X79774327Y-43708465D01*
X79829342Y-43600256D01*
X79874240Y-43511949D01*
X79876212Y-43505600D01*
X79941024Y-43296871D01*
X79942607Y-43291773D01*
X79951188Y-43227032D01*
X79972198Y-43068511D01*
X79972198Y-43068506D01*
X79972898Y-43063226D01*
X79964249Y-42832842D01*
X79942830Y-42730757D01*
X79918004Y-42612435D01*
X79918002Y-42612430D01*
X79916907Y-42607209D01*
X79906734Y-42581449D01*
X79900316Y-42510743D01*
X79934831Y-42446073D01*
X81451499Y-40929405D01*
X81513811Y-40895379D01*
X81540594Y-40892500D01*
X89474406Y-40892500D01*
X89542527Y-40912502D01*
X89563501Y-40929405D01*
X99020848Y-50386752D01*
X99054874Y-50449064D01*
X99053459Y-50508459D01*
X99037882Y-50566591D01*
X99037881Y-50566598D01*
X99036457Y-50571913D01*
X99016502Y-50800000D01*
X99036457Y-51028087D01*
X99037881Y-51033400D01*
X99037881Y-51033402D01*
X99091457Y-51233347D01*
X99095716Y-51249243D01*
X99098039Y-51254224D01*
X99098039Y-51254225D01*
X99190151Y-51451762D01*
X99190154Y-51451767D01*
X99192477Y-51456749D01*
X99265866Y-51561559D01*
X99306255Y-51619240D01*
X99323802Y-51644300D01*
X99485700Y-51806198D01*
X99490208Y-51809355D01*
X99490211Y-51809357D01*
X99554786Y-51854573D01*
X99673251Y-51937523D01*
X99678233Y-51939846D01*
X99678238Y-51939849D01*
X99712457Y-51955805D01*
X99765742Y-52002722D01*
X99785203Y-52070999D01*
X99764661Y-52138959D01*
X99712457Y-52184195D01*
X99678238Y-52200151D01*
X99678233Y-52200154D01*
X99673251Y-52202477D01*
X99659227Y-52212297D01*
X99490211Y-52330643D01*
X99490208Y-52330645D01*
X99485700Y-52333802D01*
X99323802Y-52495700D01*
X99320645Y-52500208D01*
X99320643Y-52500211D01*
X99293183Y-52539428D01*
X99192477Y-52683251D01*
X99190154Y-52688233D01*
X99190151Y-52688238D01*
X99122722Y-52832842D01*
X99095716Y-52890757D01*
X99094294Y-52896065D01*
X99094293Y-52896067D01*
X99037881Y-53106598D01*
X99036457Y-53111913D01*
X99016502Y-53340000D01*
X99036457Y-53568087D01*
X99037881Y-53573400D01*
X99037881Y-53573402D01*
X99080739Y-53733347D01*
X99095716Y-53789243D01*
X99098039Y-53794224D01*
X99098039Y-53794225D01*
X99190151Y-53991762D01*
X99190154Y-53991767D01*
X99192477Y-53996749D01*
X99212420Y-54025230D01*
X99318714Y-54177033D01*
X99323802Y-54184300D01*
X99485700Y-54346198D01*
X99490208Y-54349355D01*
X99490211Y-54349357D01*
X99510325Y-54363441D01*
X99673251Y-54477523D01*
X99678233Y-54479846D01*
X99678238Y-54479849D01*
X99712457Y-54495805D01*
X99765742Y-54542722D01*
X99785203Y-54610999D01*
X99764661Y-54678959D01*
X99712457Y-54724195D01*
X99678238Y-54740151D01*
X99678233Y-54740154D01*
X99673251Y-54742477D01*
X99569368Y-54815217D01*
X99490211Y-54870643D01*
X99490208Y-54870645D01*
X99485700Y-54873802D01*
X99323802Y-55035700D01*
X99192477Y-55223251D01*
X99190154Y-55228233D01*
X99190151Y-55228238D01*
X99127883Y-55361774D01*
X99095716Y-55430757D01*
X99094294Y-55436065D01*
X99094293Y-55436067D01*
X99079781Y-55490226D01*
X99036457Y-55651913D01*
X99016502Y-55880000D01*
X99036457Y-56108087D01*
X99037881Y-56113400D01*
X99037881Y-56113402D01*
X99070021Y-56233347D01*
X99095716Y-56329243D01*
X99098039Y-56334224D01*
X99098039Y-56334225D01*
X99190151Y-56531762D01*
X99190154Y-56531767D01*
X99192477Y-56536749D01*
X99221726Y-56578521D01*
X99316130Y-56713343D01*
X99323802Y-56724300D01*
X99485700Y-56886198D01*
X99490208Y-56889355D01*
X99490211Y-56889357D01*
X99568389Y-56944098D01*
X99673251Y-57017523D01*
X99678233Y-57019846D01*
X99678238Y-57019849D01*
X99712457Y-57035805D01*
X99765742Y-57082722D01*
X99785203Y-57150999D01*
X99764661Y-57218959D01*
X99712457Y-57264195D01*
X99678238Y-57280151D01*
X99678233Y-57280154D01*
X99673251Y-57282477D01*
X99568389Y-57355902D01*
X99490211Y-57410643D01*
X99490208Y-57410645D01*
X99485700Y-57413802D01*
X99323802Y-57575700D01*
X99192477Y-57763251D01*
X99190154Y-57768233D01*
X99190151Y-57768238D01*
X99098041Y-57965771D01*
X99095716Y-57970757D01*
X99094294Y-57976065D01*
X99094293Y-57976067D01*
X99037881Y-58186598D01*
X99036457Y-58191913D01*
X99016502Y-58420000D01*
X99036457Y-58648087D01*
X99037881Y-58653400D01*
X99037881Y-58653402D01*
X99069375Y-58770936D01*
X99095716Y-58869243D01*
X99098039Y-58874224D01*
X99098039Y-58874225D01*
X99190151Y-59071762D01*
X99190154Y-59071767D01*
X99192477Y-59076749D01*
X99323802Y-59264300D01*
X99485700Y-59426198D01*
X99490208Y-59429355D01*
X99490211Y-59429357D01*
X99527409Y-59455403D01*
X99673251Y-59557523D01*
X99678233Y-59559846D01*
X99678238Y-59559849D01*
X99712457Y-59575805D01*
X99765742Y-59622722D01*
X99785203Y-59690999D01*
X99764661Y-59758959D01*
X99712457Y-59804195D01*
X99678238Y-59820151D01*
X99678233Y-59820154D01*
X99673251Y-59822477D01*
X99568389Y-59895902D01*
X99490211Y-59950643D01*
X99490208Y-59950645D01*
X99485700Y-59953802D01*
X99323802Y-60115700D01*
X99192477Y-60303251D01*
X99190154Y-60308233D01*
X99190151Y-60308238D01*
X99099100Y-60503500D01*
X99095716Y-60510757D01*
X99094294Y-60516065D01*
X99094293Y-60516067D01*
X99059298Y-60646668D01*
X99036457Y-60731913D01*
X99016502Y-60960000D01*
X99036457Y-61188087D01*
X99037880Y-61193398D01*
X99037881Y-61193402D01*
X99055926Y-61260744D01*
X99095716Y-61409243D01*
X99098039Y-61414224D01*
X99098039Y-61414225D01*
X99190151Y-61611762D01*
X99190154Y-61611767D01*
X99192477Y-61616749D01*
X99319991Y-61798857D01*
X99342679Y-61866131D01*
X99325394Y-61934991D01*
X99305873Y-61960223D01*
X80161449Y-81104646D01*
X80099137Y-81138672D01*
X80028322Y-81133607D01*
X79971486Y-81091060D01*
X79947413Y-81031199D01*
X79947249Y-81026842D01*
X79899907Y-80801209D01*
X79815224Y-80586779D01*
X79802254Y-80565404D01*
X79698390Y-80394243D01*
X79695623Y-80389683D01*
X79608755Y-80289576D01*
X79548023Y-80219588D01*
X79548021Y-80219586D01*
X79544523Y-80215555D01*
X79473152Y-80157034D01*
X79370373Y-80072760D01*
X79370367Y-80072756D01*
X79366245Y-80069376D01*
X79361609Y-80066737D01*
X79361606Y-80066735D01*
X79170529Y-79957968D01*
X79165886Y-79955325D01*
X78949175Y-79876663D01*
X78943926Y-79875714D01*
X78943923Y-79875713D01*
X78726392Y-79836377D01*
X78726385Y-79836376D01*
X78722308Y-79835639D01*
X78704586Y-79834803D01*
X78699644Y-79834570D01*
X78699637Y-79834570D01*
X78698156Y-79834500D01*
X78286110Y-79834500D01*
X78219191Y-79840178D01*
X78119591Y-79848629D01*
X78119587Y-79848630D01*
X78114280Y-79849080D01*
X78109125Y-79850418D01*
X78109119Y-79850419D01*
X77896297Y-79905657D01*
X77896293Y-79905658D01*
X77891128Y-79906999D01*
X77886262Y-79909191D01*
X77886259Y-79909192D01*
X77768277Y-79962339D01*
X77680925Y-80001688D01*
X77489681Y-80130441D01*
X77322865Y-80289576D01*
X77185246Y-80474542D01*
X77182830Y-80479293D01*
X77182828Y-80479297D01*
X77169345Y-80505817D01*
X77080760Y-80680051D01*
X77079178Y-80685145D01*
X77079177Y-80685148D01*
X77017115Y-80885020D01*
X77012393Y-80900227D01*
X77011692Y-80905516D01*
X76985300Y-81104646D01*
X76982102Y-81128774D01*
X76982302Y-81134103D01*
X76982302Y-81134105D01*
X76986427Y-81243966D01*
X76990751Y-81359158D01*
X77038093Y-81584791D01*
X77122776Y-81799221D01*
X77242377Y-81996317D01*
X77393477Y-82170445D01*
X77397608Y-82173832D01*
X77567627Y-82313240D01*
X77567633Y-82313244D01*
X77571755Y-82316624D01*
X77603250Y-82334552D01*
X77652555Y-82385632D01*
X77666417Y-82455262D01*
X77640434Y-82521333D01*
X77611284Y-82548573D01*
X77489681Y-82630441D01*
X77322865Y-82789576D01*
X77185246Y-82974542D01*
X77182830Y-82979293D01*
X77182828Y-82979297D01*
X77133003Y-83077296D01*
X77080760Y-83180051D01*
X77079178Y-83185145D01*
X77079177Y-83185148D01*
X77037131Y-83320559D01*
X77012393Y-83400227D01*
X77011692Y-83405516D01*
X76994423Y-83535814D01*
X76982102Y-83628774D01*
X76982302Y-83634103D01*
X76982302Y-83634105D01*
X76985423Y-83717226D01*
X76990751Y-83859158D01*
X77038093Y-84084791D01*
X77040051Y-84089750D01*
X77040052Y-84089752D01*
X77112067Y-84272103D01*
X77122776Y-84299221D01*
X77125543Y-84303780D01*
X77125544Y-84303783D01*
X77169209Y-84375740D01*
X77242377Y-84496317D01*
X77245874Y-84500347D01*
X77332438Y-84600103D01*
X77393477Y-84670445D01*
X77397608Y-84673832D01*
X77429529Y-84700006D01*
X77469524Y-84758666D01*
X77471455Y-84829636D01*
X77434710Y-84890384D01*
X77415941Y-84904584D01*
X77276193Y-84991063D01*
X77264792Y-85000099D01*
X77150261Y-85114829D01*
X77141249Y-85126240D01*
X77056184Y-85264243D01*
X77050037Y-85277424D01*
X76998862Y-85431710D01*
X76995995Y-85445086D01*
X76986328Y-85539438D01*
X76986000Y-85545855D01*
X76986000Y-85920885D01*
X76990475Y-85936124D01*
X76991865Y-85937329D01*
X76999548Y-85939000D01*
X79933884Y-85939000D01*
X79949123Y-85934525D01*
X79950328Y-85933135D01*
X79951999Y-85925452D01*
X79951999Y-85545905D01*
X79951662Y-85539386D01*
X79941743Y-85443794D01*
X79938851Y-85430400D01*
X79887412Y-85276216D01*
X79881239Y-85263038D01*
X79795937Y-85125193D01*
X79786901Y-85113792D01*
X79768781Y-85095703D01*
X86790743Y-85095703D01*
X86828268Y-85380734D01*
X86904129Y-85658036D01*
X86905813Y-85661984D01*
X87006910Y-85899000D01*
X87016923Y-85922476D01*
X87164561Y-86169161D01*
X87344313Y-86393528D01*
X87419750Y-86465115D01*
X87508797Y-86549617D01*
X87552851Y-86591423D01*
X87786317Y-86759186D01*
X87790112Y-86761195D01*
X87790113Y-86761196D01*
X87811869Y-86772715D01*
X88040392Y-86893712D01*
X88064699Y-86902607D01*
X88221675Y-86960052D01*
X88310373Y-86992511D01*
X88591264Y-87053755D01*
X88619841Y-87056004D01*
X88814282Y-87071307D01*
X88814291Y-87071307D01*
X88816739Y-87071500D01*
X88972271Y-87071500D01*
X88974407Y-87071354D01*
X88974418Y-87071354D01*
X89182548Y-87057165D01*
X89182554Y-87057164D01*
X89186825Y-87056873D01*
X89191020Y-87056004D01*
X89191022Y-87056004D01*
X89327583Y-87027724D01*
X89468342Y-86998574D01*
X89739343Y-86902607D01*
X89994812Y-86770750D01*
X89998313Y-86768289D01*
X89998317Y-86768287D01*
X90112418Y-86688095D01*
X90230023Y-86605441D01*
X90395710Y-86451475D01*
X90437479Y-86412661D01*
X90437481Y-86412658D01*
X90440622Y-86409740D01*
X90622713Y-86187268D01*
X90772927Y-85942142D01*
X90854470Y-85756383D01*
X90886757Y-85682830D01*
X90888483Y-85678898D01*
X90967244Y-85402406D01*
X91007751Y-85117784D01*
X91007845Y-85099951D01*
X91007867Y-85095703D01*
X104570743Y-85095703D01*
X104608268Y-85380734D01*
X104684129Y-85658036D01*
X104685813Y-85661984D01*
X104786910Y-85899000D01*
X104796923Y-85922476D01*
X104944561Y-86169161D01*
X105124313Y-86393528D01*
X105199750Y-86465115D01*
X105288797Y-86549617D01*
X105332851Y-86591423D01*
X105566317Y-86759186D01*
X105570112Y-86761195D01*
X105570113Y-86761196D01*
X105591869Y-86772715D01*
X105820392Y-86893712D01*
X105844699Y-86902607D01*
X106001675Y-86960052D01*
X106090373Y-86992511D01*
X106371264Y-87053755D01*
X106399841Y-87056004D01*
X106594282Y-87071307D01*
X106594291Y-87071307D01*
X106596739Y-87071500D01*
X106752271Y-87071500D01*
X106754407Y-87071354D01*
X106754418Y-87071354D01*
X106962548Y-87057165D01*
X106962554Y-87057164D01*
X106966825Y-87056873D01*
X106971020Y-87056004D01*
X106971022Y-87056004D01*
X107107583Y-87027724D01*
X107248342Y-86998574D01*
X107519343Y-86902607D01*
X107774812Y-86770750D01*
X107778313Y-86768289D01*
X107778317Y-86768287D01*
X107892418Y-86688095D01*
X108010023Y-86605441D01*
X108175710Y-86451475D01*
X108207881Y-86421580D01*
X115764752Y-86421580D01*
X115789477Y-86539421D01*
X115792537Y-86549617D01*
X115873263Y-86754029D01*
X115877994Y-86763561D01*
X115992016Y-86951462D01*
X115998280Y-86960052D01*
X116142327Y-87126052D01*
X116149958Y-87133472D01*
X116319911Y-87272826D01*
X116328678Y-87278850D01*
X116519682Y-87387576D01*
X116529346Y-87392041D01*
X116735941Y-87467031D01*
X116746208Y-87469802D01*
X116949174Y-87506504D01*
X116962414Y-87505085D01*
X116967000Y-87490450D01*
X116967000Y-87486849D01*
X117475000Y-87486849D01*
X117479310Y-87501527D01*
X117491193Y-87503590D01*
X117570325Y-87496876D01*
X117580797Y-87495086D01*
X117793535Y-87439870D01*
X117803575Y-87436335D01*
X118003970Y-87346063D01*
X118013256Y-87340894D01*
X118195575Y-87218150D01*
X118203870Y-87211481D01*
X118362900Y-87059772D01*
X118369941Y-87051814D01*
X118501141Y-86875475D01*
X118506745Y-86866438D01*
X118606357Y-86670516D01*
X118610357Y-86660665D01*
X118675534Y-86450760D01*
X118677817Y-86440376D01*
X118679861Y-86424957D01*
X118677665Y-86410793D01*
X118664478Y-86407000D01*
X117493115Y-86407000D01*
X117477876Y-86411475D01*
X117476671Y-86412865D01*
X117475000Y-86420548D01*
X117475000Y-87486849D01*
X116967000Y-87486849D01*
X116967000Y-86425115D01*
X116962525Y-86409876D01*
X116961135Y-86408671D01*
X116953452Y-86407000D01*
X115779808Y-86407000D01*
X115766277Y-86410973D01*
X115764752Y-86421580D01*
X108207881Y-86421580D01*
X108217479Y-86412661D01*
X108217481Y-86412658D01*
X108220622Y-86409740D01*
X108402713Y-86187268D01*
X108552927Y-85942142D01*
X108634470Y-85756383D01*
X108666757Y-85682830D01*
X108668483Y-85678898D01*
X108747244Y-85402406D01*
X108787751Y-85117784D01*
X108787845Y-85099951D01*
X108789235Y-84834583D01*
X108789235Y-84834576D01*
X108789257Y-84830297D01*
X108774152Y-84715559D01*
X108753201Y-84556424D01*
X108751732Y-84545266D01*
X108675871Y-84267964D01*
X108597741Y-84084791D01*
X108564763Y-84007476D01*
X108564761Y-84007472D01*
X108563077Y-84003524D01*
X108415439Y-83756839D01*
X108235687Y-83532472D01*
X108059752Y-83365516D01*
X108030258Y-83337527D01*
X108030255Y-83337525D01*
X108027149Y-83334577D01*
X107793683Y-83166814D01*
X107772844Y-83155780D01*
X107671235Y-83101981D01*
X107539608Y-83032288D01*
X107381810Y-82974542D01*
X107273658Y-82934964D01*
X107273656Y-82934963D01*
X107269627Y-82933489D01*
X106988736Y-82872245D01*
X106957685Y-82869801D01*
X106765718Y-82854693D01*
X106765709Y-82854693D01*
X106763261Y-82854500D01*
X106607729Y-82854500D01*
X106605593Y-82854646D01*
X106605582Y-82854646D01*
X106397452Y-82868835D01*
X106397446Y-82868836D01*
X106393175Y-82869127D01*
X106388980Y-82869996D01*
X106388978Y-82869996D01*
X106252416Y-82898277D01*
X106111658Y-82927426D01*
X105840657Y-83023393D01*
X105585188Y-83155250D01*
X105581687Y-83157711D01*
X105581683Y-83157713D01*
X105481048Y-83228441D01*
X105349977Y-83320559D01*
X105334892Y-83334577D01*
X105165299Y-83492173D01*
X105139378Y-83516260D01*
X104957287Y-83738732D01*
X104807073Y-83983858D01*
X104805347Y-83987791D01*
X104805346Y-83987792D01*
X104760589Y-84089752D01*
X104691517Y-84247102D01*
X104612756Y-84523594D01*
X104591374Y-84673832D01*
X104576061Y-84781434D01*
X104572249Y-84808216D01*
X104572227Y-84812505D01*
X104572226Y-84812512D01*
X104570784Y-85087852D01*
X104570743Y-85095703D01*
X91007867Y-85095703D01*
X91009235Y-84834583D01*
X91009235Y-84834576D01*
X91009257Y-84830297D01*
X90994152Y-84715559D01*
X90973201Y-84556424D01*
X90971732Y-84545266D01*
X90895871Y-84267964D01*
X90817741Y-84084791D01*
X90784763Y-84007476D01*
X90784761Y-84007472D01*
X90783077Y-84003524D01*
X90635439Y-83756839D01*
X90455687Y-83532472D01*
X90279752Y-83365516D01*
X90250258Y-83337527D01*
X90250255Y-83337525D01*
X90247149Y-83334577D01*
X90013683Y-83166814D01*
X89992844Y-83155780D01*
X89891235Y-83101981D01*
X89759608Y-83032288D01*
X89601810Y-82974542D01*
X89493658Y-82934964D01*
X89493656Y-82934963D01*
X89489627Y-82933489D01*
X89208736Y-82872245D01*
X89177685Y-82869801D01*
X88985718Y-82854693D01*
X88985709Y-82854693D01*
X88983261Y-82854500D01*
X88827729Y-82854500D01*
X88825593Y-82854646D01*
X88825582Y-82854646D01*
X88617452Y-82868835D01*
X88617446Y-82868836D01*
X88613175Y-82869127D01*
X88608980Y-82869996D01*
X88608978Y-82869996D01*
X88472416Y-82898277D01*
X88331658Y-82927426D01*
X88060657Y-83023393D01*
X87805188Y-83155250D01*
X87801687Y-83157711D01*
X87801683Y-83157713D01*
X87701048Y-83228441D01*
X87569977Y-83320559D01*
X87554892Y-83334577D01*
X87385299Y-83492173D01*
X87359378Y-83516260D01*
X87177287Y-83738732D01*
X87027073Y-83983858D01*
X87025347Y-83987791D01*
X87025346Y-83987792D01*
X86980589Y-84089752D01*
X86911517Y-84247102D01*
X86832756Y-84523594D01*
X86811374Y-84673832D01*
X86796061Y-84781434D01*
X86792249Y-84808216D01*
X86792227Y-84812505D01*
X86792226Y-84812512D01*
X86790784Y-85087852D01*
X86790743Y-85095703D01*
X79768781Y-85095703D01*
X79672171Y-84999261D01*
X79660757Y-84990247D01*
X79521287Y-84904277D01*
X79473793Y-84851505D01*
X79462369Y-84781434D01*
X79490643Y-84716310D01*
X79500430Y-84705847D01*
X79533991Y-84673832D01*
X79615135Y-84596424D01*
X79656280Y-84541124D01*
X79749568Y-84415740D01*
X79752754Y-84411458D01*
X79857240Y-84205949D01*
X79869661Y-84165949D01*
X79924024Y-83990871D01*
X79925607Y-83985773D01*
X79926308Y-83980484D01*
X79955198Y-83762511D01*
X79955198Y-83762506D01*
X79955898Y-83757226D01*
X79947249Y-83526842D01*
X79912290Y-83360227D01*
X79901004Y-83306435D01*
X79901002Y-83306430D01*
X79899907Y-83301209D01*
X79889734Y-83275449D01*
X79883316Y-83204743D01*
X79917831Y-83140073D01*
X98972591Y-64085313D01*
X99034903Y-64051287D01*
X99105718Y-64056352D01*
X99162554Y-64098899D01*
X99175880Y-64121157D01*
X99192477Y-64156749D01*
X99216196Y-64190623D01*
X99274689Y-64274159D01*
X99323802Y-64344300D01*
X99485700Y-64506198D01*
X99490208Y-64509355D01*
X99490211Y-64509357D01*
X99568389Y-64564098D01*
X99673251Y-64637523D01*
X99678233Y-64639846D01*
X99678238Y-64639849D01*
X99712457Y-64655805D01*
X99765742Y-64702722D01*
X99785203Y-64770999D01*
X99764661Y-64838959D01*
X99712457Y-64884195D01*
X99678238Y-64900151D01*
X99678233Y-64900154D01*
X99673251Y-64902477D01*
X99605016Y-64950256D01*
X99490211Y-65030643D01*
X99490208Y-65030645D01*
X99485700Y-65033802D01*
X99323802Y-65195700D01*
X99320645Y-65200208D01*
X99320643Y-65200211D01*
X99287079Y-65248146D01*
X99192477Y-65383251D01*
X99190154Y-65388233D01*
X99190151Y-65388238D01*
X99146318Y-65482240D01*
X99095716Y-65590757D01*
X99094294Y-65596065D01*
X99094293Y-65596067D01*
X99037881Y-65806598D01*
X99036457Y-65811913D01*
X99016502Y-66040000D01*
X99036457Y-66268087D01*
X99095716Y-66489243D01*
X99098039Y-66494224D01*
X99098039Y-66494225D01*
X99190151Y-66691762D01*
X99190154Y-66691767D01*
X99192477Y-66696749D01*
X99323802Y-66884300D01*
X99485700Y-67046198D01*
X99490208Y-67049355D01*
X99490211Y-67049357D01*
X99568389Y-67104098D01*
X99673251Y-67177523D01*
X99678233Y-67179846D01*
X99678238Y-67179849D01*
X99712457Y-67195805D01*
X99765742Y-67242722D01*
X99785203Y-67310999D01*
X99764661Y-67378959D01*
X99712457Y-67424195D01*
X99678238Y-67440151D01*
X99678233Y-67440154D01*
X99673251Y-67442477D01*
X99655051Y-67455221D01*
X99490211Y-67570643D01*
X99490208Y-67570645D01*
X99485700Y-67573802D01*
X99323802Y-67735700D01*
X99320645Y-67740208D01*
X99320643Y-67740211D01*
X99305984Y-67761146D01*
X99192477Y-67923251D01*
X99190154Y-67928233D01*
X99190151Y-67928238D01*
X99104777Y-68111325D01*
X99095716Y-68130757D01*
X99094294Y-68136065D01*
X99094293Y-68136067D01*
X99037881Y-68346598D01*
X99036457Y-68351913D01*
X99016502Y-68580000D01*
X99036457Y-68808087D01*
X99095716Y-69029243D01*
X99098039Y-69034224D01*
X99098039Y-69034225D01*
X99190151Y-69231762D01*
X99190154Y-69231767D01*
X99192477Y-69236749D01*
X99323802Y-69424300D01*
X99485700Y-69586198D01*
X99490208Y-69589355D01*
X99490211Y-69589357D01*
X99557516Y-69636484D01*
X99673251Y-69717523D01*
X99678233Y-69719846D01*
X99678238Y-69719849D01*
X99712457Y-69735805D01*
X99765742Y-69782722D01*
X99785203Y-69850999D01*
X99764661Y-69918959D01*
X99712457Y-69964195D01*
X99678238Y-69980151D01*
X99678233Y-69980154D01*
X99673251Y-69982477D01*
X99568389Y-70055902D01*
X99490211Y-70110643D01*
X99490208Y-70110645D01*
X99485700Y-70113802D01*
X99323802Y-70275700D01*
X99320645Y-70280208D01*
X99320643Y-70280211D01*
X99265902Y-70358389D01*
X99192477Y-70463251D01*
X99190154Y-70468233D01*
X99190151Y-70468238D01*
X99156543Y-70540312D01*
X99095716Y-70670757D01*
X99094294Y-70676065D01*
X99094293Y-70676067D01*
X99061929Y-70796852D01*
X99036457Y-70891913D01*
X99016502Y-71120000D01*
X99036457Y-71348087D01*
X99037881Y-71353400D01*
X99037881Y-71353402D01*
X99074227Y-71489044D01*
X99095716Y-71569243D01*
X99098039Y-71574224D01*
X99098039Y-71574225D01*
X99190151Y-71771762D01*
X99190154Y-71771767D01*
X99192477Y-71776749D01*
X99323802Y-71964300D01*
X99485700Y-72126198D01*
X99490208Y-72129355D01*
X99490211Y-72129357D01*
X99533631Y-72159760D01*
X99673251Y-72257523D01*
X99678233Y-72259846D01*
X99678238Y-72259849D01*
X99875775Y-72351961D01*
X99880757Y-72354284D01*
X99886065Y-72355706D01*
X99886067Y-72355707D01*
X100096598Y-72412119D01*
X100096600Y-72412119D01*
X100101913Y-72413543D01*
X100330000Y-72433498D01*
X100558087Y-72413543D01*
X100563400Y-72412119D01*
X100563402Y-72412119D01*
X100773933Y-72355707D01*
X100773935Y-72355706D01*
X100779243Y-72354284D01*
X100784225Y-72351961D01*
X100981762Y-72259849D01*
X100981767Y-72259846D01*
X100986749Y-72257523D01*
X101126369Y-72159760D01*
X101169789Y-72129357D01*
X101169792Y-72129355D01*
X101174300Y-72126198D01*
X101336198Y-71964300D01*
X101467523Y-71776749D01*
X101469846Y-71771767D01*
X101469849Y-71771762D01*
X101561961Y-71574225D01*
X101561961Y-71574224D01*
X101564284Y-71569243D01*
X101585774Y-71489044D01*
X101622119Y-71353402D01*
X101622119Y-71353400D01*
X101623543Y-71348087D01*
X101643498Y-71120000D01*
X101623543Y-70891913D01*
X101598071Y-70796852D01*
X101565707Y-70676067D01*
X101565706Y-70676065D01*
X101564284Y-70670757D01*
X101503457Y-70540312D01*
X101469849Y-70468238D01*
X101469846Y-70468233D01*
X101467523Y-70463251D01*
X101394098Y-70358389D01*
X101339357Y-70280211D01*
X101339355Y-70280208D01*
X101336198Y-70275700D01*
X101174300Y-70113802D01*
X101169792Y-70110645D01*
X101169789Y-70110643D01*
X101091611Y-70055902D01*
X100986749Y-69982477D01*
X100981767Y-69980154D01*
X100981762Y-69980151D01*
X100947543Y-69964195D01*
X100894258Y-69917278D01*
X100874797Y-69849001D01*
X100895339Y-69781041D01*
X100947543Y-69735805D01*
X100981762Y-69719849D01*
X100981767Y-69719846D01*
X100986749Y-69717523D01*
X101102484Y-69636484D01*
X101169789Y-69589357D01*
X101169792Y-69589355D01*
X101174300Y-69586198D01*
X101336198Y-69424300D01*
X101467523Y-69236749D01*
X101469846Y-69231767D01*
X101469849Y-69231762D01*
X101561961Y-69034225D01*
X101561961Y-69034224D01*
X101564284Y-69029243D01*
X101623543Y-68808087D01*
X101643498Y-68580000D01*
X101623543Y-68351913D01*
X101622119Y-68346598D01*
X101565707Y-68136067D01*
X101565706Y-68136065D01*
X101564284Y-68130757D01*
X101555223Y-68111325D01*
X101469849Y-67928238D01*
X101469846Y-67928233D01*
X101467523Y-67923251D01*
X101354016Y-67761146D01*
X101339357Y-67740211D01*
X101339355Y-67740208D01*
X101336198Y-67735700D01*
X101174300Y-67573802D01*
X101169792Y-67570645D01*
X101169789Y-67570643D01*
X101004949Y-67455221D01*
X100986749Y-67442477D01*
X100981767Y-67440154D01*
X100981762Y-67440151D01*
X100947543Y-67424195D01*
X100894258Y-67377278D01*
X100874797Y-67309001D01*
X100895339Y-67241041D01*
X100947543Y-67195805D01*
X100981762Y-67179849D01*
X100981767Y-67179846D01*
X100986749Y-67177523D01*
X101091611Y-67104098D01*
X101169789Y-67049357D01*
X101169792Y-67049355D01*
X101174300Y-67046198D01*
X101336198Y-66884300D01*
X101467523Y-66696749D01*
X101469846Y-66691767D01*
X101469849Y-66691762D01*
X101561961Y-66494225D01*
X101561961Y-66494224D01*
X101564284Y-66489243D01*
X101623543Y-66268087D01*
X101643498Y-66040000D01*
X101623543Y-65811913D01*
X101622119Y-65806598D01*
X101565707Y-65596067D01*
X101565706Y-65596065D01*
X101564284Y-65590757D01*
X101513682Y-65482240D01*
X101469849Y-65388238D01*
X101469846Y-65388233D01*
X101467523Y-65383251D01*
X101372921Y-65248146D01*
X101339357Y-65200211D01*
X101339355Y-65200208D01*
X101336198Y-65195700D01*
X101174300Y-65033802D01*
X101169792Y-65030645D01*
X101169789Y-65030643D01*
X101054984Y-64950256D01*
X100986749Y-64902477D01*
X100981767Y-64900154D01*
X100981762Y-64900151D01*
X100947543Y-64884195D01*
X100894258Y-64837278D01*
X100874797Y-64769001D01*
X100895339Y-64701041D01*
X100947543Y-64655805D01*
X100981762Y-64639849D01*
X100981767Y-64639846D01*
X100986749Y-64637523D01*
X101091611Y-64564098D01*
X101169789Y-64509357D01*
X101169792Y-64509355D01*
X101174300Y-64506198D01*
X101336198Y-64344300D01*
X101467523Y-64156749D01*
X101469846Y-64151767D01*
X101469849Y-64151762D01*
X101561961Y-63954225D01*
X101561961Y-63954224D01*
X101564284Y-63949243D01*
X101623543Y-63728087D01*
X101643498Y-63500000D01*
X101623543Y-63271913D01*
X101622119Y-63266598D01*
X101565707Y-63056067D01*
X101565706Y-63056065D01*
X101564284Y-63050757D01*
X101542271Y-63003550D01*
X101469849Y-62848238D01*
X101469846Y-62848233D01*
X101467523Y-62843251D01*
X101336198Y-62655700D01*
X101174300Y-62493802D01*
X101169792Y-62490645D01*
X101169789Y-62490643D01*
X101066124Y-62418056D01*
X100986749Y-62362477D01*
X100947541Y-62344194D01*
X100894257Y-62297278D01*
X100874796Y-62229001D01*
X100895338Y-62161041D01*
X100947543Y-62115805D01*
X100981758Y-62099851D01*
X100981764Y-62099848D01*
X100986749Y-62097523D01*
X101093426Y-62022827D01*
X101169789Y-61969357D01*
X101169792Y-61969355D01*
X101174300Y-61966198D01*
X101336198Y-61804300D01*
X101340010Y-61798857D01*
X101464366Y-61621257D01*
X101467523Y-61616749D01*
X101469846Y-61611767D01*
X101469849Y-61611762D01*
X101561961Y-61414225D01*
X101561961Y-61414224D01*
X101564284Y-61409243D01*
X101604075Y-61260744D01*
X101622119Y-61193402D01*
X101622120Y-61193398D01*
X101623543Y-61188087D01*
X101643498Y-60960000D01*
X101643019Y-60954525D01*
X101643019Y-60954514D01*
X101641974Y-60942570D01*
X101655962Y-60872965D01*
X101705361Y-60821973D01*
X101774487Y-60805782D01*
X101841393Y-60829534D01*
X101856589Y-60842493D01*
X112740595Y-71726499D01*
X112774621Y-71788811D01*
X112777500Y-71815594D01*
X112777500Y-79764233D01*
X112776973Y-79775416D01*
X112775298Y-79782909D01*
X112775547Y-79790835D01*
X112775547Y-79790836D01*
X112777438Y-79850986D01*
X112777500Y-79854945D01*
X112777500Y-79882856D01*
X112777997Y-79886790D01*
X112777997Y-79886791D01*
X112778005Y-79886856D01*
X112778938Y-79898693D01*
X112780327Y-79942889D01*
X112785978Y-79962339D01*
X112789987Y-79981700D01*
X112792526Y-80001797D01*
X112795445Y-80009168D01*
X112795445Y-80009170D01*
X112808804Y-80042912D01*
X112812649Y-80054142D01*
X112822771Y-80088983D01*
X112824982Y-80096593D01*
X112829015Y-80103412D01*
X112829017Y-80103417D01*
X112835293Y-80114028D01*
X112843988Y-80131776D01*
X112851448Y-80150617D01*
X112856110Y-80157033D01*
X112856110Y-80157034D01*
X112877436Y-80186387D01*
X112883952Y-80196307D01*
X112900349Y-80224032D01*
X112906458Y-80234362D01*
X112920779Y-80248683D01*
X112933619Y-80263716D01*
X112945528Y-80280107D01*
X112951634Y-80285158D01*
X112979605Y-80308298D01*
X112988384Y-80316288D01*
X115774077Y-83101981D01*
X115808103Y-83164293D01*
X115805314Y-83228441D01*
X115764393Y-83360227D01*
X115763692Y-83365516D01*
X115741604Y-83532173D01*
X115734102Y-83588774D01*
X115742751Y-83819158D01*
X115790093Y-84044791D01*
X115792051Y-84049750D01*
X115792052Y-84049752D01*
X115855616Y-84210704D01*
X115874776Y-84259221D01*
X115877543Y-84263780D01*
X115877544Y-84263783D01*
X115901817Y-84303783D01*
X115994377Y-84456317D01*
X115997874Y-84460347D01*
X116119148Y-84600103D01*
X116145477Y-84630445D01*
X116149608Y-84633832D01*
X116319627Y-84773240D01*
X116319633Y-84773244D01*
X116323755Y-84776624D01*
X116328398Y-84779267D01*
X116355735Y-84794829D01*
X116405041Y-84845912D01*
X116418902Y-84915542D01*
X116392918Y-84981613D01*
X116363768Y-85008851D01*
X116246422Y-85087852D01*
X116238130Y-85094519D01*
X116079100Y-85246228D01*
X116072059Y-85254186D01*
X115940859Y-85430525D01*
X115935255Y-85439562D01*
X115835643Y-85635484D01*
X115831643Y-85645335D01*
X115766466Y-85855240D01*
X115764183Y-85865624D01*
X115762139Y-85881043D01*
X115764335Y-85895207D01*
X115777522Y-85899000D01*
X118662192Y-85899000D01*
X118675723Y-85895027D01*
X118677248Y-85884420D01*
X118652523Y-85766579D01*
X118649463Y-85756383D01*
X118568737Y-85551971D01*
X118564006Y-85542439D01*
X118449984Y-85354538D01*
X118443720Y-85345948D01*
X118299673Y-85179948D01*
X118292042Y-85172528D01*
X118122089Y-85033174D01*
X118113326Y-85027152D01*
X118086289Y-85011762D01*
X118036982Y-84960680D01*
X118023120Y-84891049D01*
X118049103Y-84824978D01*
X118078253Y-84797739D01*
X118140905Y-84755559D01*
X118200319Y-84715559D01*
X118367135Y-84556424D01*
X118504754Y-84371458D01*
X118544006Y-84294256D01*
X118606822Y-84170704D01*
X118609240Y-84165949D01*
X118634441Y-84084791D01*
X118676024Y-83950871D01*
X118677607Y-83945773D01*
X118689793Y-83853827D01*
X118707198Y-83722511D01*
X118707198Y-83722506D01*
X118707898Y-83717226D01*
X118704778Y-83634105D01*
X118699449Y-83492173D01*
X118699249Y-83486842D01*
X118651907Y-83261209D01*
X118638966Y-83228441D01*
X118569185Y-83051744D01*
X118569184Y-83051742D01*
X118567224Y-83046779D01*
X118523390Y-82974542D01*
X118450390Y-82854243D01*
X118447623Y-82849683D01*
X118296523Y-82675555D01*
X118260880Y-82646330D01*
X118220886Y-82587671D01*
X118218954Y-82516701D01*
X118255698Y-82455952D01*
X118274468Y-82441752D01*
X118414120Y-82355332D01*
X118420348Y-82351478D01*
X118545305Y-82226303D01*
X118638115Y-82075738D01*
X118693797Y-81907861D01*
X118704500Y-81803400D01*
X118704500Y-80617594D01*
X118724502Y-80549473D01*
X118741405Y-80528499D01*
X120280247Y-78989657D01*
X120288537Y-78982113D01*
X120295018Y-78978000D01*
X120341659Y-78928332D01*
X120344413Y-78925491D01*
X120364135Y-78905769D01*
X120366612Y-78902576D01*
X120374317Y-78893555D01*
X120399159Y-78867100D01*
X120404586Y-78861321D01*
X120408407Y-78854371D01*
X120414346Y-78843568D01*
X120425202Y-78827041D01*
X120432757Y-78817302D01*
X120432758Y-78817300D01*
X120437614Y-78811040D01*
X120455174Y-78770460D01*
X120460391Y-78759812D01*
X120477875Y-78728009D01*
X120477876Y-78728007D01*
X120481695Y-78721060D01*
X120486733Y-78701437D01*
X120493137Y-78682734D01*
X120498033Y-78671420D01*
X120498033Y-78671419D01*
X120501181Y-78664145D01*
X120502420Y-78656322D01*
X120502423Y-78656312D01*
X120508099Y-78620476D01*
X120510505Y-78608856D01*
X120519528Y-78573711D01*
X120519528Y-78573710D01*
X120521500Y-78566030D01*
X120521500Y-78545776D01*
X120523051Y-78526065D01*
X120524980Y-78513886D01*
X120526220Y-78506057D01*
X120522059Y-78462038D01*
X120521500Y-78450181D01*
X120521500Y-41480767D01*
X120522027Y-41469584D01*
X120523702Y-41462091D01*
X120521562Y-41394014D01*
X120521500Y-41390055D01*
X120521500Y-41362144D01*
X120520995Y-41358144D01*
X120520062Y-41346301D01*
X120518922Y-41310029D01*
X120518673Y-41302110D01*
X120513022Y-41282658D01*
X120509014Y-41263306D01*
X120507467Y-41251063D01*
X120506474Y-41243203D01*
X120503556Y-41235832D01*
X120490200Y-41202097D01*
X120486355Y-41190870D01*
X120485721Y-41188687D01*
X120474018Y-41148407D01*
X120469984Y-41141585D01*
X120469981Y-41141579D01*
X120463706Y-41130968D01*
X120455010Y-41113218D01*
X120450472Y-41101756D01*
X120450469Y-41101751D01*
X120447552Y-41094383D01*
X120421573Y-41058625D01*
X120415057Y-41048707D01*
X120396575Y-41017457D01*
X120392542Y-41010637D01*
X120378218Y-40996313D01*
X120365376Y-40981278D01*
X120353472Y-40964893D01*
X120319406Y-40936711D01*
X120310627Y-40928722D01*
X119475500Y-40093595D01*
X119441474Y-40031283D01*
X119446539Y-39960468D01*
X119489086Y-39903632D01*
X119555606Y-39878821D01*
X119564595Y-39878500D01*
X122555500Y-39878500D01*
X122623621Y-39898502D01*
X122670114Y-39952158D01*
X122681500Y-40004500D01*
X122681500Y-90043500D01*
X122661498Y-90111621D01*
X122607842Y-90158114D01*
X122555500Y-90169500D01*
X73024500Y-90169500D01*
X72956379Y-90149498D01*
X72909886Y-90095842D01*
X72898500Y-90043500D01*
X72898500Y-86840095D01*
X76986001Y-86840095D01*
X76986338Y-86846614D01*
X76996257Y-86942206D01*
X76999149Y-86955600D01*
X77050588Y-87109784D01*
X77056761Y-87122962D01*
X77142063Y-87260807D01*
X77151099Y-87272208D01*
X77265829Y-87386739D01*
X77277240Y-87395751D01*
X77415243Y-87480816D01*
X77428424Y-87486963D01*
X77582710Y-87538138D01*
X77596086Y-87541005D01*
X77690438Y-87550672D01*
X77696854Y-87551000D01*
X78196885Y-87551000D01*
X78212124Y-87546525D01*
X78213329Y-87545135D01*
X78215000Y-87537452D01*
X78215000Y-87532884D01*
X78723000Y-87532884D01*
X78727475Y-87548123D01*
X78728865Y-87549328D01*
X78736548Y-87550999D01*
X79241095Y-87550999D01*
X79247614Y-87550662D01*
X79343206Y-87540743D01*
X79356600Y-87537851D01*
X79510784Y-87486412D01*
X79523962Y-87480239D01*
X79661807Y-87394937D01*
X79673208Y-87385901D01*
X79787739Y-87271171D01*
X79796751Y-87259760D01*
X79881816Y-87121757D01*
X79887963Y-87108576D01*
X79939138Y-86954290D01*
X79942005Y-86940914D01*
X79951672Y-86846562D01*
X79952000Y-86840146D01*
X79952000Y-86465115D01*
X79947525Y-86449876D01*
X79946135Y-86448671D01*
X79938452Y-86447000D01*
X78741115Y-86447000D01*
X78725876Y-86451475D01*
X78724671Y-86452865D01*
X78723000Y-86460548D01*
X78723000Y-87532884D01*
X78215000Y-87532884D01*
X78215000Y-86465115D01*
X78210525Y-86449876D01*
X78209135Y-86448671D01*
X78201452Y-86447000D01*
X77004116Y-86447000D01*
X76988877Y-86451475D01*
X76987672Y-86452865D01*
X76986001Y-86460548D01*
X76986001Y-86840095D01*
X72898500Y-86840095D01*
X72898500Y-75009095D01*
X76986001Y-75009095D01*
X76986338Y-75015614D01*
X76996257Y-75111206D01*
X76999149Y-75124600D01*
X77050588Y-75278784D01*
X77056761Y-75291962D01*
X77142063Y-75429807D01*
X77151099Y-75441208D01*
X77265829Y-75555739D01*
X77277240Y-75564751D01*
X77415243Y-75649816D01*
X77428424Y-75655963D01*
X77582710Y-75707138D01*
X77596086Y-75710005D01*
X77690438Y-75719672D01*
X77696854Y-75720000D01*
X78196885Y-75720000D01*
X78212124Y-75715525D01*
X78213329Y-75714135D01*
X78215000Y-75706452D01*
X78215000Y-75701884D01*
X78723000Y-75701884D01*
X78727475Y-75717123D01*
X78728865Y-75718328D01*
X78736548Y-75719999D01*
X79241095Y-75719999D01*
X79247614Y-75719662D01*
X79343206Y-75709743D01*
X79356600Y-75706851D01*
X79510784Y-75655412D01*
X79523962Y-75649239D01*
X79661807Y-75563937D01*
X79673208Y-75554901D01*
X79787739Y-75440171D01*
X79796751Y-75428760D01*
X79881816Y-75290757D01*
X79887963Y-75277576D01*
X79939138Y-75123290D01*
X79942005Y-75109914D01*
X79951672Y-75015562D01*
X79952000Y-75009146D01*
X79952000Y-74634115D01*
X79947525Y-74618876D01*
X79946135Y-74617671D01*
X79938452Y-74616000D01*
X78741115Y-74616000D01*
X78725876Y-74620475D01*
X78724671Y-74621865D01*
X78723000Y-74629548D01*
X78723000Y-75701884D01*
X78215000Y-75701884D01*
X78215000Y-74634115D01*
X78210525Y-74618876D01*
X78209135Y-74617671D01*
X78201452Y-74616000D01*
X77004116Y-74616000D01*
X76988877Y-74620475D01*
X76987672Y-74621865D01*
X76986001Y-74629548D01*
X76986001Y-75009095D01*
X72898500Y-75009095D01*
X72898500Y-74089885D01*
X76986000Y-74089885D01*
X76990475Y-74105124D01*
X76991865Y-74106329D01*
X76999548Y-74108000D01*
X78196885Y-74108000D01*
X78212124Y-74103525D01*
X78213329Y-74102135D01*
X78215000Y-74094452D01*
X78215000Y-74089885D01*
X78723000Y-74089885D01*
X78727475Y-74105124D01*
X78728865Y-74106329D01*
X78736548Y-74108000D01*
X79933884Y-74108000D01*
X79949123Y-74103525D01*
X79950328Y-74102135D01*
X79951999Y-74094452D01*
X79951999Y-73714905D01*
X79951662Y-73708386D01*
X79941743Y-73612794D01*
X79938851Y-73599400D01*
X79887412Y-73445216D01*
X79881239Y-73432038D01*
X79795937Y-73294193D01*
X79786901Y-73282792D01*
X79672171Y-73168261D01*
X79660760Y-73159249D01*
X79520846Y-73073005D01*
X79473353Y-73020233D01*
X79461929Y-72950161D01*
X79490203Y-72885037D01*
X79499990Y-72874576D01*
X79610900Y-72768772D01*
X79617941Y-72760814D01*
X79749141Y-72584475D01*
X79754745Y-72575438D01*
X79854357Y-72379516D01*
X79858357Y-72369665D01*
X79923534Y-72159760D01*
X79925817Y-72149376D01*
X79927861Y-72133957D01*
X79925665Y-72119793D01*
X79912478Y-72116000D01*
X78741115Y-72116000D01*
X78725876Y-72120475D01*
X78724671Y-72121865D01*
X78723000Y-72129548D01*
X78723000Y-74089885D01*
X78215000Y-74089885D01*
X78215000Y-72134115D01*
X78210525Y-72118876D01*
X78209135Y-72117671D01*
X78201452Y-72116000D01*
X77027808Y-72116000D01*
X77014277Y-72119973D01*
X77012752Y-72130580D01*
X77037477Y-72248421D01*
X77040537Y-72258617D01*
X77121263Y-72463029D01*
X77125994Y-72472561D01*
X77240016Y-72660462D01*
X77246280Y-72669052D01*
X77390327Y-72835052D01*
X77397956Y-72842470D01*
X77429978Y-72868726D01*
X77469973Y-72927385D01*
X77471906Y-72998355D01*
X77435162Y-73059104D01*
X77416391Y-73073305D01*
X77276193Y-73160063D01*
X77264792Y-73169099D01*
X77150261Y-73283829D01*
X77141249Y-73295240D01*
X77056184Y-73433243D01*
X77050037Y-73446424D01*
X76998862Y-73600710D01*
X76995995Y-73614086D01*
X76986328Y-73708438D01*
X76986000Y-73714855D01*
X76986000Y-74089885D01*
X72898500Y-74089885D01*
X72898500Y-69297774D01*
X76982102Y-69297774D01*
X76990751Y-69528158D01*
X77038093Y-69753791D01*
X77040051Y-69758750D01*
X77040052Y-69758752D01*
X77119444Y-69959783D01*
X77122776Y-69968221D01*
X77125543Y-69972780D01*
X77125544Y-69972783D01*
X77185593Y-70071740D01*
X77242377Y-70165317D01*
X77245874Y-70169347D01*
X77378697Y-70322412D01*
X77393477Y-70339445D01*
X77397608Y-70342832D01*
X77567627Y-70482240D01*
X77567633Y-70482244D01*
X77571755Y-70485624D01*
X77576398Y-70488267D01*
X77603735Y-70503829D01*
X77653041Y-70554912D01*
X77666902Y-70624542D01*
X77640918Y-70690613D01*
X77611768Y-70717851D01*
X77494422Y-70796852D01*
X77486130Y-70803519D01*
X77327100Y-70955228D01*
X77320059Y-70963186D01*
X77188859Y-71139525D01*
X77183255Y-71148562D01*
X77083643Y-71344484D01*
X77079643Y-71354335D01*
X77014466Y-71564240D01*
X77012183Y-71574624D01*
X77010139Y-71590043D01*
X77012335Y-71604207D01*
X77025522Y-71608000D01*
X79910192Y-71608000D01*
X79923723Y-71604027D01*
X79925248Y-71593420D01*
X79900523Y-71475579D01*
X79897463Y-71465383D01*
X79816737Y-71260971D01*
X79812006Y-71251439D01*
X79697984Y-71063538D01*
X79691720Y-71054948D01*
X79547673Y-70888948D01*
X79540042Y-70881528D01*
X79370089Y-70742174D01*
X79361326Y-70736152D01*
X79334289Y-70720762D01*
X79284982Y-70669680D01*
X79271120Y-70600049D01*
X79297103Y-70533978D01*
X79326253Y-70506739D01*
X79390848Y-70463251D01*
X79448319Y-70424559D01*
X79461947Y-70411559D01*
X79611278Y-70269103D01*
X79615135Y-70265424D01*
X79752754Y-70080458D01*
X79755170Y-70075706D01*
X79755175Y-70075698D01*
X79760922Y-70064394D01*
X79809625Y-70012737D01*
X79873238Y-69995500D01*
X79911233Y-69995500D01*
X79922416Y-69996027D01*
X79929909Y-69997702D01*
X79937835Y-69997453D01*
X79937836Y-69997453D01*
X79997986Y-69995562D01*
X80001945Y-69995500D01*
X80029856Y-69995500D01*
X80033791Y-69995003D01*
X80033856Y-69994995D01*
X80045693Y-69994062D01*
X80077951Y-69993048D01*
X80081970Y-69992922D01*
X80089889Y-69992673D01*
X80109343Y-69987021D01*
X80128700Y-69983013D01*
X80140930Y-69981468D01*
X80140931Y-69981468D01*
X80148797Y-69980474D01*
X80156168Y-69977555D01*
X80156170Y-69977555D01*
X80189912Y-69964196D01*
X80201142Y-69960351D01*
X80235983Y-69950229D01*
X80235984Y-69950229D01*
X80243593Y-69948018D01*
X80250412Y-69943985D01*
X80250417Y-69943983D01*
X80261028Y-69937707D01*
X80278776Y-69929012D01*
X80297617Y-69921552D01*
X80333387Y-69895564D01*
X80343307Y-69889048D01*
X80374535Y-69870580D01*
X80374538Y-69870578D01*
X80381362Y-69866542D01*
X80395683Y-69852221D01*
X80410717Y-69839380D01*
X80420694Y-69832131D01*
X80427107Y-69827472D01*
X80455298Y-69793395D01*
X80463288Y-69784616D01*
X83697609Y-66550295D01*
X83759921Y-66516269D01*
X83830736Y-66521334D01*
X83887572Y-66563881D01*
X83900899Y-66586140D01*
X83950151Y-66691762D01*
X83950154Y-66691767D01*
X83952477Y-66696749D01*
X84083802Y-66884300D01*
X84245700Y-67046198D01*
X84250208Y-67049355D01*
X84250211Y-67049357D01*
X84328389Y-67104098D01*
X84433251Y-67177523D01*
X84438233Y-67179846D01*
X84438238Y-67179849D01*
X84472457Y-67195805D01*
X84525742Y-67242722D01*
X84545203Y-67310999D01*
X84524661Y-67378959D01*
X84472457Y-67424195D01*
X84438238Y-67440151D01*
X84438233Y-67440154D01*
X84433251Y-67442477D01*
X84415051Y-67455221D01*
X84250211Y-67570643D01*
X84250208Y-67570645D01*
X84245700Y-67573802D01*
X84083802Y-67735700D01*
X84080645Y-67740208D01*
X84080643Y-67740211D01*
X84065984Y-67761146D01*
X83952477Y-67923251D01*
X83950154Y-67928233D01*
X83950151Y-67928238D01*
X83864777Y-68111325D01*
X83855716Y-68130757D01*
X83854294Y-68136065D01*
X83854293Y-68136067D01*
X83797881Y-68346598D01*
X83796457Y-68351913D01*
X83776502Y-68580000D01*
X83796457Y-68808087D01*
X83855716Y-69029243D01*
X83858039Y-69034224D01*
X83858039Y-69034225D01*
X83950151Y-69231762D01*
X83950154Y-69231767D01*
X83952477Y-69236749D01*
X84083802Y-69424300D01*
X84245700Y-69586198D01*
X84250208Y-69589355D01*
X84250211Y-69589357D01*
X84317516Y-69636484D01*
X84433251Y-69717523D01*
X84438233Y-69719846D01*
X84438238Y-69719849D01*
X84472457Y-69735805D01*
X84525742Y-69782722D01*
X84545203Y-69850999D01*
X84524661Y-69918959D01*
X84472457Y-69964195D01*
X84438238Y-69980151D01*
X84438233Y-69980154D01*
X84433251Y-69982477D01*
X84328389Y-70055902D01*
X84250211Y-70110643D01*
X84250208Y-70110645D01*
X84245700Y-70113802D01*
X84083802Y-70275700D01*
X84080645Y-70280208D01*
X84080643Y-70280211D01*
X84025902Y-70358389D01*
X83952477Y-70463251D01*
X83950154Y-70468233D01*
X83950151Y-70468238D01*
X83916543Y-70540312D01*
X83855716Y-70670757D01*
X83854294Y-70676065D01*
X83854293Y-70676067D01*
X83821929Y-70796852D01*
X83796457Y-70891913D01*
X83776502Y-71120000D01*
X83796457Y-71348087D01*
X83797881Y-71353400D01*
X83797881Y-71353402D01*
X83834227Y-71489044D01*
X83855716Y-71569243D01*
X83858039Y-71574224D01*
X83858039Y-71574225D01*
X83950151Y-71771762D01*
X83950154Y-71771767D01*
X83952477Y-71776749D01*
X84083802Y-71964300D01*
X84245700Y-72126198D01*
X84250208Y-72129355D01*
X84250211Y-72129357D01*
X84293631Y-72159760D01*
X84433251Y-72257523D01*
X84438233Y-72259846D01*
X84438238Y-72259849D01*
X84635775Y-72351961D01*
X84640757Y-72354284D01*
X84646065Y-72355706D01*
X84646067Y-72355707D01*
X84856598Y-72412119D01*
X84856600Y-72412119D01*
X84861913Y-72413543D01*
X85090000Y-72433498D01*
X85318087Y-72413543D01*
X85323400Y-72412119D01*
X85323402Y-72412119D01*
X85533933Y-72355707D01*
X85533935Y-72355706D01*
X85539243Y-72354284D01*
X85544225Y-72351961D01*
X85741762Y-72259849D01*
X85741767Y-72259846D01*
X85746749Y-72257523D01*
X85886369Y-72159760D01*
X85929789Y-72129357D01*
X85929792Y-72129355D01*
X85934300Y-72126198D01*
X86096198Y-71964300D01*
X86227523Y-71776749D01*
X86229846Y-71771767D01*
X86229849Y-71771762D01*
X86321961Y-71574225D01*
X86321961Y-71574224D01*
X86324284Y-71569243D01*
X86345774Y-71489044D01*
X86382119Y-71353402D01*
X86382119Y-71353400D01*
X86383543Y-71348087D01*
X86403498Y-71120000D01*
X86383543Y-70891913D01*
X86358071Y-70796852D01*
X86325707Y-70676067D01*
X86325706Y-70676065D01*
X86324284Y-70670757D01*
X86263457Y-70540312D01*
X86229849Y-70468238D01*
X86229846Y-70468233D01*
X86227523Y-70463251D01*
X86154098Y-70358389D01*
X86099357Y-70280211D01*
X86099355Y-70280208D01*
X86096198Y-70275700D01*
X85934300Y-70113802D01*
X85929792Y-70110645D01*
X85929789Y-70110643D01*
X85851611Y-70055902D01*
X85746749Y-69982477D01*
X85741767Y-69980154D01*
X85741762Y-69980151D01*
X85707543Y-69964195D01*
X85654258Y-69917278D01*
X85634797Y-69849001D01*
X85655339Y-69781041D01*
X85707543Y-69735805D01*
X85741762Y-69719849D01*
X85741767Y-69719846D01*
X85746749Y-69717523D01*
X85862484Y-69636484D01*
X85929789Y-69589357D01*
X85929792Y-69589355D01*
X85934300Y-69586198D01*
X86096198Y-69424300D01*
X86227523Y-69236749D01*
X86229846Y-69231767D01*
X86229849Y-69231762D01*
X86321961Y-69034225D01*
X86321961Y-69034224D01*
X86324284Y-69029243D01*
X86383543Y-68808087D01*
X86403498Y-68580000D01*
X86383543Y-68351913D01*
X86382119Y-68346598D01*
X86325707Y-68136067D01*
X86325706Y-68136065D01*
X86324284Y-68130757D01*
X86315223Y-68111325D01*
X86229849Y-67928238D01*
X86229846Y-67928233D01*
X86227523Y-67923251D01*
X86114016Y-67761146D01*
X86099357Y-67740211D01*
X86099355Y-67740208D01*
X86096198Y-67735700D01*
X85934300Y-67573802D01*
X85929792Y-67570645D01*
X85929789Y-67570643D01*
X85764949Y-67455221D01*
X85746749Y-67442477D01*
X85741767Y-67440154D01*
X85741762Y-67440151D01*
X85707543Y-67424195D01*
X85654258Y-67377278D01*
X85634797Y-67309001D01*
X85655339Y-67241041D01*
X85707543Y-67195805D01*
X85741762Y-67179849D01*
X85741767Y-67179846D01*
X85746749Y-67177523D01*
X85851611Y-67104098D01*
X85929789Y-67049357D01*
X85929792Y-67049355D01*
X85934300Y-67046198D01*
X86096198Y-66884300D01*
X86227523Y-66696749D01*
X86229846Y-66691767D01*
X86229849Y-66691762D01*
X86321961Y-66494225D01*
X86321961Y-66494224D01*
X86324284Y-66489243D01*
X86383543Y-66268087D01*
X86403498Y-66040000D01*
X86383543Y-65811913D01*
X86382119Y-65806598D01*
X86325707Y-65596067D01*
X86325706Y-65596065D01*
X86324284Y-65590757D01*
X86273682Y-65482240D01*
X86229849Y-65388238D01*
X86229846Y-65388233D01*
X86227523Y-65383251D01*
X86132921Y-65248146D01*
X86099357Y-65200211D01*
X86099355Y-65200208D01*
X86096198Y-65195700D01*
X85934300Y-65033802D01*
X85929792Y-65030645D01*
X85929789Y-65030643D01*
X85814984Y-64950256D01*
X85746749Y-64902477D01*
X85741767Y-64900154D01*
X85741762Y-64900151D01*
X85707543Y-64884195D01*
X85654258Y-64837278D01*
X85634797Y-64769001D01*
X85655339Y-64701041D01*
X85707543Y-64655805D01*
X85741762Y-64639849D01*
X85741767Y-64639846D01*
X85746749Y-64637523D01*
X85851611Y-64564098D01*
X85929789Y-64509357D01*
X85929792Y-64509355D01*
X85934300Y-64506198D01*
X86096198Y-64344300D01*
X86227523Y-64156749D01*
X86229846Y-64151767D01*
X86229849Y-64151762D01*
X86321961Y-63954225D01*
X86321961Y-63954224D01*
X86324284Y-63949243D01*
X86383543Y-63728087D01*
X86403498Y-63500000D01*
X86383543Y-63271913D01*
X86382119Y-63266598D01*
X86325707Y-63056067D01*
X86325706Y-63056065D01*
X86324284Y-63050757D01*
X86302271Y-63003550D01*
X86229849Y-62848238D01*
X86229846Y-62848233D01*
X86227523Y-62843251D01*
X86096198Y-62655700D01*
X85934300Y-62493802D01*
X85929792Y-62490645D01*
X85929789Y-62490643D01*
X85851611Y-62435902D01*
X85746749Y-62362477D01*
X85741767Y-62360154D01*
X85741762Y-62360151D01*
X85707543Y-62344195D01*
X85654258Y-62297278D01*
X85634797Y-62229001D01*
X85655339Y-62161041D01*
X85707543Y-62115805D01*
X85741762Y-62099849D01*
X85741767Y-62099846D01*
X85746749Y-62097523D01*
X85853426Y-62022827D01*
X85929789Y-61969357D01*
X85929792Y-61969355D01*
X85934300Y-61966198D01*
X86096198Y-61804300D01*
X86100010Y-61798857D01*
X86224366Y-61621257D01*
X86227523Y-61616749D01*
X86229846Y-61611767D01*
X86229849Y-61611762D01*
X86321961Y-61414225D01*
X86321961Y-61414224D01*
X86324284Y-61409243D01*
X86364075Y-61260744D01*
X86382119Y-61193402D01*
X86382120Y-61193398D01*
X86383543Y-61188087D01*
X86403498Y-60960000D01*
X86383543Y-60731913D01*
X86360702Y-60646668D01*
X86325707Y-60516067D01*
X86325706Y-60516065D01*
X86324284Y-60510757D01*
X86320900Y-60503500D01*
X86229849Y-60308238D01*
X86229846Y-60308233D01*
X86227523Y-60303251D01*
X86096198Y-60115700D01*
X85934300Y-59953802D01*
X85929792Y-59950645D01*
X85929789Y-59950643D01*
X85851611Y-59895902D01*
X85746749Y-59822477D01*
X85741767Y-59820154D01*
X85741762Y-59820151D01*
X85707543Y-59804195D01*
X85654258Y-59757278D01*
X85634797Y-59689001D01*
X85655339Y-59621041D01*
X85707543Y-59575805D01*
X85741762Y-59559849D01*
X85741767Y-59559846D01*
X85746749Y-59557523D01*
X85892591Y-59455403D01*
X85929789Y-59429357D01*
X85929792Y-59429355D01*
X85934300Y-59426198D01*
X86096198Y-59264300D01*
X86227523Y-59076749D01*
X86229846Y-59071767D01*
X86229849Y-59071762D01*
X86321961Y-58874225D01*
X86321961Y-58874224D01*
X86324284Y-58869243D01*
X86350626Y-58770936D01*
X86382119Y-58653402D01*
X86382119Y-58653400D01*
X86383543Y-58648087D01*
X86403498Y-58420000D01*
X86383543Y-58191913D01*
X86382119Y-58186598D01*
X86325707Y-57976067D01*
X86325706Y-57976065D01*
X86324284Y-57970757D01*
X86321959Y-57965771D01*
X86229849Y-57768238D01*
X86229846Y-57768233D01*
X86227523Y-57763251D01*
X86096198Y-57575700D01*
X85934300Y-57413802D01*
X85929792Y-57410645D01*
X85929789Y-57410643D01*
X85851611Y-57355902D01*
X85746749Y-57282477D01*
X85741767Y-57280154D01*
X85741762Y-57280151D01*
X85707543Y-57264195D01*
X85654258Y-57217278D01*
X85634797Y-57149001D01*
X85655339Y-57081041D01*
X85707543Y-57035805D01*
X85741762Y-57019849D01*
X85741767Y-57019846D01*
X85746749Y-57017523D01*
X85851611Y-56944098D01*
X85929789Y-56889357D01*
X85929792Y-56889355D01*
X85934300Y-56886198D01*
X86096198Y-56724300D01*
X86103871Y-56713343D01*
X86198274Y-56578521D01*
X86227523Y-56536749D01*
X86229846Y-56531767D01*
X86229849Y-56531762D01*
X86321961Y-56334225D01*
X86321961Y-56334224D01*
X86324284Y-56329243D01*
X86349980Y-56233347D01*
X86382119Y-56113402D01*
X86382119Y-56113400D01*
X86383543Y-56108087D01*
X86403498Y-55880000D01*
X86383543Y-55651913D01*
X86340219Y-55490226D01*
X86325707Y-55436067D01*
X86325706Y-55436065D01*
X86324284Y-55430757D01*
X86292117Y-55361774D01*
X86229849Y-55228238D01*
X86229846Y-55228233D01*
X86227523Y-55223251D01*
X86096198Y-55035700D01*
X85934300Y-54873802D01*
X85929792Y-54870645D01*
X85929789Y-54870643D01*
X85850632Y-54815217D01*
X85746749Y-54742477D01*
X85741767Y-54740154D01*
X85741762Y-54740151D01*
X85707543Y-54724195D01*
X85654258Y-54677278D01*
X85634797Y-54609001D01*
X85655339Y-54541041D01*
X85707543Y-54495805D01*
X85741762Y-54479849D01*
X85741767Y-54479846D01*
X85746749Y-54477523D01*
X85909675Y-54363441D01*
X85929789Y-54349357D01*
X85929792Y-54349355D01*
X85934300Y-54346198D01*
X86096198Y-54184300D01*
X86101287Y-54177033D01*
X86207580Y-54025230D01*
X86227523Y-53996749D01*
X86229846Y-53991767D01*
X86229849Y-53991762D01*
X86321961Y-53794225D01*
X86321961Y-53794224D01*
X86324284Y-53789243D01*
X86339262Y-53733347D01*
X86382119Y-53573402D01*
X86382119Y-53573400D01*
X86383543Y-53568087D01*
X86403498Y-53340000D01*
X86383543Y-53111913D01*
X86382119Y-53106598D01*
X86325707Y-52896067D01*
X86325706Y-52896065D01*
X86324284Y-52890757D01*
X86297278Y-52832842D01*
X86229849Y-52688238D01*
X86229846Y-52688233D01*
X86227523Y-52683251D01*
X86126817Y-52539428D01*
X86099357Y-52500211D01*
X86099355Y-52500208D01*
X86096198Y-52495700D01*
X85934300Y-52333802D01*
X85929792Y-52330645D01*
X85929789Y-52330643D01*
X85760773Y-52212297D01*
X85746749Y-52202477D01*
X85741767Y-52200154D01*
X85741762Y-52200151D01*
X85707543Y-52184195D01*
X85654258Y-52137278D01*
X85634797Y-52069001D01*
X85655339Y-52001041D01*
X85707543Y-51955805D01*
X85741762Y-51939849D01*
X85741767Y-51939846D01*
X85746749Y-51937523D01*
X85865214Y-51854573D01*
X85929789Y-51809357D01*
X85929792Y-51809355D01*
X85934300Y-51806198D01*
X86096198Y-51644300D01*
X86113746Y-51619240D01*
X86154134Y-51561559D01*
X86227523Y-51456749D01*
X86229846Y-51451767D01*
X86229849Y-51451762D01*
X86321961Y-51254225D01*
X86321961Y-51254224D01*
X86324284Y-51249243D01*
X86328544Y-51233347D01*
X86382119Y-51033402D01*
X86382119Y-51033400D01*
X86383543Y-51028087D01*
X86403498Y-50800000D01*
X86383543Y-50571913D01*
X86379787Y-50557895D01*
X86325707Y-50356067D01*
X86325706Y-50356065D01*
X86324284Y-50350757D01*
X86281890Y-50259842D01*
X86229849Y-50148238D01*
X86229846Y-50148233D01*
X86227523Y-50143251D01*
X86096198Y-49955700D01*
X85934300Y-49793802D01*
X85929792Y-49790645D01*
X85929789Y-49790643D01*
X85794172Y-49695683D01*
X85746749Y-49662477D01*
X85741767Y-49660154D01*
X85741762Y-49660151D01*
X85706951Y-49643919D01*
X85653666Y-49597002D01*
X85634205Y-49528725D01*
X85654747Y-49460765D01*
X85706951Y-49415529D01*
X85741511Y-49399414D01*
X85751006Y-49393931D01*
X85803048Y-49357491D01*
X85811424Y-49347012D01*
X85804356Y-49333566D01*
X85102812Y-48632022D01*
X85088868Y-48624408D01*
X85087035Y-48624539D01*
X85080420Y-48628790D01*
X84374923Y-49334287D01*
X84368493Y-49346062D01*
X84377789Y-49358077D01*
X84428994Y-49393931D01*
X84438489Y-49399414D01*
X84473049Y-49415529D01*
X84526334Y-49462446D01*
X84545795Y-49530723D01*
X84525253Y-49598683D01*
X84473049Y-49643919D01*
X84438238Y-49660151D01*
X84438233Y-49660154D01*
X84433251Y-49662477D01*
X84385828Y-49695683D01*
X84250211Y-49790643D01*
X84250208Y-49790645D01*
X84245700Y-49793802D01*
X84083802Y-49955700D01*
X83952477Y-50143251D01*
X83950154Y-50148233D01*
X83950151Y-50148238D01*
X83898110Y-50259842D01*
X83855716Y-50350757D01*
X83854294Y-50356065D01*
X83854293Y-50356067D01*
X83800213Y-50557895D01*
X83796457Y-50571913D01*
X83776502Y-50800000D01*
X83796457Y-51028087D01*
X83797881Y-51033400D01*
X83797881Y-51033402D01*
X83851457Y-51233347D01*
X83855716Y-51249243D01*
X83858039Y-51254224D01*
X83858039Y-51254225D01*
X83950151Y-51451762D01*
X83950154Y-51451767D01*
X83952477Y-51456749D01*
X84025866Y-51561559D01*
X84066255Y-51619240D01*
X84083802Y-51644300D01*
X84245700Y-51806198D01*
X84250208Y-51809355D01*
X84250211Y-51809357D01*
X84314786Y-51854573D01*
X84433251Y-51937523D01*
X84438233Y-51939846D01*
X84438238Y-51939849D01*
X84472457Y-51955805D01*
X84525742Y-52002722D01*
X84545203Y-52070999D01*
X84524661Y-52138959D01*
X84472457Y-52184195D01*
X84438238Y-52200151D01*
X84438233Y-52200154D01*
X84433251Y-52202477D01*
X84419227Y-52212297D01*
X84250211Y-52330643D01*
X84250208Y-52330645D01*
X84245700Y-52333802D01*
X84083802Y-52495700D01*
X84080645Y-52500208D01*
X84080643Y-52500211D01*
X84053183Y-52539428D01*
X83952477Y-52683251D01*
X83950154Y-52688233D01*
X83950151Y-52688238D01*
X83882722Y-52832842D01*
X83855716Y-52890757D01*
X83854294Y-52896065D01*
X83854293Y-52896067D01*
X83797881Y-53106598D01*
X83796457Y-53111913D01*
X83776502Y-53340000D01*
X83796457Y-53568087D01*
X83797881Y-53573400D01*
X83797881Y-53573402D01*
X83840739Y-53733347D01*
X83855716Y-53789243D01*
X83858039Y-53794224D01*
X83858039Y-53794225D01*
X83950151Y-53991762D01*
X83950154Y-53991767D01*
X83952477Y-53996749D01*
X83972420Y-54025230D01*
X84078714Y-54177033D01*
X84083802Y-54184300D01*
X84245700Y-54346198D01*
X84250208Y-54349355D01*
X84250211Y-54349357D01*
X84270325Y-54363441D01*
X84433251Y-54477523D01*
X84438233Y-54479846D01*
X84438238Y-54479849D01*
X84472457Y-54495805D01*
X84525742Y-54542722D01*
X84545203Y-54610999D01*
X84524661Y-54678959D01*
X84472457Y-54724195D01*
X84438238Y-54740151D01*
X84438233Y-54740154D01*
X84433251Y-54742477D01*
X84329368Y-54815217D01*
X84250211Y-54870643D01*
X84250208Y-54870645D01*
X84245700Y-54873802D01*
X84083802Y-55035700D01*
X83952477Y-55223251D01*
X83950154Y-55228233D01*
X83950151Y-55228238D01*
X83887883Y-55361774D01*
X83855716Y-55430757D01*
X83854294Y-55436065D01*
X83854293Y-55436067D01*
X83839781Y-55490226D01*
X83796457Y-55651913D01*
X83776502Y-55880000D01*
X83796457Y-56108087D01*
X83797881Y-56113400D01*
X83797881Y-56113402D01*
X83830021Y-56233347D01*
X83855716Y-56329243D01*
X83858039Y-56334224D01*
X83858039Y-56334225D01*
X83950151Y-56531762D01*
X83950154Y-56531767D01*
X83952477Y-56536749D01*
X83981726Y-56578521D01*
X84076130Y-56713343D01*
X84083802Y-56724300D01*
X84245700Y-56886198D01*
X84250208Y-56889355D01*
X84250211Y-56889357D01*
X84328389Y-56944098D01*
X84433251Y-57017523D01*
X84438233Y-57019846D01*
X84438238Y-57019849D01*
X84472457Y-57035805D01*
X84525742Y-57082722D01*
X84545203Y-57150999D01*
X84524661Y-57218959D01*
X84472457Y-57264195D01*
X84438238Y-57280151D01*
X84438233Y-57280154D01*
X84433251Y-57282477D01*
X84328389Y-57355902D01*
X84250211Y-57410643D01*
X84250208Y-57410645D01*
X84245700Y-57413802D01*
X84083802Y-57575700D01*
X83952477Y-57763251D01*
X83950154Y-57768233D01*
X83950151Y-57768238D01*
X83858941Y-57963840D01*
X83855716Y-57970757D01*
X83854292Y-57976072D01*
X83852411Y-57981240D01*
X83850750Y-57980636D01*
X83822464Y-58029631D01*
X80148104Y-61703991D01*
X80085792Y-61738017D01*
X80014977Y-61732952D01*
X79958141Y-61690405D01*
X79935694Y-61640770D01*
X79901002Y-61475428D01*
X79899907Y-61470209D01*
X79815224Y-61255779D01*
X79774148Y-61188087D01*
X79698390Y-61063243D01*
X79695623Y-61058683D01*
X79608755Y-60958576D01*
X79548023Y-60888588D01*
X79548021Y-60888586D01*
X79544523Y-60884555D01*
X79468199Y-60821973D01*
X79370373Y-60741760D01*
X79370367Y-60741756D01*
X79366245Y-60738376D01*
X79361609Y-60735737D01*
X79361606Y-60735735D01*
X79170529Y-60626968D01*
X79165886Y-60624325D01*
X78949175Y-60545663D01*
X78943926Y-60544714D01*
X78943923Y-60544713D01*
X78726392Y-60505377D01*
X78726385Y-60505376D01*
X78722308Y-60504639D01*
X78704586Y-60503803D01*
X78699644Y-60503570D01*
X78699637Y-60503570D01*
X78698156Y-60503500D01*
X78286110Y-60503500D01*
X78219191Y-60509178D01*
X78119591Y-60517629D01*
X78119587Y-60517630D01*
X78114280Y-60518080D01*
X78109125Y-60519418D01*
X78109119Y-60519419D01*
X77896297Y-60574657D01*
X77896293Y-60574658D01*
X77891128Y-60575999D01*
X77886262Y-60578191D01*
X77886259Y-60578192D01*
X77777980Y-60626968D01*
X77680925Y-60670688D01*
X77489681Y-60799441D01*
X77322865Y-60958576D01*
X77185246Y-61143542D01*
X77182830Y-61148293D01*
X77182828Y-61148297D01*
X77133003Y-61246297D01*
X77080760Y-61349051D01*
X77079178Y-61354145D01*
X77079177Y-61354148D01*
X77017115Y-61554020D01*
X77012393Y-61569227D01*
X77011692Y-61574516D01*
X76994532Y-61703991D01*
X76982102Y-61797774D01*
X76990751Y-62028158D01*
X77038093Y-62253791D01*
X77122776Y-62468221D01*
X77125543Y-62472780D01*
X77125544Y-62472783D01*
X77205876Y-62605166D01*
X77242377Y-62665317D01*
X77393477Y-62839445D01*
X77397608Y-62842832D01*
X77567627Y-62982240D01*
X77567633Y-62982244D01*
X77571755Y-62985624D01*
X77603250Y-63003552D01*
X77652555Y-63054632D01*
X77666417Y-63124262D01*
X77640434Y-63190333D01*
X77611284Y-63217573D01*
X77489681Y-63299441D01*
X77322865Y-63458576D01*
X77185246Y-63643542D01*
X77080760Y-63849051D01*
X77079178Y-63854145D01*
X77079177Y-63854148D01*
X77018013Y-64051129D01*
X77012393Y-64069227D01*
X77011692Y-64074516D01*
X76985232Y-64274159D01*
X76982102Y-64297774D01*
X76990751Y-64528158D01*
X77038093Y-64753791D01*
X77040051Y-64758750D01*
X77040052Y-64758752D01*
X77119444Y-64959783D01*
X77122776Y-64968221D01*
X77125543Y-64972780D01*
X77125544Y-64972783D01*
X77185593Y-65071740D01*
X77242377Y-65165317D01*
X77245874Y-65169347D01*
X77378697Y-65322412D01*
X77393477Y-65339445D01*
X77397608Y-65342832D01*
X77567627Y-65482240D01*
X77567633Y-65482244D01*
X77571755Y-65485624D01*
X77603250Y-65503552D01*
X77652555Y-65554632D01*
X77666417Y-65624262D01*
X77640434Y-65690333D01*
X77611284Y-65717573D01*
X77489681Y-65799441D01*
X77485824Y-65803120D01*
X77485822Y-65803122D01*
X77417637Y-65868168D01*
X77322865Y-65958576D01*
X77185246Y-66143542D01*
X77080760Y-66349051D01*
X77012393Y-66569227D01*
X77011692Y-66574516D01*
X76995492Y-66696749D01*
X76982102Y-66797774D01*
X76990751Y-67028158D01*
X77038093Y-67253791D01*
X77040051Y-67258750D01*
X77040052Y-67258752D01*
X77119444Y-67459783D01*
X77122776Y-67468221D01*
X77125543Y-67472780D01*
X77125544Y-67472783D01*
X77184927Y-67570643D01*
X77242377Y-67665317D01*
X77245874Y-67669347D01*
X77378697Y-67822412D01*
X77393477Y-67839445D01*
X77397608Y-67842832D01*
X77567627Y-67982240D01*
X77567633Y-67982244D01*
X77571755Y-67985624D01*
X77603250Y-68003552D01*
X77652555Y-68054632D01*
X77666417Y-68124262D01*
X77640434Y-68190333D01*
X77611284Y-68217573D01*
X77489681Y-68299441D01*
X77322865Y-68458576D01*
X77185246Y-68643542D01*
X77080760Y-68849051D01*
X77012393Y-69069227D01*
X77011692Y-69074516D01*
X76989593Y-69241257D01*
X76982102Y-69297774D01*
X72898500Y-69297774D01*
X72898500Y-40004500D01*
X72918502Y-39936379D01*
X72972158Y-39889886D01*
X73024500Y-39878500D01*
X80406405Y-39878500D01*
X80474526Y-39898502D01*
G37*
%TD.AperFunction*%
%TA.AperFunction,Conductor*%
G36*
X108979526Y-39898502D02*
G01*
X109026019Y-39952158D01*
X109036123Y-40022432D01*
X109006629Y-40087012D01*
X109000500Y-40093595D01*
X106333500Y-42760595D01*
X106271188Y-42794621D01*
X106244405Y-42797500D01*
X105033600Y-42797500D01*
X105030354Y-42797837D01*
X105030350Y-42797837D01*
X104934692Y-42807762D01*
X104934688Y-42807763D01*
X104927834Y-42808474D01*
X104921298Y-42810655D01*
X104921296Y-42810655D01*
X104789194Y-42854728D01*
X104760054Y-42864450D01*
X104609652Y-42957522D01*
X104484695Y-43082697D01*
X104480855Y-43088927D01*
X104480854Y-43088928D01*
X104449928Y-43139100D01*
X104391885Y-43233262D01*
X104336203Y-43401139D01*
X104335503Y-43407975D01*
X104335502Y-43407978D01*
X104331091Y-43451031D01*
X104325500Y-43505600D01*
X104325500Y-45106400D01*
X104325837Y-45109646D01*
X104325837Y-45109650D01*
X104335329Y-45201129D01*
X104336474Y-45212166D01*
X104338655Y-45218702D01*
X104338655Y-45218704D01*
X104357793Y-45276067D01*
X104392450Y-45379946D01*
X104485522Y-45530348D01*
X104610697Y-45655305D01*
X104616927Y-45659145D01*
X104616928Y-45659146D01*
X104754090Y-45743694D01*
X104761262Y-45748115D01*
X104804701Y-45762523D01*
X104922611Y-45801632D01*
X104922613Y-45801632D01*
X104929139Y-45803797D01*
X104935975Y-45804497D01*
X104935978Y-45804498D01*
X104979031Y-45808909D01*
X105033600Y-45814500D01*
X106334400Y-45814500D01*
X106337646Y-45814163D01*
X106337650Y-45814163D01*
X106433308Y-45804238D01*
X106433312Y-45804237D01*
X106440166Y-45803526D01*
X106446702Y-45801345D01*
X106446704Y-45801345D01*
X106578806Y-45757272D01*
X106607946Y-45747550D01*
X106758348Y-45654478D01*
X106883305Y-45529303D01*
X106973353Y-45383220D01*
X107026124Y-45335727D01*
X107096196Y-45324303D01*
X107161320Y-45352577D01*
X107171782Y-45362364D01*
X107277234Y-45472906D01*
X107285186Y-45479941D01*
X107461525Y-45611141D01*
X107470562Y-45616745D01*
X107666484Y-45716357D01*
X107676335Y-45720357D01*
X107886240Y-45785534D01*
X107896624Y-45787817D01*
X107912043Y-45789861D01*
X107926207Y-45787665D01*
X107930000Y-45774478D01*
X107930000Y-45772192D01*
X108438000Y-45772192D01*
X108441973Y-45785723D01*
X108452580Y-45787248D01*
X108570421Y-45762523D01*
X108580617Y-45759463D01*
X108785029Y-45678737D01*
X108794561Y-45674006D01*
X108982462Y-45559984D01*
X108991052Y-45553720D01*
X109157052Y-45409673D01*
X109164472Y-45402042D01*
X109303826Y-45232089D01*
X109309850Y-45223322D01*
X109418576Y-45032318D01*
X109423041Y-45022654D01*
X109498031Y-44816059D01*
X109500802Y-44805792D01*
X109540123Y-44588345D01*
X109541056Y-44580116D01*
X109541268Y-44575624D01*
X109537525Y-44562876D01*
X109536135Y-44561671D01*
X109528452Y-44560000D01*
X108456115Y-44560000D01*
X108440876Y-44564475D01*
X108439671Y-44565865D01*
X108438000Y-44573548D01*
X108438000Y-45772192D01*
X107930000Y-45772192D01*
X107930000Y-44178000D01*
X107950002Y-44109879D01*
X108003658Y-44063386D01*
X108056000Y-44052000D01*
X109519970Y-44052000D01*
X109534648Y-44047690D01*
X109536711Y-44035807D01*
X109527876Y-43931675D01*
X109526086Y-43921203D01*
X109470870Y-43708465D01*
X109467335Y-43698425D01*
X109377063Y-43498030D01*
X109371894Y-43488744D01*
X109249150Y-43306425D01*
X109242481Y-43298130D01*
X109090772Y-43139100D01*
X109082814Y-43132059D01*
X108906475Y-43000859D01*
X108897438Y-42995255D01*
X108701516Y-42895643D01*
X108691665Y-42891643D01*
X108481760Y-42826466D01*
X108471376Y-42824183D01*
X108362671Y-42809775D01*
X108297769Y-42780995D01*
X108258730Y-42721696D01*
X108257947Y-42650704D01*
X108290132Y-42595772D01*
X110083499Y-40802405D01*
X110145811Y-40768379D01*
X110172594Y-40765500D01*
X118303406Y-40765500D01*
X118371527Y-40785502D01*
X118392501Y-40802405D01*
X119217595Y-41627499D01*
X119251621Y-41689811D01*
X119254500Y-41716594D01*
X119254500Y-78171406D01*
X119234498Y-78239527D01*
X119217595Y-78260501D01*
X117720500Y-79757595D01*
X117658188Y-79791621D01*
X117631405Y-79794500D01*
X116445600Y-79794500D01*
X116442354Y-79794837D01*
X116442350Y-79794837D01*
X116346692Y-79804762D01*
X116346688Y-79804763D01*
X116339834Y-79805474D01*
X116333298Y-79807655D01*
X116333296Y-79807655D01*
X116210483Y-79848629D01*
X116172054Y-79861450D01*
X116021652Y-79954522D01*
X115896695Y-80079697D01*
X115892855Y-80085927D01*
X115892854Y-80085928D01*
X115810465Y-80219588D01*
X115803885Y-80230262D01*
X115801581Y-80237209D01*
X115751008Y-80389683D01*
X115748203Y-80398139D01*
X115737500Y-80502600D01*
X115737500Y-80969405D01*
X115717498Y-81037526D01*
X115663842Y-81084019D01*
X115593568Y-81094123D01*
X115528988Y-81064629D01*
X115522405Y-81058500D01*
X114081405Y-79617500D01*
X114047379Y-79555188D01*
X114044500Y-79528405D01*
X114044500Y-74617580D01*
X115764752Y-74617580D01*
X115789477Y-74735421D01*
X115792537Y-74745617D01*
X115873263Y-74950029D01*
X115877994Y-74959561D01*
X115992016Y-75147462D01*
X115998280Y-75156052D01*
X116142327Y-75322052D01*
X116149958Y-75329472D01*
X116319911Y-75468826D01*
X116328678Y-75474850D01*
X116519682Y-75583576D01*
X116529346Y-75588041D01*
X116735941Y-75663031D01*
X116746208Y-75665802D01*
X116949174Y-75702504D01*
X116962414Y-75701085D01*
X116967000Y-75686450D01*
X116967000Y-75682849D01*
X117475000Y-75682849D01*
X117479310Y-75697527D01*
X117491193Y-75699590D01*
X117570325Y-75692876D01*
X117580797Y-75691086D01*
X117793535Y-75635870D01*
X117803575Y-75632335D01*
X118003970Y-75542063D01*
X118013256Y-75536894D01*
X118195575Y-75414150D01*
X118203870Y-75407481D01*
X118362900Y-75255772D01*
X118369941Y-75247814D01*
X118501141Y-75071475D01*
X118506745Y-75062438D01*
X118606357Y-74866516D01*
X118610357Y-74856665D01*
X118675534Y-74646760D01*
X118677817Y-74636376D01*
X118679861Y-74620957D01*
X118677665Y-74606793D01*
X118664478Y-74603000D01*
X117493115Y-74603000D01*
X117477876Y-74607475D01*
X117476671Y-74608865D01*
X117475000Y-74616548D01*
X117475000Y-75682849D01*
X116967000Y-75682849D01*
X116967000Y-74621115D01*
X116962525Y-74605876D01*
X116961135Y-74604671D01*
X116953452Y-74603000D01*
X115779808Y-74603000D01*
X115766277Y-74606973D01*
X115764752Y-74617580D01*
X114044500Y-74617580D01*
X114044500Y-74077043D01*
X115762139Y-74077043D01*
X115764335Y-74091207D01*
X115777522Y-74095000D01*
X116948885Y-74095000D01*
X116964124Y-74090525D01*
X116965329Y-74089135D01*
X116967000Y-74081452D01*
X116967000Y-74076885D01*
X117475000Y-74076885D01*
X117479475Y-74092124D01*
X117480865Y-74093329D01*
X117488548Y-74095000D01*
X118662192Y-74095000D01*
X118675723Y-74091027D01*
X118677248Y-74080420D01*
X118652523Y-73962579D01*
X118649463Y-73952383D01*
X118568737Y-73747971D01*
X118564006Y-73738439D01*
X118449984Y-73550538D01*
X118443720Y-73541948D01*
X118299673Y-73375948D01*
X118292042Y-73368528D01*
X118122089Y-73229174D01*
X118113323Y-73223150D01*
X118085801Y-73207483D01*
X118036496Y-73156400D01*
X118022635Y-73086770D01*
X118048619Y-73020699D01*
X118077768Y-72993462D01*
X118195575Y-72914150D01*
X118203870Y-72907481D01*
X118362900Y-72755772D01*
X118369941Y-72747814D01*
X118501141Y-72571475D01*
X118506745Y-72562438D01*
X118606357Y-72366516D01*
X118610357Y-72356665D01*
X118675534Y-72146760D01*
X118677817Y-72136376D01*
X118679861Y-72120957D01*
X118677665Y-72106793D01*
X118664478Y-72103000D01*
X117493115Y-72103000D01*
X117477876Y-72107475D01*
X117476671Y-72108865D01*
X117475000Y-72116548D01*
X117475000Y-74076885D01*
X116967000Y-74076885D01*
X116967000Y-72121115D01*
X116962525Y-72105876D01*
X116961135Y-72104671D01*
X116953452Y-72103000D01*
X115779808Y-72103000D01*
X115766277Y-72106973D01*
X115764752Y-72117580D01*
X115789477Y-72235421D01*
X115792537Y-72245617D01*
X115873263Y-72450029D01*
X115877994Y-72459561D01*
X115992016Y-72647462D01*
X115998280Y-72656052D01*
X116142327Y-72822052D01*
X116149958Y-72829472D01*
X116319911Y-72968826D01*
X116328677Y-72974850D01*
X116356199Y-72990517D01*
X116405504Y-73041600D01*
X116419365Y-73111230D01*
X116393381Y-73177301D01*
X116364232Y-73204538D01*
X116246425Y-73283850D01*
X116238130Y-73290519D01*
X116079100Y-73442228D01*
X116072059Y-73450186D01*
X115940859Y-73626525D01*
X115935255Y-73635562D01*
X115835643Y-73831484D01*
X115831643Y-73841335D01*
X115766466Y-74051240D01*
X115764183Y-74061624D01*
X115762139Y-74077043D01*
X114044500Y-74077043D01*
X114044500Y-71579768D01*
X114045027Y-71568585D01*
X114046702Y-71561092D01*
X114044562Y-71493001D01*
X114044500Y-71489044D01*
X114044500Y-71461144D01*
X114043996Y-71457153D01*
X114043063Y-71445311D01*
X114041923Y-71409036D01*
X114041674Y-71401111D01*
X114036021Y-71381652D01*
X114032012Y-71362293D01*
X114031846Y-71360983D01*
X114029474Y-71342203D01*
X114026558Y-71334837D01*
X114026556Y-71334831D01*
X114013200Y-71301098D01*
X114009355Y-71289868D01*
X113999230Y-71255017D01*
X113999230Y-71255016D01*
X113997019Y-71247407D01*
X113986705Y-71229966D01*
X113978008Y-71212213D01*
X113973472Y-71200758D01*
X113970552Y-71193383D01*
X113944563Y-71157612D01*
X113938047Y-71147692D01*
X113933217Y-71139525D01*
X113915542Y-71109638D01*
X113901221Y-71095317D01*
X113888380Y-71080283D01*
X113881131Y-71070306D01*
X113876472Y-71063893D01*
X113842395Y-71035702D01*
X113833616Y-71027712D01*
X112090678Y-69284774D01*
X115734102Y-69284774D01*
X115742751Y-69515158D01*
X115743846Y-69520377D01*
X115758319Y-69589357D01*
X115790093Y-69740791D01*
X115792051Y-69745750D01*
X115792052Y-69745752D01*
X115872805Y-69950229D01*
X115874776Y-69955221D01*
X115877543Y-69959780D01*
X115877544Y-69959783D01*
X115939998Y-70062703D01*
X115994377Y-70152317D01*
X115997874Y-70156347D01*
X116088814Y-70261146D01*
X116145477Y-70326445D01*
X116187030Y-70360516D01*
X116319627Y-70469240D01*
X116319633Y-70469244D01*
X116323755Y-70472624D01*
X116328398Y-70475267D01*
X116355735Y-70490829D01*
X116405041Y-70541912D01*
X116418902Y-70611542D01*
X116392918Y-70677613D01*
X116363768Y-70704851D01*
X116246422Y-70783852D01*
X116238130Y-70790519D01*
X116079100Y-70942228D01*
X116072059Y-70950186D01*
X115940859Y-71126525D01*
X115935255Y-71135562D01*
X115835643Y-71331484D01*
X115831643Y-71341335D01*
X115766466Y-71551240D01*
X115764183Y-71561624D01*
X115762139Y-71577043D01*
X115764335Y-71591207D01*
X115777522Y-71595000D01*
X118662192Y-71595000D01*
X118675723Y-71591027D01*
X118677248Y-71580420D01*
X118652523Y-71462579D01*
X118649463Y-71452383D01*
X118568737Y-71247971D01*
X118564006Y-71238439D01*
X118449984Y-71050538D01*
X118443720Y-71041948D01*
X118299673Y-70875948D01*
X118292042Y-70868528D01*
X118122089Y-70729174D01*
X118113326Y-70723152D01*
X118086289Y-70707762D01*
X118036982Y-70656680D01*
X118023120Y-70587049D01*
X118049103Y-70520978D01*
X118078253Y-70493739D01*
X118181009Y-70424559D01*
X118200319Y-70411559D01*
X118367135Y-70252424D01*
X118504754Y-70067458D01*
X118542071Y-69994062D01*
X118573289Y-69932659D01*
X118609240Y-69861949D01*
X118612951Y-69850000D01*
X118676024Y-69646871D01*
X118677607Y-69641773D01*
X118693372Y-69522827D01*
X118707198Y-69418511D01*
X118707198Y-69418506D01*
X118707898Y-69413226D01*
X118699249Y-69182842D01*
X118651907Y-68957209D01*
X118593016Y-68808087D01*
X118569185Y-68747744D01*
X118569184Y-68747742D01*
X118567224Y-68742779D01*
X118531718Y-68684266D01*
X118454695Y-68557338D01*
X118447623Y-68545683D01*
X118360755Y-68445576D01*
X118300023Y-68375588D01*
X118300021Y-68375586D01*
X118296523Y-68371555D01*
X118208574Y-68299441D01*
X118122373Y-68228760D01*
X118122367Y-68228756D01*
X118118245Y-68225376D01*
X118086750Y-68207448D01*
X118037445Y-68156368D01*
X118023583Y-68086738D01*
X118049566Y-68020667D01*
X118078716Y-67993427D01*
X118114642Y-67969240D01*
X118200319Y-67911559D01*
X118367135Y-67752424D01*
X118504754Y-67567458D01*
X118609240Y-67361949D01*
X118645321Y-67245752D01*
X118676024Y-67146871D01*
X118677607Y-67141773D01*
X118693372Y-67022827D01*
X118707198Y-66918511D01*
X118707198Y-66918506D01*
X118707898Y-66913226D01*
X118699249Y-66682842D01*
X118651907Y-66457209D01*
X118567224Y-66242779D01*
X118507006Y-66143542D01*
X118450390Y-66050243D01*
X118447623Y-66045683D01*
X118360755Y-65945576D01*
X118300023Y-65875588D01*
X118300021Y-65875586D01*
X118296523Y-65871555D01*
X118230468Y-65817393D01*
X118122373Y-65728760D01*
X118122367Y-65728756D01*
X118118245Y-65725376D01*
X118086750Y-65707448D01*
X118037445Y-65656368D01*
X118023583Y-65586738D01*
X118049566Y-65520667D01*
X118078716Y-65493427D01*
X118181009Y-65424559D01*
X118200319Y-65411559D01*
X118229994Y-65383251D01*
X118293769Y-65322412D01*
X118367135Y-65252424D01*
X118504754Y-65067458D01*
X118519885Y-65037699D01*
X118587029Y-64905634D01*
X118609240Y-64861949D01*
X118638102Y-64769001D01*
X118676024Y-64646871D01*
X118677607Y-64641773D01*
X118693372Y-64522827D01*
X118707198Y-64418511D01*
X118707198Y-64418506D01*
X118707898Y-64413226D01*
X118699249Y-64182842D01*
X118651907Y-63957209D01*
X118595446Y-63814241D01*
X118569185Y-63747744D01*
X118569184Y-63747742D01*
X118567224Y-63742779D01*
X118554984Y-63722607D01*
X118450390Y-63550243D01*
X118447623Y-63545683D01*
X118444126Y-63541653D01*
X118300023Y-63375588D01*
X118300021Y-63375586D01*
X118296523Y-63371555D01*
X118260880Y-63342330D01*
X118220886Y-63283671D01*
X118218954Y-63212701D01*
X118255698Y-63151952D01*
X118274468Y-63137752D01*
X118414120Y-63051332D01*
X118420348Y-63047478D01*
X118464200Y-63003550D01*
X118540134Y-62927483D01*
X118545305Y-62922303D01*
X118596380Y-62839445D01*
X118634275Y-62777968D01*
X118634276Y-62777966D01*
X118638115Y-62771738D01*
X118676603Y-62655700D01*
X118691632Y-62610389D01*
X118691632Y-62610387D01*
X118693797Y-62603861D01*
X118704500Y-62499400D01*
X118704500Y-61198600D01*
X118699281Y-61148297D01*
X118694238Y-61099692D01*
X118694237Y-61099688D01*
X118693526Y-61092834D01*
X118637550Y-60925054D01*
X118544478Y-60774652D01*
X118419303Y-60649695D01*
X118382433Y-60626968D01*
X118274968Y-60560725D01*
X118274966Y-60560724D01*
X118268738Y-60556885D01*
X118129666Y-60510757D01*
X118107389Y-60503368D01*
X118107387Y-60503368D01*
X118100861Y-60501203D01*
X118094025Y-60500503D01*
X118094022Y-60500502D01*
X118050969Y-60496091D01*
X117996400Y-60490500D01*
X116445600Y-60490500D01*
X116442354Y-60490837D01*
X116442350Y-60490837D01*
X116346692Y-60500762D01*
X116346688Y-60500763D01*
X116339834Y-60501474D01*
X116333298Y-60503655D01*
X116333296Y-60503655D01*
X116286046Y-60519419D01*
X116172054Y-60557450D01*
X116021652Y-60650522D01*
X115896695Y-60775697D01*
X115892855Y-60781927D01*
X115892854Y-60781928D01*
X115827108Y-60888588D01*
X115803885Y-60926262D01*
X115748203Y-61094139D01*
X115737500Y-61198600D01*
X115737500Y-62499400D01*
X115748474Y-62605166D01*
X115750655Y-62611702D01*
X115750655Y-62611704D01*
X115794728Y-62743806D01*
X115804450Y-62772946D01*
X115897522Y-62923348D01*
X116022697Y-63048305D01*
X116168340Y-63138081D01*
X116215832Y-63190852D01*
X116227256Y-63260924D01*
X116198982Y-63326048D01*
X116189195Y-63336510D01*
X116074865Y-63445576D01*
X115937246Y-63630542D01*
X115934830Y-63635293D01*
X115934828Y-63635297D01*
X115930636Y-63643542D01*
X115832760Y-63836051D01*
X115831178Y-63841145D01*
X115831177Y-63841148D01*
X115789482Y-63975428D01*
X115764393Y-64056227D01*
X115763692Y-64061516D01*
X115735509Y-64274159D01*
X115734102Y-64284774D01*
X115742751Y-64515158D01*
X115790093Y-64740791D01*
X115792051Y-64745750D01*
X115792052Y-64745752D01*
X115853028Y-64900151D01*
X115874776Y-64955221D01*
X115877543Y-64959780D01*
X115877544Y-64959783D01*
X115885433Y-64972783D01*
X115994377Y-65152317D01*
X115997874Y-65156347D01*
X116084438Y-65256103D01*
X116145477Y-65326445D01*
X116187030Y-65360516D01*
X116319627Y-65469240D01*
X116319633Y-65469244D01*
X116323755Y-65472624D01*
X116355250Y-65490552D01*
X116404555Y-65541632D01*
X116418417Y-65611262D01*
X116392434Y-65677333D01*
X116363284Y-65704573D01*
X116241681Y-65786441D01*
X116237824Y-65790120D01*
X116237822Y-65790122D01*
X116209235Y-65817393D01*
X116074865Y-65945576D01*
X115937246Y-66130542D01*
X115934830Y-66135293D01*
X115934828Y-66135297D01*
X115930636Y-66143542D01*
X115832760Y-66336051D01*
X115831178Y-66341145D01*
X115831177Y-66341148D01*
X115786841Y-66483933D01*
X115764393Y-66556227D01*
X115763692Y-66561516D01*
X115745769Y-66696749D01*
X115734102Y-66784774D01*
X115742751Y-67015158D01*
X115790093Y-67240791D01*
X115792051Y-67245750D01*
X115792052Y-67245752D01*
X115868825Y-67440151D01*
X115874776Y-67455221D01*
X115877543Y-67459780D01*
X115877544Y-67459783D01*
X115885433Y-67472783D01*
X115994377Y-67652317D01*
X115997874Y-67656347D01*
X116088814Y-67761146D01*
X116145477Y-67826445D01*
X116187030Y-67860516D01*
X116319627Y-67969240D01*
X116319633Y-67969244D01*
X116323755Y-67972624D01*
X116355250Y-67990552D01*
X116404555Y-68041632D01*
X116418417Y-68111262D01*
X116392434Y-68177333D01*
X116363284Y-68204573D01*
X116241681Y-68286441D01*
X116237824Y-68290120D01*
X116237822Y-68290122D01*
X116224195Y-68303122D01*
X116074865Y-68445576D01*
X115937246Y-68630542D01*
X115934830Y-68635293D01*
X115934828Y-68635297D01*
X115930636Y-68643542D01*
X115832760Y-68836051D01*
X115831178Y-68841145D01*
X115831177Y-68841148D01*
X115774421Y-69023933D01*
X115764393Y-69056227D01*
X115763692Y-69061516D01*
X115739870Y-69241257D01*
X115734102Y-69284774D01*
X112090678Y-69284774D01*
X101639152Y-58833248D01*
X101605126Y-58770936D01*
X101606541Y-58711541D01*
X101622118Y-58653409D01*
X101622120Y-58653398D01*
X101623543Y-58648087D01*
X101643498Y-58420000D01*
X101623543Y-58191913D01*
X101622119Y-58186598D01*
X101565707Y-57976067D01*
X101565706Y-57976065D01*
X101564284Y-57970757D01*
X101561959Y-57965771D01*
X101469849Y-57768238D01*
X101469846Y-57768233D01*
X101467523Y-57763251D01*
X101336198Y-57575700D01*
X101174300Y-57413802D01*
X101169792Y-57410645D01*
X101169789Y-57410643D01*
X101091611Y-57355902D01*
X100986749Y-57282477D01*
X100981767Y-57280154D01*
X100981762Y-57280151D01*
X100947543Y-57264195D01*
X100894258Y-57217278D01*
X100874797Y-57149001D01*
X100895339Y-57081041D01*
X100947543Y-57035805D01*
X100981762Y-57019849D01*
X100981767Y-57019846D01*
X100986749Y-57017523D01*
X101091611Y-56944098D01*
X101169789Y-56889357D01*
X101169792Y-56889355D01*
X101174300Y-56886198D01*
X101336198Y-56724300D01*
X101343871Y-56713343D01*
X101438274Y-56578521D01*
X101467523Y-56536749D01*
X101469846Y-56531767D01*
X101469849Y-56531762D01*
X101561961Y-56334225D01*
X101561961Y-56334224D01*
X101564284Y-56329243D01*
X101589980Y-56233347D01*
X101622119Y-56113402D01*
X101622119Y-56113400D01*
X101623543Y-56108087D01*
X101643498Y-55880000D01*
X101623543Y-55651913D01*
X101580219Y-55490226D01*
X101565707Y-55436067D01*
X101565706Y-55436065D01*
X101564284Y-55430757D01*
X101532117Y-55361774D01*
X101469849Y-55228238D01*
X101469846Y-55228233D01*
X101467523Y-55223251D01*
X101336198Y-55035700D01*
X101174300Y-54873802D01*
X101169792Y-54870645D01*
X101169789Y-54870643D01*
X101168447Y-54869703D01*
X104570743Y-54869703D01*
X104571302Y-54873947D01*
X104571302Y-54873951D01*
X104573084Y-54887488D01*
X104608268Y-55154734D01*
X104684129Y-55432036D01*
X104685813Y-55435984D01*
X104780253Y-55657393D01*
X104796923Y-55696476D01*
X104810882Y-55719799D01*
X104938990Y-55933852D01*
X104944561Y-55943161D01*
X105124313Y-56167528D01*
X105215289Y-56253861D01*
X105289130Y-56323933D01*
X105332851Y-56365423D01*
X105566317Y-56533186D01*
X105570112Y-56535195D01*
X105570113Y-56535196D01*
X105590972Y-56546240D01*
X105820392Y-56667712D01*
X106090373Y-56766511D01*
X106371264Y-56827755D01*
X106399841Y-56830004D01*
X106594282Y-56845307D01*
X106594291Y-56845307D01*
X106596739Y-56845500D01*
X106752271Y-56845500D01*
X106754407Y-56845354D01*
X106754418Y-56845354D01*
X106962548Y-56831165D01*
X106962554Y-56831164D01*
X106966825Y-56830873D01*
X106971020Y-56830004D01*
X106971022Y-56830004D01*
X107107584Y-56801723D01*
X107248342Y-56772574D01*
X107519343Y-56676607D01*
X107774812Y-56544750D01*
X107778313Y-56542289D01*
X107778317Y-56542287D01*
X107940976Y-56427968D01*
X108010023Y-56379441D01*
X108167239Y-56233347D01*
X108217479Y-56186661D01*
X108217481Y-56186658D01*
X108220622Y-56183740D01*
X108402713Y-55961268D01*
X108552927Y-55716142D01*
X108668483Y-55452898D01*
X108673278Y-55436067D01*
X108746068Y-55180534D01*
X108747244Y-55176406D01*
X108787751Y-54891784D01*
X108787845Y-54873951D01*
X108789235Y-54608583D01*
X108789235Y-54608576D01*
X108789257Y-54604297D01*
X108779062Y-54526854D01*
X108757155Y-54360461D01*
X108751732Y-54319266D01*
X108747112Y-54302376D01*
X108714810Y-54184300D01*
X108675871Y-54041964D01*
X108586784Y-53833103D01*
X108564763Y-53781476D01*
X108564761Y-53781472D01*
X108563077Y-53777524D01*
X108456984Y-53600256D01*
X108417643Y-53534521D01*
X108417640Y-53534517D01*
X108415439Y-53530839D01*
X108235687Y-53306472D01*
X108036439Y-53117393D01*
X108030258Y-53111527D01*
X108030255Y-53111525D01*
X108027149Y-53108577D01*
X107793683Y-52940814D01*
X107782276Y-52934774D01*
X107699142Y-52890757D01*
X107539608Y-52806288D01*
X107398427Y-52754623D01*
X107273658Y-52708964D01*
X107273656Y-52708963D01*
X107269627Y-52707489D01*
X106988736Y-52646245D01*
X106957685Y-52643801D01*
X106765718Y-52628693D01*
X106765709Y-52628693D01*
X106763261Y-52628500D01*
X106607729Y-52628500D01*
X106605593Y-52628646D01*
X106605582Y-52628646D01*
X106397452Y-52642835D01*
X106397446Y-52642836D01*
X106393175Y-52643127D01*
X106388980Y-52643996D01*
X106388978Y-52643996D01*
X106252417Y-52672276D01*
X106111658Y-52701426D01*
X105840657Y-52797393D01*
X105836848Y-52799359D01*
X105669420Y-52885775D01*
X105585188Y-52929250D01*
X105581687Y-52931711D01*
X105581683Y-52931713D01*
X105568734Y-52940814D01*
X105349977Y-53094559D01*
X105139378Y-53290260D01*
X104957287Y-53512732D01*
X104807073Y-53757858D01*
X104805347Y-53761791D01*
X104805346Y-53761792D01*
X104787557Y-53802317D01*
X104691517Y-54021102D01*
X104612756Y-54297594D01*
X104572249Y-54582216D01*
X104572227Y-54586505D01*
X104572226Y-54586512D01*
X104570836Y-54851866D01*
X104570743Y-54869703D01*
X101168447Y-54869703D01*
X101090632Y-54815217D01*
X100986749Y-54742477D01*
X100981767Y-54740154D01*
X100981762Y-54740151D01*
X100947543Y-54724195D01*
X100894258Y-54677278D01*
X100874797Y-54609001D01*
X100895339Y-54541041D01*
X100947543Y-54495805D01*
X100981762Y-54479849D01*
X100981767Y-54479846D01*
X100986749Y-54477523D01*
X101149675Y-54363441D01*
X101169789Y-54349357D01*
X101169792Y-54349355D01*
X101174300Y-54346198D01*
X101336198Y-54184300D01*
X101341287Y-54177033D01*
X101447580Y-54025230D01*
X101467523Y-53996749D01*
X101469846Y-53991767D01*
X101469849Y-53991762D01*
X101561961Y-53794225D01*
X101561961Y-53794224D01*
X101564284Y-53789243D01*
X101579262Y-53733347D01*
X101622119Y-53573402D01*
X101622119Y-53573400D01*
X101623543Y-53568087D01*
X101643498Y-53340000D01*
X101623543Y-53111913D01*
X101622119Y-53106598D01*
X101565707Y-52896067D01*
X101565706Y-52896065D01*
X101564284Y-52890757D01*
X101537278Y-52832842D01*
X101469849Y-52688238D01*
X101469846Y-52688233D01*
X101467523Y-52683251D01*
X101366817Y-52539428D01*
X101339357Y-52500211D01*
X101339355Y-52500208D01*
X101336198Y-52495700D01*
X101174300Y-52333802D01*
X101169792Y-52330645D01*
X101169789Y-52330643D01*
X101000773Y-52212297D01*
X100986749Y-52202477D01*
X100981767Y-52200154D01*
X100981762Y-52200151D01*
X100947543Y-52184195D01*
X100894258Y-52137278D01*
X100874797Y-52069001D01*
X100895339Y-52001041D01*
X100947543Y-51955805D01*
X100981762Y-51939849D01*
X100981767Y-51939846D01*
X100986749Y-51937523D01*
X101105214Y-51854573D01*
X101169789Y-51809357D01*
X101169792Y-51809355D01*
X101174300Y-51806198D01*
X101336198Y-51644300D01*
X101351376Y-51622624D01*
X101446181Y-51487229D01*
X101501638Y-51442901D01*
X101549394Y-51433500D01*
X109268233Y-51433500D01*
X109279416Y-51434027D01*
X109286909Y-51435702D01*
X109294835Y-51435453D01*
X109294836Y-51435453D01*
X109354986Y-51433562D01*
X109358945Y-51433500D01*
X109386856Y-51433500D01*
X109390791Y-51433003D01*
X109390856Y-51432995D01*
X109402693Y-51432062D01*
X109434951Y-51431048D01*
X109438970Y-51430922D01*
X109446889Y-51430673D01*
X109466343Y-51425021D01*
X109485700Y-51421013D01*
X109497930Y-51419468D01*
X109497931Y-51419468D01*
X109505797Y-51418474D01*
X109513168Y-51415555D01*
X109513170Y-51415555D01*
X109546912Y-51402196D01*
X109558142Y-51398351D01*
X109592983Y-51388229D01*
X109592984Y-51388229D01*
X109600593Y-51386018D01*
X109607412Y-51381985D01*
X109607417Y-51381983D01*
X109618028Y-51375707D01*
X109635776Y-51367012D01*
X109654617Y-51359552D01*
X109690387Y-51333564D01*
X109700307Y-51327048D01*
X109731535Y-51308580D01*
X109731538Y-51308578D01*
X109738362Y-51304542D01*
X109752683Y-51290221D01*
X109767717Y-51277380D01*
X109777694Y-51270131D01*
X109784107Y-51265472D01*
X109812298Y-51231395D01*
X109820288Y-51222616D01*
X115528551Y-45514353D01*
X115590863Y-45480327D01*
X115661678Y-45485392D01*
X115718514Y-45527939D01*
X115742587Y-45587798D01*
X115742751Y-45592158D01*
X115743848Y-45597385D01*
X115743848Y-45597387D01*
X115770387Y-45723871D01*
X115790093Y-45817791D01*
X115792051Y-45822750D01*
X115792052Y-45822752D01*
X115843649Y-45953402D01*
X115874776Y-46032221D01*
X115877543Y-46036780D01*
X115877544Y-46036783D01*
X115921842Y-46109783D01*
X115994377Y-46229317D01*
X115997874Y-46233347D01*
X116140879Y-46398146D01*
X116145477Y-46403445D01*
X116149608Y-46406832D01*
X116319627Y-46546240D01*
X116319633Y-46546244D01*
X116323755Y-46549624D01*
X116355250Y-46567552D01*
X116404555Y-46618632D01*
X116418417Y-46688262D01*
X116392434Y-46754333D01*
X116363284Y-46781573D01*
X116241681Y-46863441D01*
X116237824Y-46867120D01*
X116237822Y-46867122D01*
X116181301Y-46921041D01*
X116074865Y-47022576D01*
X115937246Y-47207542D01*
X115832760Y-47413051D01*
X115831178Y-47418145D01*
X115831177Y-47418148D01*
X115791812Y-47544923D01*
X115764393Y-47633227D01*
X115763692Y-47638516D01*
X115737937Y-47832842D01*
X115734102Y-47861774D01*
X115734302Y-47867103D01*
X115734302Y-47867105D01*
X115737043Y-47940105D01*
X115742751Y-48092158D01*
X115790093Y-48317791D01*
X115792051Y-48322750D01*
X115792052Y-48322752D01*
X115859446Y-48493402D01*
X115874776Y-48532221D01*
X115877543Y-48536780D01*
X115877544Y-48536783D01*
X115930796Y-48624539D01*
X115994377Y-48729317D01*
X115997874Y-48733347D01*
X116140879Y-48898146D01*
X116145477Y-48903445D01*
X116166894Y-48921006D01*
X116319627Y-49046240D01*
X116319633Y-49046244D01*
X116323755Y-49049624D01*
X116355250Y-49067552D01*
X116404555Y-49118632D01*
X116418417Y-49188262D01*
X116392434Y-49254333D01*
X116363284Y-49281573D01*
X116241681Y-49363441D01*
X116237824Y-49367120D01*
X116237822Y-49367122D01*
X116168464Y-49433287D01*
X116074865Y-49522576D01*
X115937246Y-49707542D01*
X115832760Y-49913051D01*
X115831178Y-49918145D01*
X115831177Y-49918148D01*
X115774012Y-50102248D01*
X115764393Y-50133227D01*
X115763692Y-50138516D01*
X115737937Y-50332842D01*
X115734102Y-50361774D01*
X115734302Y-50367103D01*
X115734302Y-50367105D01*
X115736971Y-50438192D01*
X115742751Y-50592158D01*
X115790093Y-50817791D01*
X115874776Y-51032221D01*
X115877543Y-51036780D01*
X115877544Y-51036783D01*
X115921842Y-51109783D01*
X115994377Y-51229317D01*
X115997874Y-51233347D01*
X116141057Y-51398351D01*
X116145477Y-51403445D01*
X116166903Y-51421013D01*
X116319627Y-51546240D01*
X116319633Y-51546244D01*
X116323755Y-51549624D01*
X116355250Y-51567552D01*
X116404555Y-51618632D01*
X116418417Y-51688262D01*
X116392434Y-51754333D01*
X116363284Y-51781573D01*
X116241681Y-51863441D01*
X116237824Y-51867120D01*
X116237822Y-51867122D01*
X116168464Y-51933287D01*
X116074865Y-52022576D01*
X115937246Y-52207542D01*
X115832760Y-52413051D01*
X115831178Y-52418145D01*
X115831177Y-52418148D01*
X115774012Y-52602248D01*
X115764393Y-52633227D01*
X115763692Y-52638516D01*
X115737937Y-52832842D01*
X115734102Y-52861774D01*
X115734302Y-52867103D01*
X115734302Y-52867105D01*
X115736994Y-52938804D01*
X115742751Y-53092158D01*
X115790093Y-53317791D01*
X115792051Y-53322750D01*
X115792052Y-53322752D01*
X115796702Y-53334525D01*
X115874776Y-53532221D01*
X115877543Y-53536780D01*
X115877544Y-53536783D01*
X115921842Y-53609783D01*
X115994377Y-53729317D01*
X115997874Y-53733347D01*
X116140879Y-53898146D01*
X116145477Y-53903445D01*
X116149608Y-53906832D01*
X116319627Y-54046240D01*
X116319633Y-54046244D01*
X116323755Y-54049624D01*
X116355250Y-54067552D01*
X116404555Y-54118632D01*
X116418417Y-54188262D01*
X116392434Y-54254333D01*
X116363284Y-54281573D01*
X116241681Y-54363441D01*
X116237824Y-54367120D01*
X116237822Y-54367122D01*
X116176420Y-54425697D01*
X116074865Y-54522576D01*
X115937246Y-54707542D01*
X115934830Y-54712293D01*
X115934828Y-54712297D01*
X115918639Y-54744139D01*
X115832760Y-54913051D01*
X115831178Y-54918145D01*
X115831177Y-54918148D01*
X115793275Y-55040211D01*
X115764393Y-55133227D01*
X115763692Y-55138516D01*
X115748304Y-55254623D01*
X115734102Y-55361774D01*
X115742751Y-55592158D01*
X115743846Y-55597377D01*
X115763810Y-55692524D01*
X115790093Y-55817791D01*
X115792051Y-55822750D01*
X115792052Y-55822752D01*
X115814661Y-55880000D01*
X115874776Y-56032221D01*
X115994377Y-56229317D01*
X115997874Y-56233347D01*
X116126785Y-56381904D01*
X116145477Y-56403445D01*
X116167787Y-56421738D01*
X116319627Y-56546240D01*
X116319633Y-56546244D01*
X116323755Y-56549624D01*
X116328391Y-56552263D01*
X116328394Y-56552265D01*
X116437422Y-56614327D01*
X116524114Y-56663675D01*
X116740825Y-56742337D01*
X116746074Y-56743286D01*
X116746077Y-56743287D01*
X116963608Y-56782623D01*
X116963615Y-56782624D01*
X116967692Y-56783361D01*
X116985414Y-56784197D01*
X116990356Y-56784430D01*
X116990363Y-56784430D01*
X116991844Y-56784500D01*
X117403890Y-56784500D01*
X117470809Y-56778822D01*
X117570409Y-56770371D01*
X117570413Y-56770370D01*
X117575720Y-56769920D01*
X117580875Y-56768582D01*
X117580881Y-56768581D01*
X117793703Y-56713343D01*
X117793707Y-56713342D01*
X117798872Y-56712001D01*
X117803738Y-56709809D01*
X117803741Y-56709808D01*
X118004202Y-56619507D01*
X118009075Y-56617312D01*
X118200319Y-56488559D01*
X118367135Y-56329424D01*
X118504754Y-56144458D01*
X118609240Y-55938949D01*
X118627545Y-55880000D01*
X118676024Y-55723871D01*
X118677607Y-55718773D01*
X118685742Y-55657393D01*
X118707198Y-55495511D01*
X118707198Y-55495506D01*
X118707898Y-55490226D01*
X118705714Y-55432036D01*
X118699449Y-55265173D01*
X118699249Y-55259842D01*
X118651907Y-55034209D01*
X118597340Y-54896036D01*
X118569185Y-54824744D01*
X118569184Y-54824742D01*
X118567224Y-54819779D01*
X118525475Y-54750978D01*
X118450390Y-54627243D01*
X118447623Y-54622683D01*
X118360755Y-54522576D01*
X118300023Y-54452588D01*
X118300021Y-54452586D01*
X118296523Y-54448555D01*
X118254970Y-54414484D01*
X118122373Y-54305760D01*
X118122367Y-54305756D01*
X118118245Y-54302376D01*
X118086750Y-54284448D01*
X118037445Y-54233368D01*
X118023583Y-54163738D01*
X118049566Y-54097667D01*
X118078716Y-54070427D01*
X118114846Y-54046103D01*
X118200319Y-53988559D01*
X118209470Y-53979830D01*
X118363278Y-53833103D01*
X118367135Y-53829424D01*
X118504754Y-53644458D01*
X118527228Y-53600256D01*
X118606822Y-53443704D01*
X118609240Y-53438949D01*
X118645321Y-53322752D01*
X118676024Y-53223871D01*
X118677607Y-53218773D01*
X118692212Y-53108577D01*
X118707198Y-52995511D01*
X118707198Y-52995506D01*
X118707898Y-52990226D01*
X118699249Y-52759842D01*
X118651907Y-52534209D01*
X118649948Y-52529248D01*
X118569185Y-52324744D01*
X118569184Y-52324742D01*
X118567224Y-52319779D01*
X118543415Y-52280542D01*
X118474955Y-52167724D01*
X118447623Y-52122683D01*
X118359869Y-52021555D01*
X118300023Y-51952588D01*
X118300021Y-51952586D01*
X118296523Y-51948555D01*
X118204058Y-51872738D01*
X118122373Y-51805760D01*
X118122367Y-51805756D01*
X118118245Y-51802376D01*
X118086750Y-51784448D01*
X118037445Y-51733368D01*
X118023583Y-51663738D01*
X118049566Y-51597667D01*
X118078716Y-51570427D01*
X118114642Y-51546240D01*
X118200319Y-51488559D01*
X118209468Y-51479832D01*
X118295096Y-51398146D01*
X118367135Y-51329424D01*
X118504754Y-51144458D01*
X118527228Y-51100256D01*
X118606822Y-50943704D01*
X118609240Y-50938949D01*
X118645321Y-50822752D01*
X118676024Y-50723871D01*
X118677607Y-50718773D01*
X118685420Y-50659827D01*
X118707198Y-50495511D01*
X118707198Y-50495506D01*
X118707898Y-50490226D01*
X118699249Y-50259842D01*
X118651907Y-50034209D01*
X118634901Y-49991148D01*
X118569185Y-49824744D01*
X118569184Y-49824742D01*
X118567224Y-49819779D01*
X118543415Y-49780542D01*
X118450390Y-49627243D01*
X118447623Y-49622683D01*
X118377860Y-49542288D01*
X118300023Y-49452588D01*
X118300021Y-49452586D01*
X118296523Y-49448555D01*
X118204058Y-49372738D01*
X118122373Y-49305760D01*
X118122367Y-49305756D01*
X118118245Y-49302376D01*
X118086750Y-49284448D01*
X118037445Y-49233368D01*
X118023583Y-49163738D01*
X118049566Y-49097667D01*
X118078716Y-49070427D01*
X118114642Y-49046240D01*
X118200319Y-48988559D01*
X118207712Y-48981507D01*
X118363278Y-48833103D01*
X118367135Y-48829424D01*
X118504754Y-48644458D01*
X118514882Y-48624539D01*
X118574716Y-48506852D01*
X118609240Y-48438949D01*
X118645321Y-48322752D01*
X118676024Y-48223871D01*
X118677607Y-48218773D01*
X118685420Y-48159827D01*
X118707198Y-47995511D01*
X118707198Y-47995506D01*
X118707898Y-47990226D01*
X118699249Y-47759842D01*
X118651907Y-47534209D01*
X118634901Y-47491148D01*
X118569185Y-47324744D01*
X118569184Y-47324742D01*
X118567224Y-47319779D01*
X118543415Y-47280542D01*
X118450390Y-47127243D01*
X118447623Y-47122683D01*
X118444126Y-47118653D01*
X118300023Y-46952588D01*
X118300021Y-46952586D01*
X118296523Y-46948555D01*
X118204058Y-46872738D01*
X118122373Y-46805760D01*
X118122367Y-46805756D01*
X118118245Y-46802376D01*
X118086750Y-46784448D01*
X118037445Y-46733368D01*
X118023583Y-46663738D01*
X118049566Y-46597667D01*
X118078716Y-46570427D01*
X118114642Y-46546240D01*
X118200319Y-46488559D01*
X118209468Y-46479832D01*
X118363278Y-46333103D01*
X118367135Y-46329424D01*
X118504754Y-46144458D01*
X118527228Y-46100256D01*
X118574716Y-46006852D01*
X118609240Y-45938949D01*
X118645321Y-45822752D01*
X118676024Y-45723871D01*
X118677607Y-45718773D01*
X118686019Y-45655305D01*
X118707198Y-45495511D01*
X118707198Y-45495506D01*
X118707898Y-45490226D01*
X118707527Y-45480327D01*
X118702098Y-45335727D01*
X118699249Y-45259842D01*
X118690618Y-45218704D01*
X118653002Y-45039428D01*
X118651907Y-45034209D01*
X118634901Y-44991148D01*
X118569185Y-44824744D01*
X118569184Y-44824742D01*
X118567224Y-44819779D01*
X118558737Y-44805792D01*
X118450390Y-44627243D01*
X118447623Y-44622683D01*
X118415474Y-44585634D01*
X118300023Y-44452588D01*
X118300021Y-44452586D01*
X118296523Y-44448555D01*
X118260880Y-44419330D01*
X118220886Y-44360671D01*
X118218954Y-44289701D01*
X118255698Y-44228952D01*
X118274468Y-44214752D01*
X118414120Y-44128332D01*
X118420348Y-44124478D01*
X118545305Y-43999303D01*
X118602755Y-43906103D01*
X118634275Y-43854968D01*
X118634276Y-43854966D01*
X118638115Y-43848738D01*
X118680238Y-43721740D01*
X118691632Y-43687389D01*
X118691632Y-43687387D01*
X118693797Y-43680861D01*
X118704500Y-43576400D01*
X118704500Y-42275600D01*
X118703886Y-42269684D01*
X118694238Y-42176692D01*
X118694237Y-42176688D01*
X118693526Y-42169834D01*
X118668752Y-42095576D01*
X118639868Y-42009002D01*
X118637550Y-42002054D01*
X118544478Y-41851652D01*
X118419303Y-41726695D01*
X118394907Y-41711657D01*
X118274968Y-41637725D01*
X118274966Y-41637724D01*
X118268738Y-41633885D01*
X118108254Y-41580655D01*
X118107389Y-41580368D01*
X118107387Y-41580368D01*
X118100861Y-41578203D01*
X118094025Y-41577503D01*
X118094022Y-41577502D01*
X118050969Y-41573091D01*
X117996400Y-41567500D01*
X116445600Y-41567500D01*
X116442354Y-41567837D01*
X116442350Y-41567837D01*
X116346692Y-41577762D01*
X116346688Y-41577763D01*
X116339834Y-41578474D01*
X116333298Y-41580655D01*
X116333296Y-41580655D01*
X116201194Y-41624728D01*
X116172054Y-41634450D01*
X116021652Y-41727522D01*
X115896695Y-41852697D01*
X115892855Y-41858927D01*
X115892854Y-41858928D01*
X115846104Y-41934771D01*
X115803885Y-42003262D01*
X115748203Y-42171139D01*
X115737500Y-42275600D01*
X115737500Y-43461406D01*
X115717498Y-43529527D01*
X115700595Y-43550501D01*
X109121500Y-50129595D01*
X109059188Y-50163621D01*
X109032405Y-50166500D01*
X101549394Y-50166500D01*
X101481273Y-50146498D01*
X101446181Y-50112771D01*
X101339357Y-49960211D01*
X101339355Y-49960208D01*
X101336198Y-49955700D01*
X101174300Y-49793802D01*
X101169792Y-49790645D01*
X101169789Y-49790643D01*
X101034172Y-49695683D01*
X100986749Y-49662477D01*
X100981767Y-49660154D01*
X100981762Y-49660151D01*
X100947543Y-49644195D01*
X100894258Y-49597278D01*
X100874797Y-49529001D01*
X100895339Y-49461041D01*
X100947543Y-49415805D01*
X100981762Y-49399849D01*
X100981767Y-49399846D01*
X100986749Y-49397523D01*
X101115046Y-49307688D01*
X101169789Y-49269357D01*
X101169792Y-49269355D01*
X101174300Y-49266198D01*
X101336198Y-49104300D01*
X101340843Y-49097667D01*
X101422237Y-48981424D01*
X101467523Y-48916749D01*
X101469846Y-48911767D01*
X101469849Y-48911762D01*
X101561961Y-48714225D01*
X101561961Y-48714224D01*
X101564284Y-48709243D01*
X101584976Y-48632022D01*
X101622119Y-48493402D01*
X101622119Y-48493400D01*
X101623543Y-48488087D01*
X101643498Y-48260000D01*
X101623543Y-48031913D01*
X101612373Y-47990226D01*
X101565707Y-47816067D01*
X101565706Y-47816065D01*
X101564284Y-47810757D01*
X101540542Y-47759842D01*
X101469849Y-47608238D01*
X101469846Y-47608233D01*
X101467523Y-47603251D01*
X101336198Y-47415700D01*
X101174300Y-47253802D01*
X101169792Y-47250645D01*
X101169789Y-47250643D01*
X101043920Y-47162509D01*
X100986749Y-47122477D01*
X100981767Y-47120154D01*
X100981762Y-47120151D01*
X100947543Y-47104195D01*
X100894258Y-47057278D01*
X100874797Y-46989001D01*
X100895339Y-46921041D01*
X100947543Y-46875805D01*
X100981762Y-46859849D01*
X100981767Y-46859846D01*
X100986749Y-46857523D01*
X101134119Y-46754333D01*
X101169789Y-46729357D01*
X101169792Y-46729355D01*
X101174300Y-46726198D01*
X101336198Y-46564300D01*
X101346475Y-46549624D01*
X101400539Y-46472412D01*
X101467523Y-46376749D01*
X101469846Y-46371767D01*
X101469849Y-46371762D01*
X101561961Y-46174225D01*
X101561961Y-46174224D01*
X101564284Y-46169243D01*
X101580217Y-46109783D01*
X101622119Y-45953402D01*
X101622119Y-45953400D01*
X101623543Y-45948087D01*
X101643498Y-45720000D01*
X101623543Y-45491913D01*
X101608233Y-45434774D01*
X101565707Y-45276067D01*
X101565706Y-45276065D01*
X101564284Y-45270757D01*
X101542165Y-45223322D01*
X101469849Y-45068238D01*
X101469846Y-45068233D01*
X101467523Y-45063251D01*
X101394098Y-44958389D01*
X101339357Y-44880211D01*
X101339355Y-44880208D01*
X101336198Y-44875700D01*
X101174300Y-44713802D01*
X101169792Y-44710645D01*
X101169789Y-44710643D01*
X101091611Y-44655902D01*
X100986749Y-44582477D01*
X100981767Y-44580154D01*
X100981762Y-44580151D01*
X100947543Y-44564195D01*
X100894258Y-44517278D01*
X100874797Y-44449001D01*
X100895339Y-44381041D01*
X100947543Y-44335805D01*
X100981762Y-44319849D01*
X100981767Y-44319846D01*
X100986749Y-44317523D01*
X101133521Y-44214752D01*
X101169789Y-44189357D01*
X101169792Y-44189355D01*
X101174300Y-44186198D01*
X101336198Y-44024300D01*
X101372531Y-43972412D01*
X101401055Y-43931675D01*
X101467523Y-43836749D01*
X101469846Y-43831767D01*
X101469849Y-43831762D01*
X101561961Y-43634225D01*
X101561961Y-43634224D01*
X101564284Y-43629243D01*
X101569499Y-43609783D01*
X101622119Y-43413402D01*
X101622119Y-43413400D01*
X101623543Y-43408087D01*
X101643498Y-43180000D01*
X101623543Y-42951913D01*
X101618951Y-42934774D01*
X101565707Y-42736067D01*
X101565706Y-42736065D01*
X101564284Y-42730757D01*
X101552846Y-42706227D01*
X101469849Y-42528238D01*
X101469846Y-42528233D01*
X101467523Y-42523251D01*
X101336198Y-42335700D01*
X101174300Y-42173802D01*
X101169792Y-42170645D01*
X101169789Y-42170643D01*
X101091611Y-42115902D01*
X100986749Y-42042477D01*
X100981767Y-42040154D01*
X100981762Y-42040151D01*
X100784225Y-41948039D01*
X100784224Y-41948039D01*
X100779243Y-41945716D01*
X100773935Y-41944294D01*
X100773933Y-41944293D01*
X100563402Y-41887881D01*
X100563400Y-41887881D01*
X100558087Y-41886457D01*
X100330000Y-41866502D01*
X100101913Y-41886457D01*
X100096600Y-41887881D01*
X100096598Y-41887881D01*
X99886067Y-41944293D01*
X99886065Y-41944294D01*
X99880757Y-41945716D01*
X99875776Y-41948039D01*
X99875775Y-41948039D01*
X99678238Y-42040151D01*
X99678233Y-42040154D01*
X99673251Y-42042477D01*
X99568389Y-42115902D01*
X99490211Y-42170643D01*
X99490208Y-42170645D01*
X99485700Y-42173802D01*
X99323802Y-42335700D01*
X99192477Y-42523251D01*
X99190154Y-42528233D01*
X99190151Y-42528238D01*
X99107154Y-42706227D01*
X99095716Y-42730757D01*
X99094294Y-42736065D01*
X99094293Y-42736067D01*
X99041049Y-42934774D01*
X99036457Y-42951913D01*
X99016502Y-43180000D01*
X99036457Y-43408087D01*
X99037881Y-43413400D01*
X99037881Y-43413402D01*
X99090502Y-43609783D01*
X99095716Y-43629243D01*
X99098039Y-43634224D01*
X99098039Y-43634225D01*
X99190151Y-43831762D01*
X99190154Y-43831767D01*
X99192477Y-43836749D01*
X99258945Y-43931675D01*
X99287470Y-43972412D01*
X99323802Y-44024300D01*
X99485700Y-44186198D01*
X99490208Y-44189355D01*
X99490211Y-44189357D01*
X99526479Y-44214752D01*
X99673251Y-44317523D01*
X99678233Y-44319846D01*
X99678238Y-44319849D01*
X99712457Y-44335805D01*
X99765742Y-44382722D01*
X99785203Y-44450999D01*
X99764661Y-44518959D01*
X99712457Y-44564195D01*
X99678238Y-44580151D01*
X99678233Y-44580154D01*
X99673251Y-44582477D01*
X99568389Y-44655902D01*
X99490211Y-44710643D01*
X99490208Y-44710645D01*
X99485700Y-44713802D01*
X99323802Y-44875700D01*
X99320645Y-44880208D01*
X99320643Y-44880211D01*
X99265902Y-44958389D01*
X99192477Y-45063251D01*
X99190154Y-45068233D01*
X99190151Y-45068238D01*
X99117835Y-45223322D01*
X99095716Y-45270757D01*
X99094294Y-45276065D01*
X99094293Y-45276067D01*
X99051767Y-45434774D01*
X99036457Y-45491913D01*
X99016502Y-45720000D01*
X99036457Y-45948087D01*
X99037881Y-45953400D01*
X99037881Y-45953402D01*
X99079784Y-46109783D01*
X99095716Y-46169243D01*
X99098039Y-46174224D01*
X99098039Y-46174225D01*
X99190151Y-46371762D01*
X99190154Y-46371767D01*
X99192477Y-46376749D01*
X99259461Y-46472412D01*
X99313526Y-46549624D01*
X99323802Y-46564300D01*
X99485700Y-46726198D01*
X99490208Y-46729355D01*
X99490211Y-46729357D01*
X99525881Y-46754333D01*
X99673251Y-46857523D01*
X99678233Y-46859846D01*
X99678238Y-46859849D01*
X99712457Y-46875805D01*
X99765742Y-46922722D01*
X99785203Y-46990999D01*
X99764661Y-47058959D01*
X99712457Y-47104195D01*
X99678238Y-47120151D01*
X99678233Y-47120154D01*
X99673251Y-47122477D01*
X99616080Y-47162509D01*
X99490211Y-47250643D01*
X99490208Y-47250645D01*
X99485700Y-47253802D01*
X99323802Y-47415700D01*
X99192477Y-47603251D01*
X99190154Y-47608233D01*
X99190151Y-47608238D01*
X99119458Y-47759842D01*
X99095716Y-47810757D01*
X99094294Y-47816065D01*
X99094293Y-47816067D01*
X99047627Y-47990226D01*
X99036457Y-48031913D01*
X99016502Y-48260000D01*
X99016981Y-48265475D01*
X99016981Y-48265485D01*
X99018026Y-48277428D01*
X99004038Y-48347033D01*
X98954639Y-48398026D01*
X98885514Y-48414217D01*
X98818608Y-48390465D01*
X98803411Y-48377506D01*
X90519500Y-40093595D01*
X90485474Y-40031283D01*
X90490539Y-39960468D01*
X90533086Y-39903632D01*
X90599606Y-39878821D01*
X90608595Y-39878500D01*
X108911405Y-39878500D01*
X108979526Y-39898502D01*
G37*
%TD.AperFunction*%
%TD*%
M02*
